  0
SECTION
  2
HEADER
  9
$ACADVER
  1
AC1027
  9
$ACADMAINTVER
 70
     8
  9
$DWGCODEPAGE
  3
ANSI_1252
  9
$REQUIREDVERSIONS
160
                 0
  9
$INSBASE
 10
0.0
 20
0.0
 30
0.0
  9
$EXTMIN
 10
1.000000000000000E+20
 20
1.000000000000000E+20
 30
1.000000000000000E+20
  9
$EXTMAX
 10
-1.000000000000000E+20
 20
-1.000000000000000E+20
 30
-1.000000000000000E+20
  9
$LIMMIN
 10
0.0
 20
0.0
  9
$LIMMAX
 10
12.0
 20
9.0
  9
$ORTHOMODE
 70
     0
  9
$REGENMODE
 70
     1
  9
$FILLMODE
 70
     1
  9
$QTEXTMODE
 70
     0
  9
$MIRRTEXT
 70
     1
  9
$LTSCALE
 40
1.0
  9
$ATTMODE
 70
     1
  9
$TEXTSIZE
 40
0.2
  9
$TRACEWID
 40
0.05
  9
$TEXTSTYLE
  7
Standard
  9
$CLAYER
  8
0
  9
$CELTYPE
  6
ByLayer
  9
$CECOLOR
 62
   256
  9
$CELTSCALE
 40
1.0
  9
$DISPSILH
 70
     0
  9
$DIMSCALE
 40
1.0
  9
$DIMASZ
 40
2.5
  9
$DIMEXO
 40
0.625
  9
$DIMDLI
 40
0.38
  9
$DIMRND
 40
0.0
  9
$DIMDLE
 40
0.0
  9
$DIMEXE
 40
1.25
  9
$DIMTP
 40
0.0
  9
$DIMTM
 40
0.0
  9
$DIMTXT
 40
2.5
  9
$DIMCEN
 40
0.09
  9
$DIMTSZ
 40
0.0
  9
$DIMTOL
 70
     0
  9
$DIMLIM
 70
     0
  9
$DIMTIH
 70
     1
  9
$DIMTOH
 70
     1
  9
$DIMSE1
 70
     0
  9
$DIMSE2
 70
     0
  9
$DIMTAD
 70
     0
  9
$DIMZIN
 70
     8
  9
$DIMBLK
  1

  9
$DIMASO
 70
     1
  9
$DIMSHO
 70
     1
  9
$DIMPOST
  1

  9
$DIMAPOST
  1

  9
$DIMALT
 70
     0
  9
$DIMALTD
 70
     2
  9
$DIMALTF
 40
25.4
  9
$DIMLFAC
 40
1.0
  9
$DIMTOFL
 70
     0
  9
$DIMTVP
 40
0.0
  9
$DIMTIX
 70
     0
  9
$DIMSOXD
 70
     0
  9
$DIMSAH
 70
     0
  9
$DIMBLK1
  1

  9
$DIMBLK2
  1

  9
$DIMSTYLE
  2
Standard
  9
$DIMCLRD
 70
     0
  9
$DIMCLRE
 70
     0
  9
$DIMCLRT
 70
     0
  9
$DIMTFAC
 40
1.0
  9
$DIMGAP
 40
0.625
  9
$DIMJUST
 70
     0
  9
$DIMSD1
 70
     0
  9
$DIMSD2
 70
     0
  9
$DIMTOLJ
 70
     1
  9
$DIMTZIN
 70
     0
  9
$DIMALTZ
 70
     0
  9
$DIMALTTZ
 70
     0
  9
$DIMUPT
 70
     0
  9
$DIMDEC
 70
     4
  9
$DIMTDEC
 70
     4
  9
$DIMALTU
 70
     2
  9
$DIMALTTD
 70
     2
  9
$DIMTXSTY
  7
Standard
  9
$DIMAUNIT
 70
     0
  9
$DIMADEC
 70
     0
  9
$DIMALTRND
 40
0.0
  9
$DIMAZIN
 70
     2
  9
$DIMDSEP
 70
    46
  9
$DIMATFIT
 70
     3
  9
$DIMFRAC
 70
     0
  9
$DIMLDRBLK
  1

  9
$DIMLUNIT
 70
     2
  9
$DIMLWD
 70
    -2
  9
$DIMLWE
 70
    -2
  9
$DIMTMOVE
 70
     0
  9
$DIMFXL
 40
1.0
  9
$DIMFXLON
 70
     0
  9
$DIMJOGANG
 40
0.7853981633974483
  9
$DIMTFILL
 70
     0
  9
$DIMTFILLCLR
 70
     0
  9
$DIMARCSYM
 70
     0
  9
$DIMLTYPE
  6

  9
$DIMLTEX1
  6

  9
$DIMLTEX2
  6

  9
$DIMTXTDIRECTION
 70
     0
  9
$LUNITS
 70
     2
  9
$LUPREC
 70
     4
  9
$SKETCHINC
 40
0.1
  9
$FILLETRAD
 40
0.5
  9
$AUNITS
 70
     0
  9
$AUPREC
 70
     0
  9
$MENU
  1
.
  9
$ELEVATION
 40
0.0
  9
$PELEVATION
 40
0.0
  9
$THICKNESS
 40
0.0
  9
$LIMCHECK
 70
     0
  9
$CHAMFERA
 40
0.0
  9
$CHAMFERB
 40
0.0
  9
$CHAMFERC
 40
0.0
  9
$CHAMFERD
 40
0.0
  9
$SKPOLY
 70
     0
  9
$TDCREATE
 40
2457744.650277778
  9
$TDUCREATE
 40
2457744.608611111
  9
$TDUPDATE
 40
2457744.650277778
  9
$TDUUPDATE
 40
2457744.608611111
  9
$TDINDWG
 40
0.0000000116
  9
$TDUSRTIMER
 40
0.0000000116
  9
$USRTIMER
 70
     1
  9
$ANGBASE
 50
0.0
  9
$ANGDIR
 70
     0
  9
$PDMODE
 70
     0
  9
$PDSIZE
 40
0.0
  9
$PLINEWID
 40
0.0
  9
$SPLFRAME
 70
     0
  9
$SPLINETYPE
 70
     6
  9
$SPLINESEGS
 70
     8
  9
$HANDSEED
  5
2CB
  9
$SURFTAB1
 70
     6
  9
$SURFTAB2
 70
     6
  9
$SURFTYPE
 70
     6
  9
$SURFU
 70
     6
  9
$SURFV
 70
     6
  9
$UCSBASE
  2

  9
$UCSNAME
  2

  9
$UCSORG
 10
0.0
 20
0.0
 30
0.0
  9
$UCSXDIR
 10
1.0
 20
0.0
 30
0.0
  9
$UCSYDIR
 10
0.0
 20
1.0
 30
0.0
  9
$UCSORTHOREF
  2

  9
$UCSORTHOVIEW
 70
     0
  9
$UCSORGTOP
 10
0.0
 20
0.0
 30
0.0
  9
$UCSORGBOTTOM
 10
0.0
 20
0.0
 30
0.0
  9
$UCSORGLEFT
 10
0.0
 20
0.0
 30
0.0
  9
$UCSORGRIGHT
 10
0.0
 20
0.0
 30
0.0
  9
$UCSORGFRONT
 10
0.0
 20
0.0
 30
0.0
  9
$UCSORGBACK
 10
0.0
 20
0.0
 30
0.0
  9
$PUCSBASE
  2

  9
$PUCSNAME
  2

  9
$PUCSORG
 10
0.0
 20
0.0
 30
0.0
  9
$PUCSXDIR
 10
1.0
 20
0.0
 30
0.0
  9
$PUCSYDIR
 10
0.0
 20
1.0
 30
0.0
  9
$PUCSORTHOREF
  2

  9
$PUCSORTHOVIEW
 70
     0
  9
$PUCSORGTOP
 10
0.0
 20
0.0
 30
0.0
  9
$PUCSORGBOTTOM
 10
0.0
 20
0.0
 30
0.0
  9
$PUCSORGLEFT
 10
0.0
 20
0.0
 30
0.0
  9
$PUCSORGRIGHT
 10
0.0
 20
0.0
 30
0.0
  9
$PUCSORGFRONT
 10
0.0
 20
0.0
 30
0.0
  9
$PUCSORGBACK
 10
0.0
 20
0.0
 30
0.0
  9
$USERI1
 70
     0
  9
$USERI2
 70
     0
  9
$USERI3
 70
     0
  9
$USERI4
 70
     0
  9
$USERI5
 70
     0
  9
$USERR1
 40
0.0
  9
$USERR2
 40
0.0
  9
$USERR3
 40
0.0
  9
$USERR4
 40
0.0
  9
$USERR5
 40
0.0
  9
$WORLDVIEW
 70
     1
  9
$SHADEDGE
 70
     3
  9
$SHADEDIF
 70
    70
  9
$TILEMODE
 70
     1
  9
$MAXACTVP
 70
    64
  9
$PINSBASE
 10
0.0
 20
0.0
 30
0.0
  9
$PLIMCHECK
 70
     0
  9
$PEXTMIN
 10
0.0
 20
0.0
 30
0.0
  9
$PEXTMAX
 10
0.0
 20
0.0
 30
0.0
  9
$PLIMMIN
 10
-20.0
 20
-7.5
  9
$PLIMMAX
 10
277.0
 20
202.5
  9
$UNITMODE
 70
     0
  9
$VISRETAIN
 70
     1
  9
$PLINEGEN
 70
     0
  9
$PSLTSCALE
 70
     1
  9
$TREEDEPTH
 70
  3020
  9
$CMLSTYLE
  2
Standard
  9
$CMLJUST
 70
     0
  9
$CMLSCALE
 40
1.0
  9
$PROXYGRAPHICS
 70
     1
  9
$MEASUREMENT
 70
     1
  9
$CELWEIGHT
370
    -1
  9
$ENDCAPS
280
     0
  9
$JOINSTYLE
280
     0
  9
$LWDISPLAY
290
     0
  9
$INSUNITS
 70
     4
  9
$HYPERLINKBASE
  1

  9
$STYLESHEET
  1

  9
$XEDIT
290
     1
  9
$CEPSNTYPE
380
     0
  9
$PSTYLEMODE
290
     1
  9
$FINGERPRINTGUID
  2
{CB13A059-8B38-6337-D8AF-34E345564720}
  9
$VERSIONGUID
  2
{FAEB1C32-E019-11D5-929B-00C0DF256EC4}
  9
$EXTNAMES
290
     1
  9
$PSVPSCALE
 40
0.0
  9
$OLESTARTUP
290
     0
  9
$SORTENTS
280
   127
  9
$INDEXCTL
280
     0
  9
$HIDETEXT
280
     1
  9
$XCLIPFRAME
280
     2
  9
$HALOGAP
280
     0
  9
$OBSCOLOR
 70
   257
  9
$OBSLTYPE
280
     0
  9
$INTERSECTIONDISPLAY
280
     0
  9
$INTERSECTIONCOLOR
 70
   257
  9
$DIMASSOC
280
     2
  9
$PROJECTNAME
  1

  9
$CAMERADISPLAY
290
     0
  9
$LENSLENGTH
 40
50.0
  9
$CAMERAHEIGHT
 40
0.0
  9
$STEPSPERSEC
 40
2.0
  9
$STEPSIZE
 40
6.0
  9
$3DDWFPREC
 40
2.0
  9
$PSOLWIDTH
 40
0.25
  9
$PSOLHEIGHT
 40
4.0
  9
$LOFTANG1
 40
1.570796326794897
  9
$LOFTANG2
 40
1.570796326794897
  9
$LOFTMAG1
 40
0.0
  9
$LOFTMAG2
 40
0.0
  9
$LOFTPARAM
 70
     7
  9
$LOFTNORMALS
280
     1
  9
$LATITUDE
 40
37.795
  9
$LONGITUDE
 40
-122.394
  9
$NORTHDIRECTION
 40
0.0
  9
$TIMEZONE
 70
 -8000
  9
$LIGHTGLYPHDISPLAY
280
     1
  9
$TILEMODELIGHTSYNCH
280
     1
  9
$CMATERIAL
347
228
  9
$SOLIDHIST
280
     0
  9
$SHOWHIST
280
     1
  9
$DWFFRAME
280
     2
  9
$DGNFRAME
280
     2
  9
$REALWORLDSCALE
290
     1
  9
$INTERFERECOLOR
 62
   256
  9
$CSHADOW
280
     0
  9
$SHADOWPLANELOCATION
 40
0.0
  0
ENDSEC
  0
SECTION
  2
CLASSES
  0
CLASS
  1
ACDBDICTIONARYWDFLT
  2
AcDbDictionaryWithDefault
  3
ObjectDBX Classes
 90
        0
 91
        4
280
     0
281
     0
  0
CLASS
  1
VISUALSTYLE
  2
AcDbVisualStyle
  3
ObjectDBX Classes
 90
     4095
 91
        4
280
     0
281
     0
  0
CLASS
  1
MATERIAL
  2
AcDbMaterial
  3
ObjectDBX Classes
 90
     1153
 91
        4
280
     0
281
     0
  0
CLASS
  1
SCALE
  2
AcDbScale
  3
ObjectDBX Classes
 90
     1153
 91
        4
280
     0
281
     0
  0
CLASS
  1
TABLESTYLE
  2
AcDbTableStyle
  3
ObjectDBX Classes
 90
     4095
 91
        4
280
     0
281
     0
  0
CLASS
  1
MLEADERSTYLE
  2
AcDbMLeaderStyle
  3
ACDB_MLEADERSTYLE_CLASS
 90
     4095
 91
        4
280
     0
281
     0
  0
CLASS
  1
SUN
  2
AcDbSun
  3
SCENEOE
 90
     1153
 91
        4
280
     0
281
     0
  0
CLASS
  1
DICTIONARYVAR
  2
AcDbDictionaryVar
  3
ObjectDBX Classes
 90
        0
 91
        4
280
     0
281
     0
  0
CLASS
  1
CELLSTYLEMAP
  2
AcDbCellStyleMap
  3
ObjectDBX Classes
 90
     1152
 91
        4
280
     0
281
     0
  0
ENDSEC
  0
SECTION
  2
TABLES
  0
TABLE
  2
VPORT
  5
1ED
330
0
100
AcDbSymbolTable
 70
     1
  0
VPORT
  5
20D
330
1ED
100
AcDbSymbolTableRecord
100
AcDbViewportTableRecord
  2
*Active
 70
     0
 10
0.0
 20
0.0
 11
1.0
 21
1.0
 12
70.76968768146003
 22
9.579325459552969
 13
0.0
 23
0.0
 14
0.5
 24
0.5
 15
0.5
 25
0.5
 16
0.0
 26
0.0
 36
1.0
 17
0.0
 27
0.0
 37
0.0
 40
33.24253544644844
 41
1.253256150506512
 42
50.0
 43
0.0
 44
0.0
 50
0.0
 51
0.0
 71
     0
 72
   100
 73
     1
 74
     3
 75
     0
 76
     0
 77
     0
 78
     0
281
     0
 65
     1
110
0.0
120
0.0
130
0.0
111
1.0
121
0.0
131
0.0
112
0.0
122
1.0
132
0.0
 79
     0
146
0.0
 60
     3
 61
     5
292
     1
282
     1
141
0.0
142
0.0
 63
   250
361
251
  0
ENDTAB
  0
TABLE
  2
LTYPE
  5
1EA
330
0
100
AcDbSymbolTable
 70
    48
  0
LTYPE
  5
1F8
330
1EA
100
AcDbSymbolTableRecord
100
AcDbLinetypeTableRecord
  2
ByBlock
 70
     0
  3

 72
    65
 73
     0
 40
0.0
  0
LTYPE
  5
1F9
330
1EA
100
AcDbSymbolTableRecord
100
AcDbLinetypeTableRecord
  2
ByLayer
 70
     0
  3

 72
    65
 73
     0
 40
0.0
  0
LTYPE
  5
1FA
330
1EA
100
AcDbSymbolTableRecord
100
AcDbLinetypeTableRecord
  2
Continuous
 70
     0
  3
Solid line
 72
    65
 73
     0
 40
0.0
  0
LTYPE
  5
286
330
1EA
100
AcDbSymbolTableRecord
100
AcDbLinetypeTableRecord
  2
HIDDENX2
 70
     0
  3
Hidden (2x) ____ ____ ____ ____ ____ ____ ____ 
 72
    65
 73
     2
 40
19.05
 49
12.7
 74
     0
 49
-6.35
 74
     0
  0
LTYPE
  5
287
330
1EA
100
AcDbSymbolTableRecord
100
AcDbLinetypeTableRecord
  2
ACAD_ISO09W100
 70
     0
  3
ISO long-dash double-short-dash ____ __ __ ____
 72
    65
 73
     6
 40
45.0
 49
24.0
 74
     0
 49
-3.0
 74
     0
 49
6.0
 74
     0
 49
-3.0
 74
     0
 49
6.0
 74
     0
 49
-3.0
 74
     0
  0
LTYPE
  5
288
330
1EA
100
AcDbSymbolTableRecord
100
AcDbLinetypeTableRecord
  2
ACAD_ISO08W100
 70
     0
  3
ISO long-dash short-dash ____ __ ____ __ ____ _
 72
    65
 73
     4
 40
36.0
 49
24.0
 74
     0
 49
-3.0
 74
     0
 49
6.0
 74
     0
 49
-3.0
 74
     0
  0
LTYPE
  5
289
330
1EA
100
AcDbSymbolTableRecord
100
AcDbLinetypeTableRecord
  2
ACAD_ISO07W100
 70
     0
  3
ISO dot . . . . . . . . . . . . . . . . . . . . 
 72
    65
 73
     2
 40
3.0
 49
0.0
 74
     0
 49
-3.0
 74
     0
  0
LTYPE
  5
28A
330
1EA
100
AcDbSymbolTableRecord
100
AcDbLinetypeTableRecord
  2
ACAD_ISO06W100
 70
     0
  3
ISO long-dash triple-dot ____ ... ____ ... ____
 72
    65
 73
     8
 40
36.0
 49
24.0
 74
     0
 49
-3.0
 74
     0
 49
0.0
 74
     0
 49
-3.0
 74
     0
 49
0.0
 74
     0
 49
-3.0
 74
     0
 49
0.0
 74
     0
 49
-3.0
 74
     0
  0
LTYPE
  5
28B
330
1EA
100
AcDbSymbolTableRecord
100
AcDbLinetypeTableRecord
  2
ACAD_ISO05W100
 70
     0
  3
ISO long-dash double-dot ____ .. ____ .. ____ . 
 72
    65
 73
     6
 40
33.0
 49
24.0
 74
     0
 49
-3.0
 74
     0
 49
0.0
 74
     0
 49
-3.0
 74
     0
 49
0.0
 74
     0
 49
-3.0
 74
     0
  0
LTYPE
  5
28C
330
1EA
100
AcDbSymbolTableRecord
100
AcDbLinetypeTableRecord
  2
ACAD_ISO04W100
 70
     0
  3
ISO long-dash dot ____ . ____ . ____ . ____ . _
 72
    65
 73
     4
 40
30.0
 49
24.0
 74
     0
 49
-3.0
 74
     0
 49
0.0
 74
     0
 49
-3.0
 74
     0
  0
LTYPE
  5
28D
330
1EA
100
AcDbSymbolTableRecord
100
AcDbLinetypeTableRecord
  2
ACAD_ISO03W100
 70
     0
  3
ISO dash space __    __    __    __    __    __
 72
    65
 73
     2
 40
30.0
 49
12.0
 74
     0
 49
-18.0
 74
     0
  0
LTYPE
  5
28E
330
1EA
100
AcDbSymbolTableRecord
100
AcDbLinetypeTableRecord
  2
ACAD_ISO02W100
 70
     0
  3
ISO dash __ __ __ __ __ __ __ __ __ __ __ __ __
 72
    65
 73
     2
 40
15.0
 49
12.0
 74
     0
 49
-3.0
 74
     0
  0
LTYPE
  5
28F
330
1EA
100
AcDbSymbolTableRecord
100
AcDbLinetypeTableRecord
  2
DASHDOTX2
 70
     0
  3
Dash dot (2x) ____  .  ____  .  ____  .  ___
 72
    65
 73
     4
 40
50.8
 49
25.4
 74
     0
 49
-12.7
 74
     0
 49
0.0
 74
     0
 49
-12.7
 74
     0
  0
LTYPE
  5
290
330
1EA
100
AcDbSymbolTableRecord
100
AcDbLinetypeTableRecord
  2
DASHDOT2
 70
     0
  3
Dash dot (.5x) _._._._._._._._._._._._._._._.
 72
    65
 73
     4
 40
12.7
 49
6.35
 74
     0
 49
-3.175
 74
     0
 49
0.0
 74
     0
 49
-3.175
 74
     0
  0
LTYPE
  5
291
330
1EA
100
AcDbSymbolTableRecord
100
AcDbLinetypeTableRecord
  2
DASHDOT
 70
     0
  3
Dash dot __ . __ . __ . __ . __ . __ . __ . __
 72
    65
 73
     4
 40
25.4
 49
12.7
 74
     0
 49
-6.35
 74
     0
 49
0.0
 74
     0
 49
-6.35
 74
     0
  0
LTYPE
  5
292
330
1EA
100
AcDbSymbolTableRecord
100
AcDbLinetypeTableRecord
  2
CENTERX2
 70
     0
  3
Center (2x) ________  __  ________  __  _____
 72
    65
 73
     4
 40
101.6
 49
63.5
 74
     0
 49
-12.7
 74
     0
 49
12.7
 74
     0
 49
-12.7
 74
     0
  0
LTYPE
  5
293
330
1EA
100
AcDbSymbolTableRecord
100
AcDbLinetypeTableRecord
  2
CENTER2
 70
     0
  3
Center (.5x) ___ _ ___ _ ___ _ ___ _ ___ _ ___
 72
    65
 73
     4
 40
28.575
 49
19.05
 74
     0
 49
-3.175
 74
     0
 49
3.175
 74
     0
 49
-3.175
 74
     0
  0
LTYPE
  5
294
330
1EA
100
AcDbSymbolTableRecord
100
AcDbLinetypeTableRecord
  2
CENTER
 70
     0
  3
Center ____ _ ____ _ ____ _ ____ _ ____ _ ____
 72
    65
 73
     4
 40
50.8
 49
31.75
 74
     0
 49
-6.35
 74
     0
 49
6.35
 74
     0
 49
-6.35
 74
     0
  0
LTYPE
  5
295
330
1EA
100
AcDbSymbolTableRecord
100
AcDbLinetypeTableRecord
  2
BORDERX2
 70
     0
  3
Border (2x) ____  ____  .  ____  ____  .  ___
 72
    65
 73
     6
 40
88.89999999999999
 49
25.4
 74
     0
 49
-12.7
 74
     0
 49
25.4
 74
     0
 49
-12.7
 74
     0
 49
0.0
 74
     0
 49
-12.7
 74
     0
  0
LTYPE
  5
296
330
1EA
100
AcDbSymbolTableRecord
100
AcDbLinetypeTableRecord
  2
BORDER2
 70
     0
  3
Border (.5x) __.__.__.__.__.__.__.__.__.__.__.
 72
    65
 73
     6
 40
22.225
 49
6.35
 74
     0
 49
-3.175
 74
     0
 49
6.35
 74
     0
 49
-3.175
 74
     0
 49
0.0
 74
     0
 49
-3.175
 74
     0
  0
LTYPE
  5
297
330
1EA
100
AcDbSymbolTableRecord
100
AcDbLinetypeTableRecord
  2
BORDER
 70
     0
  3
Border __ __ . __ __ . __ __ . __ __ . __ __ .
 72
    65
 73
     6
 40
44.45
 49
12.7
 74
     0
 49
-6.35
 74
     0
 49
12.7
 74
     0
 49
-6.35
 74
     0
 49
0.0
 74
     0
 49
-6.35
 74
     0
  0
LTYPE
  5
29A
330
1EA
100
AcDbSymbolTableRecord
100
AcDbLinetypeTableRecord
  2
BATTING
 70
     0
  3
Batting SSSSSSSSSSSSSSSSSSSSSSSSSSSSSSSSSSSSSSSSSSSSSSS
 72
    65
 73
     4
 40
10.16254
 49
0.00254
 74
     0
 49
-2.54
 74
     2
 75
     0
340
298
 46
2.54
 50
0.0
 44
-2.54
 45
0.0
  9
BAT
 49
-5.08
 74
     2
 75
     0
340
299
 46
2.54
 50
180.0
 44
2.54
 45
0.0
  9
BAT
 49
-2.54
 74
     0
  0
LTYPE
  5
29B
330
1EA
100
AcDbSymbolTableRecord
100
AcDbLinetypeTableRecord
  2
ACAD_ISO15W100
 70
     0
  3
ISO double-dash triple-dot __ __ . . . __ __ . .
 72
    65
 73
    10
 40
39.0
 49
12.0
 74
     0
 49
-3.0
 74
     0
 49
12.0
 74
     0
 49
-3.0
 74
     0
 49
0.0
 74
     0
 49
-3.0
 74
     0
 49
0.0
 74
     0
 49
-3.0
 74
     0
 49
0.0
 74
     0
 49
-3.0
 74
     0
  0
LTYPE
  5
29C
330
1EA
100
AcDbSymbolTableRecord
100
AcDbLinetypeTableRecord
  2
ACAD_ISO14W100
 70
     0
  3
ISO dash triple-dot __ . . . __ . . . __ . . . _
 72
    65
 73
     8
 40
24.0
 49
12.0
 74
     0
 49
-3.0
 74
     0
 49
0.0
 74
     0
 49
-3.0
 74
     0
 49
0.0
 74
     0
 49
-3.0
 74
     0
 49
0.0
 74
     0
 49
-3.0
 74
     0
  0
LTYPE
  5
29D
330
1EA
100
AcDbSymbolTableRecord
100
AcDbLinetypeTableRecord
  2
ACAD_ISO13W100
 70
     0
  3
ISO double-dash double-dot __ __ . . __ __ . . _
 72
    65
 73
     8
 40
36.0
 49
12.0
 74
     0
 49
-3.0
 74
     0
 49
12.0
 74
     0
 49
-3.0
 74
     0
 49
0.0
 74
     0
 49
-3.0
 74
     0
 49
0.0
 74
     0
 49
-3.0
 74
     0
  0
LTYPE
  5
29E
330
1EA
100
AcDbSymbolTableRecord
100
AcDbLinetypeTableRecord
  2
ACAD_ISO12W100
 70
     0
  3
ISO dash double-dot __ . . __ . . __ . . __ . . 
 72
    65
 73
     6
 40
21.0
 49
12.0
 74
     0
 49
-3.0
 74
     0
 49
0.0
 74
     0
 49
-3.0
 74
     0
 49
0.0
 74
     0
 49
-3.0
 74
     0
  0
LTYPE
  5
29F
330
1EA
100
AcDbSymbolTableRecord
100
AcDbLinetypeTableRecord
  2
ACAD_ISO11W100
 70
     0
  3
ISO double-dash dot __ __ . __ __ . __ __ . __ _
 72
    65
 73
     6
 40
33.0
 49
12.0
 74
     0
 49
-3.0
 74
     0
 49
12.0
 74
     0
 49
-3.0
 74
     0
 49
0.0
 74
     0
 49
-3.0
 74
     0
  0
LTYPE
  5
2A0
330
1EA
100
AcDbSymbolTableRecord
100
AcDbLinetypeTableRecord
  2
ACAD_ISO10W100
 70
     0
  3
ISO dash dot __ . __ . __ . __ . __ . __ . __ . 
 72
    65
 73
     4
 40
18.0
 49
12.0
 74
     0
 49
-3.0
 74
     0
 49
0.0
 74
     0
 49
-3.0
 74
     0
  0
LTYPE
  5
2A1
330
1EA
100
AcDbSymbolTableRecord
100
AcDbLinetypeTableRecord
  2
HIDDEN2
 70
     0
  3
Hidden (.5x) _ _ _ _ _ _ _ _ _ _ _ _ _ _ _ _ _ 
 72
    65
 73
     2
 40
4.762499999999999
 49
3.175
 74
     0
 49
-1.5875
 74
     0
  0
LTYPE
  5
2A2
330
1EA
100
AcDbSymbolTableRecord
100
AcDbLinetypeTableRecord
  2
HIDDEN
 70
     0
  3
Hidden __ __ __ __ __ __ __ __ __ __ __ __ __ __
 72
    65
 73
     2
 40
9.524999999999999
 49
6.35
 74
     0
 49
-3.175
 74
     0
  0
LTYPE
  5
2A4
330
1EA
100
AcDbSymbolTableRecord
100
AcDbLinetypeTableRecord
  2
GAS_LINE
 70
     0
  3
Gas line ----GAS----GAS----GAS----GAS----GAS----GAS--
 72
    65
 73
     3
 40
24.13
 49
12.7
 74
     0
 49
-5.08
 74
     2
 75
     0
340
2A3
 46
2.54
 50
0.0
 44
-2.54
 45
-1.27
  9
GAS
 49
-6.35
 74
     0
  0
LTYPE
  5
2A6
330
1EA
100
AcDbSymbolTableRecord
100
AcDbLinetypeTableRecord
  2
FENCELINE2
 70
     0
  3
Fenceline square ----[]-----[]----[]-----[]----[]---
 72
    65
 73
     4
 40
36.83
 49
6.35
 74
     0
 49
-2.54
 74
     2
 75
     0
340
2A5
 46
2.54
 50
0.0
 44
-2.54
 45
0.0
  9
BOX
 49
-2.54
 74
     0
 49
25.4
 74
     0
  0
LTYPE
  5
2A8
330
1EA
100
AcDbSymbolTableRecord
100
AcDbLinetypeTableRecord
  2
FENCELINE1
 70
     0
  3
Fenceline circle ----0-----0----0-----0----0-----0--
 72
    65
 73
     4
 40
36.83
 49
6.35
 74
     0
 49
-2.54
 74
     2
 75
     0
340
2A7
 46
2.54
 50
0.0
 44
-2.54
 45
0.0
  9
CIRC1
 49
-2.54
 74
     0
 49
25.4
 74
     0
  0
LTYPE
  5
2AA
330
1EA
100
AcDbSymbolTableRecord
100
AcDbLinetypeTableRecord
  2
DRAINAGE2
 70
     0
  3
Drainage reversed----<----<----<----
 72
    65
 73
     2
 40
10.16
 49
5.08
 74
     2
 75
     0
340
2A9
 46
2.54
 50
0.0
 44
0.0
 45
0.0
  9
RIGHT_ARROW
 49
5.08
 74
     0
  0
LTYPE
  5
2AC
330
1EA
100
AcDbSymbolTableRecord
100
AcDbLinetypeTableRecord
  2
DRAINAGE
 70
     0
  3
Drainage ---->---->---->----
 72
    65
 73
     2
 40
10.16
 49
5.08
 74
     2
 75
     0
340
2AB
 46
2.54
 50
180.0
 44
0.0
 45
0.0
  9
RIGHT_ARROW
 49
5.08
 74
     0
  0
LTYPE
  5
2AD
330
1EA
100
AcDbSymbolTableRecord
100
AcDbLinetypeTableRecord
  2
DOTX2
 70
     0
  3
Dot (2x) .  .  .  .  .  .  .  .  .  .  .  .  .  .
 72
    65
 73
     2
 40
12.7
 49
0.0
 74
     0
 49
-12.7
 74
     0
  0
LTYPE
  5
2AE
330
1EA
100
AcDbSymbolTableRecord
100
AcDbLinetypeTableRecord
  2
DOT2
 70
     0
  3
Dot (.5x) ........................................
 72
    65
 73
     2
 40
3.175
 49
0.0
 74
     0
 49
-3.175
 74
     0
  0
LTYPE
  5
2AF
330
1EA
100
AcDbSymbolTableRecord
100
AcDbLinetypeTableRecord
  2
DOT
 70
     0
  3
Dot . . . . . . . . . . . . . . . . . . . . . . . .
 72
    65
 73
     2
 40
6.35
 49
0.0
 74
     0
 49
-6.35
 74
     0
  0
LTYPE
  5
2B0
330
1EA
100
AcDbSymbolTableRecord
100
AcDbLinetypeTableRecord
  2
DIVIDEX2
 70
     0
  3
Divide (2x) ________  .  .  ________  .  .  _
 72
    65
 73
     6
 40
63.5
 49
25.4
 74
     0
 49
-12.7
 74
     0
 49
0.0
 74
     0
 49
-12.7
 74
     0
 49
0.0
 74
     0
 49
-12.7
 74
     0
  0
LTYPE
  5
2B1
330
1EA
100
AcDbSymbolTableRecord
100
AcDbLinetypeTableRecord
  2
DIVIDE2
 70
     0
  3
Divide (.5x) __..__..__..__..__..__..__..__.._
 72
    65
 73
     6
 40
15.875
 49
6.35
 74
     0
 49
-3.175
 74
     0
 49
0.0
 74
     0
 49
-3.175
 74
     0
 49
0.0
 74
     0
 49
-3.175
 74
     0
  0
LTYPE
  5
2B2
330
1EA
100
AcDbSymbolTableRecord
100
AcDbLinetypeTableRecord
  2
DIVIDE
 70
     0
  3
Divide ____ . . ____ . . ____ . . ____ . . ____
 72
    65
 73
     6
 40
31.75
 49
12.7
 74
     0
 49
-6.35
 74
     0
 49
0.0
 74
     0
 49
-6.35
 74
     0
 49
0.0
 74
     0
 49
-6.35
 74
     0
  0
LTYPE
  5
2B3
330
1EA
100
AcDbSymbolTableRecord
100
AcDbLinetypeTableRecord
  2
DASHEDX2
 70
     0
  3
Dashed (2x) ____  ____  ____  ____  ____  ___
 72
    65
 73
     2
 40
38.09999999999999
 49
25.4
 74
     0
 49
-12.7
 74
     0
  0
LTYPE
  5
2B4
330
1EA
100
AcDbSymbolTableRecord
100
AcDbLinetypeTableRecord
  2
DASHED2
 70
     0
  3
Dashed (.5x) _ _ _ _ _ _ _ _ _ _ _ _ _ _ _ _ _ 
 72
    65
 73
     2
 40
9.524999999999999
 49
6.35
 74
     0
 49
-3.175
 74
     0
  0
LTYPE
  5
2B5
330
1EA
100
AcDbSymbolTableRecord
100
AcDbLinetypeTableRecord
  2
DASHED
 70
     0
  3
Dashed __ __ __ __ __ __ __ __ __ __ __ __ __ _
 72
    65
 73
     2
 40
19.05
 49
12.7
 74
     0
 49
-6.35
 74
     0
  0
LTYPE
  5
2B8
330
1EA
100
AcDbSymbolTableRecord
100
AcDbLinetypeTableRecord
  2
ZIGZAG
 70
     0
  3
Zig zag /\/\/\/\/\/\/\/\/\/\/\/\/\/\/\/\/\/\/\/\/\/\/\/
 72
    65
 73
     4
 40
20.32254
 49
0.00254
 74
     0
 49
-5.08
 74
     2
 75
     0
340
2B6
 46
5.08
 50
0.0
 44
-5.08
 45
0.0
  9
ZIG
 49
-10.16
 74
     2
 75
     0
340
2B7
 46
5.08
 50
180.0
 44
5.08
 45
0.0
  9
ZIG
 49
-5.08
 74
     0
  0
LTYPE
  5
2BA
330
1EA
100
AcDbSymbolTableRecord
100
AcDbLinetypeTableRecord
  2
TRACKS
 70
     0
  3
Tracks -|-|-|-|-|-|-|-|-|-|-|-|-|-|-|-|-|-|-|-|-|-|-|-|-
 72
    65
 73
     2
 40
7.62
 49
3.81
 74
     2
 75
     0
340
2B9
 46
6.35
 50
0.0
 44
0.0
 45
0.0
  9
TRACK1
 49
3.81
 74
     0
  0
LTYPE
  5
2BB
330
1EA
100
AcDbSymbolTableRecord
100
AcDbLinetypeTableRecord
  2
PHANTOMX2
 70
     0
  3
Phantom (2x) ____________    ____    ____   _
 72
    65
 73
     6
 40
127.0
 49
63.5
 74
     0
 49
-12.7
 74
     0
 49
12.7
 74
     0
 49
-12.7
 74
     0
 49
12.7
 74
     0
 49
-12.7
 74
     0
  0
LTYPE
  5
2BC
330
1EA
100
AcDbSymbolTableRecord
100
AcDbLinetypeTableRecord
  2
PHANTOM2
 70
     0
  3
Phantom (.5x) ___ _ _ ___ _ _ ___ _ _ ___ _ _
 72
    65
 73
     6
 40
31.75
 49
15.875
 74
     0
 49
-3.175
 74
     0
 49
3.175
 74
     0
 49
-3.175
 74
     0
 49
3.175
 74
     0
 49
-3.175
 74
     0
  0
LTYPE
  5
2BD
330
1EA
100
AcDbSymbolTableRecord
100
AcDbLinetypeTableRecord
  2
PHANTOM
 70
     0
  3
Phantom ______  __  __  ______  __  __  ______ 
 72
    65
 73
     6
 40
63.50000000000001
 49
31.75
 74
     0
 49
-6.35
 74
     0
 49
6.35
 74
     0
 49
-6.35
 74
     0
 49
6.35
 74
     0
 49
-6.35
 74
     0
  0
LTYPE
  5
2BF
330
1EA
100
AcDbSymbolTableRecord
100
AcDbLinetypeTableRecord
  2
HOT_WATER_SUPPLY
 70
     0
  3
Hot water supply ---- HW ---- HW ---- HW ----
 72
    65
 73
     3
 40
22.86
 49
12.7
 74
     0
 49
-5.08
 74
     2
 75
     0
340
2BE
 46
2.54
 50
0.0
 44
-2.54
 45
-1.27
  9
HW
 49
-5.08
 74
     0
  0
ENDTAB
  0
TABLE
  2
LAYER
  5
1E7
330
0
100
AcDbSymbolTable
 70
     1
  0
LAYER
  5
1F5
330
1E7
100
AcDbSymbolTableRecord
100
AcDbLayerTableRecord
  2
0
 70
     0
 62
     7
420
 16777215
  6
Continuous
370
     0
390
1F4
347
22A
348
0
  0
ENDTAB
  0
TABLE
  2
STYLE
  5
1E8
330
0
100
AcDbSymbolTable
 70
    12
  0
STYLE
  5
1F6
330
1E8
100
AcDbSymbolTableRecord
100
AcDbTextStyleTableRecord
  2
Standard
 70
     0
 40
0.0
 41
1.0
 50
0.0
 71
     0
 42
0.2
  3
txt
  4

  0
STYLE
  5
298
330
1E8
100
AcDbSymbolTableRecord
100
AcDbTextStyleTableRecord
  2
textstyle0
 70
     0
 40
0.0
 41
1.0
 50
0.0
 71
     0
 42
0.2
  3
ltypeshp.shx
  4

  0
STYLE
  5
299
330
1E8
100
AcDbSymbolTableRecord
100
AcDbTextStyleTableRecord
  2
textstyle1
 70
     0
 40
0.0
 41
1.0
 50
0.0
 71
     0
 42
0.2
  3
ltypeshp.shx
  4

  0
STYLE
  5
2A3
330
1E8
100
AcDbSymbolTableRecord
100
AcDbTextStyleTableRecord
  2
textstyle2
 70
     0
 40
0.0
 41
1.0
 50
0.0
 71
     0
 42
0.2
  3
STANDARD
  4

  0
STYLE
  5
2A5
330
1E8
100
AcDbSymbolTableRecord
100
AcDbTextStyleTableRecord
  2
textstyle3
 70
     0
 40
0.0
 41
1.0
 50
0.0
 71
     0
 42
0.2
  3
ltypeshp.shx
  4

  0
STYLE
  5
2A7
330
1E8
100
AcDbSymbolTableRecord
100
AcDbTextStyleTableRecord
  2
textstyle4
 70
     0
 40
0.0
 41
1.0
 50
0.0
 71
     0
 42
0.2
  3
ltypeshp.shx
  4

  0
STYLE
  5
2A9
330
1E8
100
AcDbSymbolTableRecord
100
AcDbTextStyleTableRecord
  2
textstyle5
 70
     0
 40
0.0
 41
1.0
 50
0.0
 71
     0
 42
0.2
  3
qcadshp.shx
  4

  0
STYLE
  5
2AB
330
1E8
100
AcDbSymbolTableRecord
100
AcDbTextStyleTableRecord
  2
textstyle6
 70
     0
 40
0.0
 41
1.0
 50
0.0
 71
     0
 42
0.2
  3
qcadshp.shx
  4

  0
STYLE
  5
2B6
330
1E8
100
AcDbSymbolTableRecord
100
AcDbTextStyleTableRecord
  2
textstyle7
 70
     0
 40
0.0
 41
1.0
 50
0.0
 71
     0
 42
0.2
  3
ltypeshp.shx
  4

  0
STYLE
  5
2B7
330
1E8
100
AcDbSymbolTableRecord
100
AcDbTextStyleTableRecord
  2
textstyle8
 70
     0
 40
0.0
 41
1.0
 50
0.0
 71
     0
 42
0.2
  3
ltypeshp.shx
  4

  0
STYLE
  5
2B9
330
1E8
100
AcDbSymbolTableRecord
100
AcDbTextStyleTableRecord
  2
textstyle9
 70
     0
 40
0.0
 41
1.0
 50
0.0
 71
     0
 42
0.2
  3
ltypeshp.shx
  4

  0
STYLE
  5
2BE
330
1E8
100
AcDbSymbolTableRecord
100
AcDbTextStyleTableRecord
  2
textstyle10
 70
     0
 40
0.0
 41
1.0
 50
0.0
 71
     0
 42
0.2
  3
STANDARD
  4

  0
ENDTAB
  0
TABLE
  2
VIEW
  5
1EB
330
0
100
AcDbSymbolTable
 70
     0
  0
ENDTAB
  0
TABLE
  2
UCS
  5
1EC
330
0
100
AcDbSymbolTable
 70
     0
  0
ENDTAB
  0
TABLE
  2
APPID
  5
1EE
330
0
100
AcDbSymbolTable
 70
     2
  0
APPID
  5
1F7
330
1EE
100
AcDbSymbolTableRecord
100
AcDbRegAppTableRecord
  2
ACAD
 70
     0
  0
APPID
  5
252
330
1EE
100
AcDbSymbolTableRecord
100
AcDbRegAppTableRecord
  2
QCAD
 70
     0
  0
ENDTAB
  0
TABLE
  2
DIMSTYLE
  5
1EF
330
0
100
AcDbSymbolTable
 70
     2
100
AcDbDimStyleTable
  0
DIMSTYLE
105
20B
330
1EF
100
AcDbSymbolTableRecord
100
AcDbDimStyleTableRecord
  2
Standard
 70
     0
178
     0
340
1F6
  0
DIMSTYLE
105
285
330
1EF
100
AcDbSymbolTableRecord
100
AcDbDimStyleTableRecord
  2
QCADDimStyle
 70
     0
 41
2.5
 42
0.625
 44
1.25
 73
     0
 77
     1
140
2.5
147
0.625
178
     0
340
1F6
  0
ENDTAB
  0
TABLE
  2
BLOCK_RECORD
  5
1E6
330
0
100
AcDbSymbolTable
 70
     1
  0
BLOCK_RECORD
  5
203
330
1E6
100
AcDbSymbolTableRecord
100
AcDbBlockTableRecord
  2
*Model_Space
340
206
 70
     0
280
     1
281
     0
  0
BLOCK_RECORD
  5
1FF
330
1E6
100
AcDbSymbolTableRecord
100
AcDbBlockTableRecord
  2
*Paper_Space
340
202
 70
     0
280
     1
281
     0
  0
ENDTAB
  0
ENDSEC
  0
SECTION
  2
BLOCKS
  0
BLOCK
  5
204
330
203
100
AcDbEntity
  8
0
100
AcDbBlockBegin
  2
*Model_Space
 70
     0
 10
0.0
 20
0.0
 30
0.0
  3
*Model_Space
  1
*Model_Space
  0
ENDBLK
  5
205
330
203
100
AcDbEntity
  8
0
100
AcDbBlockEnd
  0
BLOCK
  5
200
330
1FF
100
AcDbEntity
 67
     1
  8
0
100
AcDbBlockBegin
  2
*Paper_Space
 70
     0
 10
0.0
 20
0.0
 30
0.0
  3
*Paper_Space
  1
*Paper_Space
  0
ENDBLK
  5
201
330
1FF
100
AcDbEntity
 67
     1
  8
0
100
AcDbBlockEnd
  0
ENDSEC
  0
SECTION
  2
ENTITIES
  0
ARC
  5
47
330
203
100
AcDbEntity
  8
0
 62
     1
420
 16711680
100
AcDbCircle
 10
10.0
 20
10.0
 30
0.0
 40
5.0
100
AcDbArc
 50
91.14599199838858
 51
268.8540080016114
  0
ARC
  5
1A9
330
203
100
AcDbEntity
  8
0
 62
     1
420
 16711680
100
AcDbCircle
 10
60.0
 20
10.0
 30
0.0
 40
6.0
100
AcDbArc
 50
90.0
 51
270.0
  0
LINE
  5
1AA
330
203
100
AcDbEntity
  8
0
 62
     1
420
 16711680
100
AcDbLine
 10
9.9
 20
14.99899989998
 30
0.0
 11
80.00000000000645
 21
16.40128038412817
 31
0.0
  0
LINE
  5
1AB
330
203
100
AcDbEntity
  8
0
 62
     1
420
 16711680
100
AcDbLine
 10
80.00000000000006
 20
3.598719615871954
 30
0.0
 11
9.900000000000002
 21
5.001000100020005
 31
0.0
  0
LINE
  5
48
330
203
100
AcDbEntity
  8
0
 62
     5
420
      255
100
AcDbLine
 10
60.0
 20
20.0
 30
0.0
 11
60.0
 21
0.0
 31
0.0
  0
LINE
  5
194
330
203
100
AcDbEntity
  8
0
 62
     5
420
      255
100
AcDbLine
 10
10.0
 20
20.0
 30
0.0
 11
10.0
 21
15.00100030010003
 31
0.0
  0
LINE
  5
195
330
203
100
AcDbEntity
  8
0
 62
     5
420
      255
100
AcDbLine
 10
10.0
 20
4.998999699899967
 30
0.0
 11
10.0
 21
0.0
 31
0.0
  0
LINE
  5
180
330
203
100
AcDbEntity
  8
0
 62
     5
420
      255
100
AcDbLine
 10
20.0
 20
20.0
 30
0.0
 11
20.0
 21
15.20104031210404
 31
0.0
  0
LINE
  5
181
330
203
100
AcDbEntity
  8
0
 62
     5
420
      255
100
AcDbLine
 10
20.0
 20
4.798959687895966
 30
0.0
 11
20.0
 21
0.0
 31
0.0
  0
LINE
  5
16C
330
203
100
AcDbEntity
  8
0
 62
     5
420
      255
100
AcDbLine
 10
30.0
 20
20.0
 30
0.0
 11
30.0
 21
15.40108032410804
 31
0.0
  0
LINE
  5
16D
330
203
100
AcDbEntity
  8
0
 62
     5
420
      255
100
AcDbLine
 10
30.0
 20
4.598919675891963
 30
0.0
 11
30.0
 21
0.0
 31
0.0
  0
LINE
  5
158
330
203
100
AcDbEntity
  8
0
 62
     5
420
      255
100
AcDbLine
 10
40.0
 20
20.0
 30
0.0
 11
40.0
 21
15.60112033611204
 31
0.0
  0
LINE
  5
159
330
203
100
AcDbEntity
  8
0
 62
     5
420
      255
100
AcDbLine
 10
40.0
 20
4.398879663887961
 30
0.0
 11
40.0
 21
0.0
 31
0.0
  0
LINE
  5
144
330
203
100
AcDbEntity
  8
0
 62
     5
420
      255
100
AcDbLine
 10
50.0
 20
20.0
 30
0.0
 11
50.0
 21
15.80116034811604
 31
0.0
  0
LINE
  5
145
330
203
100
AcDbEntity
  8
0
 62
     5
420
      255
100
AcDbLine
 10
50.0
 20
4.198839651883958
 30
0.0
 11
50.0
 21
0.0
 31
0.0
  0
ARC
  5
130
330
203
100
AcDbEntity
  8
0
 62
     5
420
      255
100
AcDbCircle
 10
62.52727323685771
 20
22.59031805937678
 30
0.0
 40
3.193939903560895
100
AcDbArc
 50
179.9997260011704
 51
180.1960447881715
  0
SPLINE
  5
120
330
203
100
AcDbEntity
  8
0
 62
     5
420
      255
100
AcDbSpline
210
0.0
220
0.0
230
1.0
 70
     8
 71
     3
 72
     8
 73
     4
 74
     0
 42
0.000000001
 43
0.001
 40
0.0
 40
0.0
 40
0.0
 40
0.0
 40
1.0
 40
1.0
 40
1.0
 40
1.0
 10
60.0
 20
21.08
 30
0.0
 10
60.12811639453278
 20
21.08
 30
0.0
 10
60.24074522555008
 20
21.14631014206673
 30
0.0
 10
60.30543013299407
 20
21.24646969394338
 30
0.0
  0
LINE
  5
121
330
203
100
AcDbEntity
  8
0
 62
     5
420
      255
100
AcDbLine
 10
60.30497165625987
 20
21.24569752851136
 30
0.0
 11
60.3050260903244
 21
21.24561123023483
 31
0.0
  0
SPLINE
  5
122
330
203
100
AcDbEntity
  8
0
 62
     5
420
      255
100
AcDbSpline
210
0.0
220
0.0
230
1.0
 70
     8
 71
     3
 72
     8
 73
     4
 74
     0
 42
0.000000001
 43
0.001
 40
0.0
 40
0.0
 40
0.0
 40
0.0
 40
1.0
 40
1.0
 40
1.0
 40
1.0
 10
60.3050260903244
 20
21.24561123023483
 30
0.0
 10
60.44990251085792
 20
21.43895868195224
 30
0.0
 10
60.55208342681195
 20
21.66610732425314
 30
0.0
 10
60.59751741930076
 20
21.91260751806041
 30
0.0
  0
LINE
  5
123
330
203
100
AcDbEntity
  8
0
 62
     5
420
      255
100
AcDbLine
 10
60.5970171139049
 20
21.91251247196318
 30
0.0
 11
60.59734548467944
 21
21.91095041919683
 31
0.0
  0
SPLINE
  5
124
330
203
100
AcDbEntity
  8
0
 62
     5
420
      255
100
AcDbSpline
210
0.0
220
0.0
230
1.0
 70
     8
 71
     3
 72
     8
 73
     4
 74
     0
 42
0.000000001
 43
0.001
 40
0.0
 40
0.0
 40
0.0
 40
0.0
 40
1.0
 40
1.0
 40
1.0
 40
1.0
 10
60.59734548467944
 20
21.91095041919683
 30
0.0
 10
60.64283178871946
 20
22.12398346882955
 30
0.0
 10
60.66666666666667
 20
22.34404160073548
 30
0.0
 10
60.66666666666667
 20
22.56966666666667
 30
0.0
  0
ARC
  5
125
330
203
100
AcDbEntity
  8
0
 62
     5
420
      255
100
AcDbCircle
 10
57.47266619028558
 20
22.56968104100756
 30
0.0
 40
3.194000476413437
100
AcDbArc
 50
359.9997421448105
 51
0.1847685853116318
  0
LINE
  5
126
330
203
100
AcDbEntity
  8
0
 62
     5
420
      255
100
AcDbLine
 10
60.66664756717384
 20
22.5793901411466
 30
0.0
 11
60.66664777010142
 21
22.57933122676381
 31
0.0
  0
ARC
  5
127
330
203
100
AcDbEntity
  8
0
 62
     5
420
      255
100
AcDbCircle
 10
57.45569072803095
 20
22.59034724551642
 30
0.0
 40
3.210975938665858
100
AcDbArc
 50
359.8034327781445
 51
359.9997517543927
  0
SPLINE
  5
128
330
203
100
AcDbEntity
  8
0
 62
     5
420
      255
100
AcDbSpline
210
0.0
220
0.0
230
1.0
 70
     8
 71
     3
 72
     8
 73
     4
 74
     0
 42
0.000000001
 43
0.001
 40
0.0
 40
0.0
 40
0.0
 40
0.0
 40
1.0
 40
1.0
 40
1.0
 40
1.0
 10
60.66666666666667
 20
22.59033333333333
 30
0.0
 10
60.66666666666667
 20
22.81609573899507
 30
0.0
 10
60.64280276293727
 20
23.03628443129688
 30
0.0
 10
60.59765684955989
 20
23.24759176602844
 30
0.0
  0
LINE
  5
129
330
203
100
AcDbEntity
  8
0
 62
     5
420
      255
100
AcDbLine
 10
60.5973233845553
 20
23.24688289384626
 30
0.0
 11
60.597558041886
 21
23.24717238942775
 31
0.0
  0
SPLINE
  5
12A
330
203
100
AcDbEntity
  8
0
 62
     5
420
      255
100
AcDbSpline
210
0.0
220
0.0
230
1.0
 70
     8
 71
     3
 72
     8
 73
     4
 74
     0
 42
0.000000001
 43
0.001
 40
0.0
 40
0.0
 40
0.0
 40
0.0
 40
1.0
 40
1.0
 40
1.0
 40
1.0
 10
60.597558041886
 20
23.24717238942775
 30
0.0
 10
60.55192193155759
 20
23.49408889816045
 30
0.0
 10
60.44998038687622
 20
23.72073450930319
 30
0.0
 10
60.30554584048321
 20
23.91369476342619
 30
0.0
  0
LINE
  5
12B
330
203
100
AcDbEntity
  8
0
 62
     5
420
      255
100
AcDbLine
 10
59.33335243282616
 20
22.58060985885339
 30
0.0
 11
59.33335222989859
 21
22.58066877323619
 31
0.0
  0
ARC
  5
12C
330
203
100
AcDbEntity
  8
0
 62
     5
420
      255
100
AcDbCircle
 10
62.54430927197195
 20
22.56965275448359
 30
0.0
 40
3.210975938668757
100
AcDbArc
 50
179.8034327781445
 51
179.9997517543927
  0
SPLINE
  5
12D
330
203
100
AcDbEntity
  8
0
 62
     5
420
      255
100
AcDbSpline
210
0.0
220
0.0
230
1.0
 70
     8
 71
     3
 72
     8
 73
     4
 74
     0
 42
0.000000001
 43
0.001
 40
0.0
 40
0.0
 40
0.0
 40
0.0
 40
1.0
 40
1.0
 40
1.0
 40
1.0
 10
59.33333333333334
 20
22.56966666666667
 30
0.0
 10
59.33333333333334
 20
22.34371452748192
 30
0.0
 10
59.3572373649584
 20
22.12334547402932
 30
0.0
 10
59.40245742204316
 20
21.9118728160807
 30
0.0
  0
LINE
  5
12E
330
203
100
AcDbEntity
  8
0
 62
     5
420
      255
100
AcDbLine
 10
59.4029828860951
 20
23.24748752803681
 30
0.0
 11
59.40265451532056
 21
23.24904958080316
 31
0.0
  0
SPLINE
  5
12F
330
203
100
AcDbEntity
  8
0
 62
     5
420
      255
100
AcDbSpline
210
0.0
220
0.0
230
1.0
 70
     8
 71
     3
 72
     8
 73
     4
 74
     0
 42
0.000000001
 43
0.001
 40
0.0
 40
0.0
 40
0.0
 40
0.0
 40
1.0
 40
1.0
 40
1.0
 40
1.0
 10
59.40265451532056
 20
23.24904958080316
 30
0.0
 10
59.35716821128054
 20
23.03601653117044
 30
0.0
 10
59.33333333333334
 20
22.81595839926452
 30
0.0
 10
59.33333333333334
 20
22.59033333333333
 30
0.0
  0
LINE
  5
117
330
203
100
AcDbEntity
  8
0
 62
     5
420
      255
100
AcDbLine
 10
60.30554319823501
 20
23.91327405493943
 30
0.0
 11
60.30557561113095
 21
23.91330488206914
 31
0.0
  0
SPLINE
  5
118
330
203
100
AcDbEntity
  8
0
 62
     5
420
      255
100
AcDbSpline
210
0.0
220
0.0
230
1.0
 70
     8
 71
     3
 72
     8
 73
     4
 74
     0
 42
0.000000001
 43
0.001
 40
0.0
 40
0.0
 40
0.0
 40
0.0
 40
1.0
 40
1.0
 40
1.0
 40
1.0
 10
60.30557561113095
 20
23.91330488206914
 30
0.0
 10
60.24089557984923
 20
24.013601303341
 30
0.0
 10
60.12820191319898
 20
24.08
 30
0.0
 10
60.0
 20
24.08
 30
0.0
  0
SPLINE
  5
119
330
203
100
AcDbEntity
  8
0
 62
     5
420
      255
100
AcDbSpline
210
0.0
220
0.0
230
1.0
 70
     8
 71
     3
 72
     8
 73
     4
 74
     0
 42
0.000000001
 43
0.001
 40
0.0
 40
0.0
 40
0.0
 40
0.0
 40
1.0
 40
1.0
 40
1.0
 40
1.0
 10
60.0
 20
24.08
 30
0.0
 10
59.87188360546722
 20
24.08
 30
0.0
 10
59.75925477444992
 20
24.01368985793327
 30
0.0
 10
59.69456986700594
 20
23.91353030605662
 30
0.0
  0
LINE
  5
11A
330
203
100
AcDbEntity
  8
0
 62
     5
420
      255
100
AcDbLine
 10
59.6948950104068
 20
23.91430247148863
 30
0.0
 11
59.69484057634227
 21
23.91438876976517
 31
0.0
  0
SPLINE
  5
11B
330
203
100
AcDbEntity
  8
0
 62
     5
420
      255
100
AcDbSpline
210
0.0
220
0.0
230
1.0
 70
     8
 71
     3
 72
     8
 73
     4
 74
     0
 42
0.000000001
 43
0.001
 40
0.0
 40
0.0
 40
0.0
 40
0.0
 40
1.0
 40
1.0
 40
1.0
 40
1.0
 10
59.69484057634227
 20
23.91438876976517
 30
0.0
 10
59.54996415580875
 20
23.72104131804776
 30
0.0
 10
59.44778323985472
 20
23.49389267574686
 30
0.0
 10
59.4023492473659
 20
23.24739248193958
 30
0.0
  0
LINE
  5
11C
330
203
100
AcDbEntity
  8
0
 62
     5
420
      255
100
AcDbLine
 10
59.40249230474922
 20
21.91339202149491
 30
0.0
 11
59.40225787986054
 21
21.91310278909501
 31
0.0
  0
SPLINE
  5
11D
330
203
100
AcDbEntity
  8
0
 62
     5
420
      255
100
AcDbSpline
210
0.0
220
0.0
230
1.0
 70
     8
 71
     3
 72
     8
 73
     4
 74
     0
 42
0.000000001
 43
0.001
 40
0.0
 40
0.0
 40
0.0
 40
0.0
 40
1.0
 40
1.0
 40
1.0
 40
1.0
 10
59.40225787986054
 20
21.91310278909501
 30
0.0
 10
59.44792164312798
 20
21.66579401908448
 30
0.0
 10
59.55006897526159
 20
21.43881170066779
 30
0.0
 10
59.69482358801108
 20
21.24563390190387
 30
0.0
  0
LINE
  5
11E
330
203
100
AcDbEntity
  8
0
 62
     5
420
      255
100
AcDbLine
 10
59.69459413406324
 20
21.24651268359727
 30
0.0
 11
59.694561893686
 21
21.2464820394623
 31
0.0
  0
SPLINE
  5
11F
330
203
100
AcDbEntity
  8
0
 62
     5
420
      255
100
AcDbSpline
210
0.0
220
0.0
230
1.0
 70
     8
 71
     3
 72
     8
 73
     4
 74
     0
 42
0.000000001
 43
0.001
 40
0.0
 40
0.0
 40
0.0
 40
0.0
 40
1.0
 40
1.0
 40
1.0
 40
1.0
 10
59.694561893686
 20
21.2464820394623
 30
0.0
 10
59.7592640284399
 20
21.14630469391418
 30
0.0
 10
59.87188886870432
 20
21.08
 30
0.0
 10
60.0
 20
21.08
 30
0.0
  0
LINE
  5
110
330
203
100
AcDbEntity
  8
0
 62
     5
420
      255
100
AcDbLine
 10
51.0
 20
21.08
 30
0.0
 11
52.28833333333333
 21
23.29566666666667
 31
0.0
  0
LINE
  5
111
330
203
100
AcDbEntity
  8
0
 62
     5
420
      255
100
AcDbLine
 10
52.28809160065123
 20
23.29532668445659
 30
0.0
 11
52.28812132325686
 21
23.29526962860707
 31
0.0
  0
SPLINE
  5
112
330
203
100
AcDbEntity
  8
0
 62
     5
420
      255
100
AcDbSpline
210
0.0
220
0.0
230
1.0
 70
     8
 71
     3
 72
     8
 73
     4
 74
     0
 42
0.000000001
 43
0.001
 40
0.0
 40
0.0
 40
0.0
 40
0.0
 40
1.0
 40
1.0
 40
1.0
 40
1.0
 10
52.28812132325686
 20
23.29526962860707
 30
0.0
 10
52.31686896055324
 20
23.34455176417917
 30
0.0
 10
52.33333333333333
 20
23.4018531519368
 30
0.0
 10
52.33333333333333
 20
23.463
 30
0.0
  0
SPLINE
  5
113
330
203
100
AcDbEntity
  8
0
 62
     5
420
      255
100
AcDbSpline
210
0.0
220
0.0
230
1.0
 70
     8
 71
     3
 72
     8
 73
     4
 74
     0
 42
0.000000001
 43
0.001
 40
0.0
 40
0.0
 40
0.0
 40
0.0
 40
1.0
 40
1.0
 40
1.0
 40
1.0
 10
52.33333333333333
 20
23.463
 30
0.0
 10
52.33333333333333
 20
23.50418143773626
 30
0.0
 10
52.32586540658454
 20
23.54361864772326
 30
0.0
 10
52.31223088756752
 20
23.57997534735538
 30
0.0
  0
LINE
  5
114
330
203
100
AcDbEntity
  8
0
 62
     5
420
      255
100
AcDbLine
 10
52.3121566536683
 20
23.58002802768525
 30
0.0
 11
52.31228409728529
 21
23.58017986844519
 31
0.0
  0
SPLINE
  5
115
330
203
100
AcDbEntity
  8
0
 62
     5
420
      255
100
AcDbSpline
210
0.0
220
0.0
230
1.0
 70
     8
 71
     3
 72
     8
 73
     4
 74
     0
 42
0.000000001
 43
0.001
 40
0.0
 40
0.0
 40
0.0
 40
0.0
 40
1.0
 40
1.0
 40
1.0
 40
1.0
 10
52.31228409728529
 20
23.58017986844519
 30
0.0
 10
52.23810839302434
 20
23.86771274512197
 30
0.0
 10
51.97717870236435
 20
24.08
 30
0.0
 10
51.66666666666666
 20
24.08
 30
0.0
  0
SPLINE
  5
116
330
203
100
AcDbEntity
  8
0
 62
     5
420
      255
100
AcDbSpline
210
0.0
220
0.0
230
1.0
 70
     8
 71
     3
 72
     8
 73
     4
 74
     0
 42
0.000000001
 43
0.001
 40
0.0
 40
0.0
 40
0.0
 40
0.0
 40
1.0
 40
1.0
 40
1.0
 40
1.0
 10
51.66666666666666
 20
24.08
 30
0.0
 10
51.3561727234914
 20
24.08
 30
0.0
 10
51.09525534751946
 20
23.86773748297159
 30
0.0
 10
51.02115253940636
 20
23.58058024625902
 30
0.0
  0
LINE
  5
100
330
203
100
AcDbEntity
  8
0
 62
     5
420
      255
100
AcDbLine
 10
48.93035044723823
 20
21.91251247196318
 30
0.0
 11
48.93067881801277
 21
21.91095041919683
 31
0.0
  0
SPLINE
  5
101
330
203
100
AcDbEntity
  8
0
 62
     5
420
      255
100
AcDbSpline
210
0.0
220
0.0
230
1.0
 70
     8
 71
     3
 72
     8
 73
     4
 74
     0
 42
0.000000001
 43
0.001
 40
0.0
 40
0.0
 40
0.0
 40
0.0
 40
1.0
 40
1.0
 40
1.0
 40
1.0
 10
48.93067881801277
 20
21.91095041919683
 30
0.0
 10
48.97616512205278
 20
22.12398346882955
 30
0.0
 10
49.0
 20
22.34404160073548
 30
0.0
 10
49.0
 20
22.56966666666667
 30
0.0
  0
ARC
  5
102
330
203
100
AcDbEntity
  8
0
 62
     5
420
      255
100
AcDbCircle
 10
45.80599952361939
 20
22.56968104100756
 30
0.0
 40
3.194000476412954
100
AcDbArc
 50
359.999742143397
 51
0.1847685853116318
  0
LINE
  5
103
330
203
100
AcDbEntity
  8
0
 62
     5
420
      255
100
AcDbLine
 10
48.99998090050717
 20
22.5793901411466
 30
0.0
 11
48.99998110343475
 21
22.57933122676381
 31
0.0
  0
ARC
  5
104
330
203
100
AcDbEntity
  8
0
 62
     5
420
      255
100
AcDbCircle
 10
45.78902406136432
 20
22.59034724551642
 30
0.0
 40
3.210975938665816
100
AcDbArc
 50
359.8034327781445
 51
359.9997517543927
  0
SPLINE
  5
105
330
203
100
AcDbEntity
  8
0
 62
     5
420
      255
100
AcDbSpline
210
0.0
220
0.0
230
1.0
 70
     8
 71
     3
 72
     8
 73
     4
 74
     0
 42
0.000000001
 43
0.001
 40
0.0
 40
0.0
 40
0.0
 40
0.0
 40
1.0
 40
1.0
 40
1.0
 40
1.0
 10
49.0
 20
22.59033333333333
 30
0.0
 10
49.0
 20
22.81609573899507
 30
0.0
 10
48.97613609627059
 20
23.03628443129688
 30
0.0
 10
48.93099018289322
 20
23.24759176602844
 30
0.0
  0
LINE
  5
106
330
203
100
AcDbEntity
  8
0
 62
     5
420
      255
100
AcDbLine
 10
48.93065671788862
 20
23.24688289384626
 30
0.0
 11
48.93089137521932
 21
23.24717238942775
 31
0.0
  0
SPLINE
  5
107
330
203
100
AcDbEntity
  8
0
 62
     5
420
      255
100
AcDbSpline
210
0.0
220
0.0
230
1.0
 70
     8
 71
     3
 72
     8
 73
     4
 74
     0
 42
0.000000001
 43
0.001
 40
0.0
 40
0.0
 40
0.0
 40
0.0
 40
1.0
 40
1.0
 40
1.0
 40
1.0
 10
48.93089137521932
 20
23.24717238942775
 30
0.0
 10
48.88525526489092
 20
23.49408889816045
 30
0.0
 10
48.78331372020955
 20
23.72073450930319
 30
0.0
 10
48.63887917381653
 20
23.91369476342619
 30
0.0
  0
LINE
  5
108
330
203
100
AcDbEntity
  8
0
 62
     5
420
      255
100
AcDbLine
 10
47.66668576615949
 20
22.58060985885339
 30
0.0
 11
47.66668556323192
 21
22.58066877323619
 31
0.0
  0
ARC
  5
109
330
203
100
AcDbEntity
  8
0
 62
     5
420
      255
100
AcDbCircle
 10
50.87764260530533
 20
22.56965275448358
 30
0.0
 40
3.2109759386688
100
AcDbArc
 50
179.8034327781445
 51
179.9997517543927
  0
SPLINE
  5
10A
330
203
100
AcDbEntity
  8
0
 62
     5
420
      255
100
AcDbSpline
210
0.0
220
0.0
230
1.0
 70
     8
 71
     3
 72
     8
 73
     4
 74
     0
 42
0.000000001
 43
0.001
 40
0.0
 40
0.0
 40
0.0
 40
0.0
 40
1.0
 40
1.0
 40
1.0
 40
1.0
 10
47.66666666666666
 20
22.56966666666667
 30
0.0
 10
47.66666666666666
 20
22.34371452748192
 30
0.0
 10
47.69057069829173
 20
22.12334547402932
 30
0.0
 10
47.73579075537649
 20
21.9118728160807
 30
0.0
  0
LINE
  5
10B
330
203
100
AcDbEntity
  8
0
 62
     5
420
      255
100
AcDbLine
 10
47.73631621942843
 20
23.24748752803681
 30
0.0
 11
47.73598784865389
 21
23.24904958080316
 31
0.0
  0
SPLINE
  5
10C
330
203
100
AcDbEntity
  8
0
 62
     5
420
      255
100
AcDbSpline
210
0.0
220
0.0
230
1.0
 70
     8
 71
     3
 72
     8
 73
     4
 74
     0
 42
0.000000001
 43
0.001
 40
0.0
 40
0.0
 40
0.0
 40
0.0
 40
1.0
 40
1.0
 40
1.0
 40
1.0
 10
47.73598784865389
 20
23.24904958080316
 30
0.0
 10
47.69050154461387
 20
23.03601653117044
 30
0.0
 10
47.66666666666666
 20
22.81595839926452
 30
0.0
 10
47.66666666666666
 20
22.59033333333333
 30
0.0
  0
ARC
  5
10D
330
203
100
AcDbEntity
  8
0
 62
     5
420
      255
100
AcDbCircle
 10
50.8606065701947
 20
22.59031805937678
 30
0.0
 40
3.193939903564555
100
AcDbArc
 50
179.9997260011704
 51
180.1960447881715
  0
LINE
  5
10E
330
203
100
AcDbEntity
  8
0
 62
     5
420
      255
100
AcDbLine
 10
50.0
 20
21.08
 30
0.0
 11
50.0
 21
21.24666666666667
 31
0.0
  0
LINE
  5
10F
330
203
100
AcDbEntity
  8
0
 62
     5
420
      255
100
AcDbLine
 10
52.33333333333333
 20
21.08
 30
0.0
 11
51.0
 21
21.08
 31
0.0
  0
LINE
  5
F4
330
203
100
AcDbEntity
  8
0
 62
     5
420
      255
100
AcDbLine
 10
48.63887653156834
 20
23.91327405493943
 30
0.0
 11
48.63890894446428
 21
23.91330488206914
 31
0.0
  0
SPLINE
  5
F5
330
203
100
AcDbEntity
  8
0
 62
     5
420
      255
100
AcDbSpline
210
0.0
220
0.0
230
1.0
 70
     8
 71
     3
 72
     8
 73
     4
 74
     0
 42
0.000000001
 43
0.001
 40
0.0
 40
0.0
 40
0.0
 40
0.0
 40
1.0
 40
1.0
 40
1.0
 40
1.0
 10
48.63890894446428
 20
23.91330488206914
 30
0.0
 10
48.57422891318256
 20
24.013601303341
 30
0.0
 10
48.46153524653231
 20
24.08
 30
0.0
 10
48.33333333333333
 20
24.08
 30
0.0
  0
SPLINE
  5
F6
330
203
100
AcDbEntity
  8
0
 62
     5
420
      255
100
AcDbSpline
210
0.0
220
0.0
230
1.0
 70
     8
 71
     3
 72
     8
 73
     4
 74
     0
 42
0.000000001
 43
0.001
 40
0.0
 40
0.0
 40
0.0
 40
0.0
 40
1.0
 40
1.0
 40
1.0
 40
1.0
 10
48.33333333333333
 20
24.08
 30
0.0
 10
48.20521693880055
 20
24.08
 30
0.0
 10
48.09258810778325
 20
24.01368985793327
 30
0.0
 10
48.02790320033927
 20
23.91353030605662
 30
0.0
  0
LINE
  5
F7
330
203
100
AcDbEntity
  8
0
 62
     5
420
      255
100
AcDbLine
 10
48.02822834374012
 20
23.91430247148863
 30
0.0
 11
48.0281739096756
 21
23.91438876976517
 31
0.0
  0
SPLINE
  5
F8
330
203
100
AcDbEntity
  8
0
 62
     5
420
      255
100
AcDbSpline
210
0.0
220
0.0
230
1.0
 70
     8
 71
     3
 72
     8
 73
     4
 74
     0
 42
0.000000001
 43
0.001
 40
0.0
 40
0.0
 40
0.0
 40
0.0
 40
1.0
 40
1.0
 40
1.0
 40
1.0
 10
48.0281739096756
 20
23.91438876976517
 30
0.0
 10
47.88329748914208
 20
23.72104131804776
 30
0.0
 10
47.78111657318805
 20
23.49389267574686
 30
0.0
 10
47.73568258069923
 20
23.24739248193958
 30
0.0
  0
LINE
  5
F9
330
203
100
AcDbEntity
  8
0
 62
     5
420
      255
100
AcDbLine
 10
47.73582563808255
 20
21.91339202149491
 30
0.0
 11
47.73559121319387
 21
21.91310278909501
 31
0.0
  0
SPLINE
  5
FA
330
203
100
AcDbEntity
  8
0
 62
     5
420
      255
100
AcDbSpline
210
0.0
220
0.0
230
1.0
 70
     8
 71
     3
 72
     8
 73
     4
 74
     0
 42
0.000000001
 43
0.001
 40
0.0
 40
0.0
 40
0.0
 40
0.0
 40
1.0
 40
1.0
 40
1.0
 40
1.0
 10
47.73559121319387
 20
21.91310278909501
 30
0.0
 10
47.78125497646131
 20
21.66579401908448
 30
0.0
 10
47.88340230859492
 20
21.43881170066779
 30
0.0
 10
48.02815692134441
 20
21.24563390190387
 30
0.0
  0
LINE
  5
FB
330
203
100
AcDbEntity
  8
0
 62
     5
420
      255
100
AcDbLine
 10
48.02792746739657
 20
21.24651268359727
 30
0.0
 11
48.02789522701933
 21
21.2464820394623
 31
0.0
  0
SPLINE
  5
FC
330
203
100
AcDbEntity
  8
0
 62
     5
420
      255
100
AcDbSpline
210
0.0
220
0.0
230
1.0
 70
     8
 71
     3
 72
     8
 73
     4
 74
     0
 42
0.000000001
 43
0.001
 40
0.0
 40
0.0
 40
0.0
 40
0.0
 40
1.0
 40
1.0
 40
1.0
 40
1.0
 10
48.02789522701933
 20
21.2464820394623
 30
0.0
 10
48.09259736177323
 20
21.14630469391418
 30
0.0
 10
48.20522220203765
 20
21.08
 30
0.0
 10
48.33333333333333
 20
21.08
 30
0.0
  0
SPLINE
  5
FD
330
203
100
AcDbEntity
  8
0
 62
     5
420
      255
100
AcDbSpline
210
0.0
220
0.0
230
1.0
 70
     8
 71
     3
 72
     8
 73
     4
 74
     0
 42
0.000000001
 43
0.001
 40
0.0
 40
0.0
 40
0.0
 40
0.0
 40
1.0
 40
1.0
 40
1.0
 40
1.0
 10
48.33333333333333
 20
21.08
 30
0.0
 10
48.46144972786611
 20
21.08
 30
0.0
 10
48.57407855888341
 20
21.14631014206673
 30
0.0
 10
48.6387634663274
 20
21.24646969394338
 30
0.0
  0
LINE
  5
FE
330
203
100
AcDbEntity
  8
0
 62
     5
420
      255
100
AcDbLine
 10
48.6383049895932
 20
21.24569752851136
 30
0.0
 11
48.63835942365773
 21
21.24561123023483
 31
0.0
  0
SPLINE
  5
FF
330
203
100
AcDbEntity
  8
0
 62
     5
420
      255
100
AcDbSpline
210
0.0
220
0.0
230
1.0
 70
     8
 71
     3
 72
     8
 73
     4
 74
     0
 42
0.000000001
 43
0.001
 40
0.0
 40
0.0
 40
0.0
 40
0.0
 40
1.0
 40
1.0
 40
1.0
 40
1.0
 10
48.63835942365773
 20
21.24561123023483
 30
0.0
 10
48.78323584419125
 20
21.43895868195224
 30
0.0
 10
48.88541676014528
 20
21.66610732425314
 30
0.0
 10
48.93085075263409
 20
21.91260751806041
 30
0.0
  0
LINE
  5
F0
330
203
100
AcDbEntity
  8
0
 62
     5
420
      255
100
AcDbLine
 10
39.83333333333334
 20
21.08
 30
0.0
 11
39.83333333333334
 21
21.24666666666667
 31
0.0
  0
LINE
  5
F1
330
203
100
AcDbEntity
  8
0
 62
     5
420
      255
100
AcDbLine
 10
42.0
 20
21.08
 30
0.0
 11
42.0
 21
22.41333333333333
 31
0.0
  0
LINE
  5
F2
330
203
100
AcDbEntity
  8
0
 62
     5
420
      255
100
AcDbLine
 10
42.5
 20
21.74666666666667
 30
0.0
 11
40.83333333333334
 21
21.74666666666667
 31
0.0
  0
LINE
  5
F3
330
203
100
AcDbEntity
  8
0
 62
     5
420
      255
100
AcDbLine
 10
40.83333333333334
 20
21.74666666666667
 30
0.0
 11
41.5
 21
24.08
 31
0.0
  0
LINE
  5
E0
330
203
100
AcDbEntity
  8
0
 62
     5
420
      255
100
AcDbLine
 10
38.47163832292654
 20
21.24569752851136
 30
0.0
 11
38.47169275699106
 21
21.24561123023483
 31
0.0
  0
SPLINE
  5
E1
330
203
100
AcDbEntity
  8
0
 62
     5
420
      255
100
AcDbSpline
210
0.0
220
0.0
230
1.0
 70
     8
 71
     3
 72
     8
 73
     4
 74
     0
 42
0.000000001
 43
0.001
 40
0.0
 40
0.0
 40
0.0
 40
0.0
 40
1.0
 40
1.0
 40
1.0
 40
1.0
 10
38.47169275699106
 20
21.24561123023483
 30
0.0
 10
38.61656917752458
 20
21.43895868195224
 30
0.0
 10
38.71875009347861
 20
21.66610732425314
 30
0.0
 10
38.76418408596743
 20
21.91260751806041
 30
0.0
  0
LINE
  5
E2
330
203
100
AcDbEntity
  8
0
 62
     5
420
      255
100
AcDbLine
 10
38.76368378057156
 20
21.91251247196318
 30
0.0
 11
38.7640121513461
 21
21.91095041919683
 31
0.0
  0
SPLINE
  5
E3
330
203
100
AcDbEntity
  8
0
 62
     5
420
      255
100
AcDbSpline
210
0.0
220
0.0
230
1.0
 70
     8
 71
     3
 72
     8
 73
     4
 74
     0
 42
0.000000001
 43
0.001
 40
0.0
 40
0.0
 40
0.0
 40
0.0
 40
1.0
 40
1.0
 40
1.0
 40
1.0
 10
38.7640121513461
 20
21.91095041919683
 30
0.0
 10
38.80949845538612
 20
22.12398346882955
 30
0.0
 10
38.83333333333334
 20
22.34404160073548
 30
0.0
 10
38.83333333333334
 20
22.56966666666667
 30
0.0
  0
ARC
  5
E4
330
203
100
AcDbEntity
  8
0
 62
     5
420
      255
100
AcDbCircle
 10
35.63933286239801
 20
22.56968104101633
 30
0.0
 40
3.194000470967675
100
AcDbArc
 50
359.999742143397
 51
0.1847685854714084
  0
LINE
  5
E5
330
203
100
AcDbEntity
  8
0
 62
     5
420
      255
100
AcDbLine
 10
38.8333142338405
 20
22.5793901411466
 30
0.0
 11
38.83331443676808
 21
22.57933122676381
 31
0.0
  0
ARC
  5
E6
330
203
100
AcDbEntity
  8
0
 62
     5
420
      255
100
AcDbCircle
 10
35.62235739469801
 20
22.59034724551642
 30
0.0
 40
3.210975938665467
100
AcDbArc
 50
359.8034327781445
 51
359.9997517543927
  0
SPLINE
  5
E7
330
203
100
AcDbEntity
  8
0
 62
     5
420
      255
100
AcDbSpline
210
0.0
220
0.0
230
1.0
 70
     8
 71
     3
 72
     8
 73
     4
 74
     0
 42
0.000000001
 43
0.001
 40
0.0
 40
0.0
 40
0.0
 40
0.0
 40
1.0
 40
1.0
 40
1.0
 40
1.0
 10
38.83333333333334
 20
22.59033333333333
 30
0.0
 10
38.83333333333334
 20
22.81609573899507
 30
0.0
 10
38.80946942960393
 20
23.03628443129688
 30
0.0
 10
38.76432351622655
 20
23.24759176602844
 30
0.0
  0
LINE
  5
E8
330
203
100
AcDbEntity
  8
0
 62
     5
420
      255
100
AcDbLine
 10
38.76399005122196
 20
23.24688289384626
 30
0.0
 11
38.76422470855266
 21
23.24717238942775
 31
0.0
  0
SPLINE
  5
E9
330
203
100
AcDbEntity
  8
0
 62
     5
420
      255
100
AcDbSpline
210
0.0
220
0.0
230
1.0
 70
     8
 71
     3
 72
     8
 73
     4
 74
     0
 42
0.000000001
 43
0.001
 40
0.0
 40
0.0
 40
0.0
 40
0.0
 40
1.0
 40
1.0
 40
1.0
 40
1.0
 10
38.76422470855266
 20
23.24717238942775
 30
0.0
 10
38.71858859822426
 20
23.49408889816045
 30
0.0
 10
38.61664705354288
 20
23.72073450930319
 30
0.0
 10
38.47221250714987
 20
23.91369476342619
 30
0.0
  0
LINE
  5
EA
330
203
100
AcDbEntity
  8
0
 62
     5
420
      255
100
AcDbLine
 10
37.50001909949282
 20
22.58060985885339
 30
0.0
 11
37.50001889656525
 21
22.58066877323619
 31
0.0
  0
ARC
  5
EB
330
203
100
AcDbEntity
  8
0
 62
     5
420
      255
100
AcDbCircle
 10
40.71097593863901
 20
22.56965275448358
 30
0.0
 40
3.210975938669148
100
AcDbArc
 50
179.8034327781445
 51
179.9997517543927
  0
SPLINE
  5
EC
330
203
100
AcDbEntity
  8
0
 62
     5
420
      255
100
AcDbSpline
210
0.0
220
0.0
230
1.0
 70
     8
 71
     3
 72
     8
 73
     4
 74
     0
 42
0.000000001
 43
0.001
 40
0.0
 40
0.0
 40
0.0
 40
0.0
 40
1.0
 40
1.0
 40
1.0
 40
1.0
 10
37.5
 20
22.56966666666667
 30
0.0
 10
37.5
 20
22.34371452748192
 30
0.0
 10
37.52390403162507
 20
22.12334547402932
 30
0.0
 10
37.56912408870983
 20
21.9118728160807
 30
0.0
  0
LINE
  5
ED
330
203
100
AcDbEntity
  8
0
 62
     5
420
      255
100
AcDbLine
 10
37.56964955276177
 20
23.24748752803681
 30
0.0
 11
37.56932118198723
 21
23.24904958080316
 31
0.0
  0
SPLINE
  5
EE
330
203
100
AcDbEntity
  8
0
 62
     5
420
      255
100
AcDbSpline
210
0.0
220
0.0
230
1.0
 70
     8
 71
     3
 72
     8
 73
     4
 74
     0
 42
0.000000001
 43
0.001
 40
0.0
 40
0.0
 40
0.0
 40
0.0
 40
1.0
 40
1.0
 40
1.0
 40
1.0
 10
37.56932118198723
 20
23.24904958080316
 30
0.0
 10
37.52383487794721
 20
23.03601653117044
 30
0.0
 10
37.5
 20
22.81595839926452
 30
0.0
 10
37.5
 20
22.59033333333333
 30
0.0
  0
ARC
  5
EF
330
203
100
AcDbEntity
  8
0
 62
     5
420
      255
100
AcDbCircle
 10
40.69393989868549
 20
22.59031805936851
 30
0.0
 40
3.193939898722007
100
AcDbArc
 50
179.9997260011704
 51
180.1960447883202
  0
LINE
  5
D6
330
203
100
AcDbEntity
  8
0
 62
     5
420
      255
100
AcDbLine
 10
38.47220986490167
 20
23.91327405493943
 30
0.0
 11
38.47224227779762
 21
23.91330488206914
 31
0.0
  0
SPLINE
  5
D7
330
203
100
AcDbEntity
  8
0
 62
     5
420
      255
100
AcDbSpline
210
0.0
220
0.0
230
1.0
 70
     8
 71
     3
 72
     8
 73
     4
 74
     0
 42
0.000000001
 43
0.001
 40
0.0
 40
0.0
 40
0.0
 40
0.0
 40
1.0
 40
1.0
 40
1.0
 40
1.0
 10
38.47224227779762
 20
23.91330488206914
 30
0.0
 10
38.40756224651589
 20
24.013601303341
 30
0.0
 10
38.29486857986564
 20
24.08
 30
0.0
 10
38.16666666666666
 20
24.08
 30
0.0
  0
SPLINE
  5
D8
330
203
100
AcDbEntity
  8
0
 62
     5
420
      255
100
AcDbSpline
210
0.0
220
0.0
230
1.0
 70
     8
 71
     3
 72
     8
 73
     4
 74
     0
 42
0.000000001
 43
0.001
 40
0.0
 40
0.0
 40
0.0
 40
0.0
 40
1.0
 40
1.0
 40
1.0
 40
1.0
 10
38.16666666666666
 20
24.08
 30
0.0
 10
38.03855027213389
 20
24.08
 30
0.0
 10
37.92592144111659
 20
24.01368985793327
 30
0.0
 10
37.8612365336726
 20
23.91353030605662
 30
0.0
  0
LINE
  5
D9
330
203
100
AcDbEntity
  8
0
 62
     5
420
      255
100
AcDbLine
 10
37.86156167707346
 20
23.91430247148863
 30
0.0
 11
37.86150724300894
 21
23.91438876976517
 31
0.0
  0
SPLINE
  5
DA
330
203
100
AcDbEntity
  8
0
 62
     5
420
      255
100
AcDbSpline
210
0.0
220
0.0
230
1.0
 70
     8
 71
     3
 72
     8
 73
     4
 74
     0
 42
0.000000001
 43
0.001
 40
0.0
 40
0.0
 40
0.0
 40
0.0
 40
1.0
 40
1.0
 40
1.0
 40
1.0
 10
37.86150724300894
 20
23.91438876976517
 30
0.0
 10
37.71663082247542
 20
23.72104131804776
 30
0.0
 10
37.61444990652139
 20
23.49389267574686
 30
0.0
 10
37.56901591403257
 20
23.24739248193958
 30
0.0
  0
LINE
  5
DB
330
203
100
AcDbEntity
  8
0
 62
     5
420
      255
100
AcDbLine
 10
37.56915897141588
 20
21.91339202149491
 30
0.0
 11
37.56892454652721
 21
21.91310278909501
 31
0.0
  0
SPLINE
  5
DC
330
203
100
AcDbEntity
  8
0
 62
     5
420
      255
100
AcDbSpline
210
0.0
220
0.0
230
1.0
 70
     8
 71
     3
 72
     8
 73
     4
 74
     0
 42
0.000000001
 43
0.001
 40
0.0
 40
0.0
 40
0.0
 40
0.0
 40
1.0
 40
1.0
 40
1.0
 40
1.0
 10
37.56892454652721
 20
21.91310278909501
 30
0.0
 10
37.61458830979464
 20
21.66579401908448
 30
0.0
 10
37.71673564192825
 20
21.43881170066779
 30
0.0
 10
37.86149025467775
 20
21.24563390190387
 30
0.0
  0
LINE
  5
DD
330
203
100
AcDbEntity
  8
0
 62
     5
420
      255
100
AcDbLine
 10
37.8612608007299
 20
21.24651268359727
 30
0.0
 11
37.86122856035266
 21
21.2464820394623
 31
0.0
  0
SPLINE
  5
DE
330
203
100
AcDbEntity
  8
0
 62
     5
420
      255
100
AcDbSpline
210
0.0
220
0.0
230
1.0
 70
     8
 71
     3
 72
     8
 73
     4
 74
     0
 42
0.000000001
 43
0.001
 40
0.0
 40
0.0
 40
0.0
 40
0.0
 40
1.0
 40
1.0
 40
1.0
 40
1.0
 10
37.86122856035266
 20
21.2464820394623
 30
0.0
 10
37.92593069510657
 20
21.14630469391418
 30
0.0
 10
38.03855553537097
 20
21.08
 30
0.0
 10
38.16666666666666
 20
21.08
 30
0.0
  0
SPLINE
  5
DF
330
203
100
AcDbEntity
  8
0
 62
     5
420
      255
100
AcDbSpline
210
0.0
220
0.0
230
1.0
 70
     8
 71
     3
 72
     8
 73
     4
 74
     0
 42
0.000000001
 43
0.001
 40
0.0
 40
0.0
 40
0.0
 40
0.0
 40
1.0
 40
1.0
 40
1.0
 40
1.0
 10
38.16666666666666
 20
21.08
 30
0.0
 10
38.29478306119945
 20
21.08
 30
0.0
 10
38.40741189221674
 20
21.14631014206673
 30
0.0
 10
38.47209679966073
 20
21.24646969394338
 30
0.0
  0
LINE
  5
D0
330
203
100
AcDbEntity
  8
0
 62
     5
420
      255
100
AcDbLine
 10
31.0
 20
22.348
 30
0.0
 11
31.0
 21
21.74666666666667
 31
0.0
  0
SPLINE
  5
D1
330
203
100
AcDbEntity
  8
0
 62
     5
420
      255
100
AcDbSpline
210
0.0
220
0.0
230
1.0
 70
     8
 71
     3
 72
     8
 73
     4
 74
     0
 42
0.000000001
 43
0.001
 40
0.0
 40
0.0
 40
0.0
 40
0.0
 40
1.0
 40
1.0
 40
1.0
 40
1.0
 10
31.0
 20
21.74666666666667
 30
0.0
 10
31.0
 20
21.37847683346666
 30
0.0
 10
31.29847683346667
 20
21.08
 30
0.0
 10
31.66666666666667
 20
21.08
 30
0.0
  0
SPLINE
  5
D2
330
203
100
AcDbEntity
  8
0
 62
     5
420
      255
100
AcDbSpline
210
0.0
220
0.0
230
1.0
 70
     8
 71
     3
 72
     8
 73
     4
 74
     0
 42
0.000000001
 43
0.001
 40
0.0
 40
0.0
 40
0.0
 40
0.0
 40
1.0
 40
1.0
 40
1.0
 40
1.0
 10
31.66666666666667
 20
21.08
 30
0.0
 10
32.03485649986666
 20
21.08
 30
0.0
 10
32.33333333333334
 20
21.37847683346666
 30
0.0
 10
32.33333333333334
 20
21.74666666666667
 30
0.0
  0
LINE
  5
D3
330
203
100
AcDbEntity
  8
0
 62
     5
420
      255
100
AcDbLine
 10
32.33333333333334
 20
21.74666666666667
 30
0.0
 11
32.33333333333334
 21
22.08
 31
0.0
  0
SPLINE
  5
D4
330
203
100
AcDbEntity
  8
0
 62
     5
420
      255
100
AcDbSpline
210
0.0
220
0.0
230
1.0
 70
     8
 71
     3
 72
     8
 73
     4
 74
     0
 42
0.000000001
 43
0.001
 40
0.0
 40
0.0
 40
0.0
 40
0.0
 40
1.0
 40
1.0
 40
1.0
 40
1.0
 10
32.33333333333334
 20
22.08
 30
0.0
 10
32.33333333333334
 20
22.4481898332
 30
0.0
 10
32.03485649986666
 20
22.74666666666667
 30
0.0
 10
31.66666666666667
 20
22.74666666666667
 30
0.0
  0
LINE
  5
D5
330
203
100
AcDbEntity
  8
0
 62
     5
420
      255
100
AcDbLine
 10
31.66666666666667
 20
22.74666666666667
 30
0.0
 11
31.04013333333333
 21
22.74666666666667
 31
0.0
  0
SPLINE
  5
C0
330
203
100
AcDbEntity
  8
0
 62
     5
420
      255
100
AcDbSpline
210
0.0
220
0.0
230
1.0
 70
     8
 71
     3
 72
     8
 73
     4
 74
     0
 42
0.000000001
 43
0.001
 40
0.0
 40
0.0
 40
0.0
 40
0.0
 40
1.0
 40
1.0
 40
1.0
 40
1.0
 10
28.93067881801277
 20
21.91095041919683
 30
0.0
 10
28.97616512205279
 20
22.12398346882955
 30
0.0
 10
29.0
 20
22.34404160073548
 30
0.0
 10
29.0
 20
22.56966666666667
 30
0.0
  0
ARC
  5
C1
330
203
100
AcDbEntity
  8
0
 62
     5
420
      255
100
AcDbCircle
 10
25.80599952906491
 20
22.56968104101634
 30
0.0
 40
3.194000470967433
100
AcDbArc
 50
359.9997421448105
 51
0.1847685854694358
  0
LINE
  5
C2
330
203
100
AcDbEntity
  8
0
 62
     5
420
      255
100
AcDbLine
 10
28.99998090050718
 20
22.5793901411466
 30
0.0
 11
28.99998110343475
 21
22.57933122676381
 31
0.0
  0
ARC
  5
C3
330
203
100
AcDbEntity
  8
0
 62
     5
420
      255
100
AcDbCircle
 10
25.78902406015845
 20
22.59034724551745
 30
0.0
 40
3.210975939871685
100
AcDbArc
 50
359.8034327781983
 51
359.9997517543927
  0
SPLINE
  5
C4
330
203
100
AcDbEntity
  8
0
 62
     5
420
      255
100
AcDbSpline
210
0.0
220
0.0
230
1.0
 70
     8
 71
     3
 72
     8
 73
     4
 74
     0
 42
0.000000001
 43
0.001
 40
0.0
 40
0.0
 40
0.0
 40
0.0
 40
1.0
 40
1.0
 40
1.0
 40
1.0
 10
29.0
 20
22.59033333333333
 30
0.0
 10
29.0
 20
22.81609573899507
 30
0.0
 10
28.9761360962706
 20
23.03628443129688
 30
0.0
 10
28.93099018289322
 20
23.24759176602844
 30
0.0
  0
LINE
  5
C5
330
203
100
AcDbEntity
  8
0
 62
     5
420
      255
100
AcDbLine
 10
28.93065671788863
 20
23.24688289384626
 30
0.0
 11
28.93089137521933
 21
23.24717238942775
 31
0.0
  0
SPLINE
  5
C6
330
203
100
AcDbEntity
  8
0
 62
     5
420
      255
100
AcDbSpline
210
0.0
220
0.0
230
1.0
 70
     8
 71
     3
 72
     8
 73
     4
 74
     0
 42
0.000000001
 43
0.001
 40
0.0
 40
0.0
 40
0.0
 40
0.0
 40
1.0
 40
1.0
 40
1.0
 40
1.0
 10
28.93089137521933
 20
23.24717238942775
 30
0.0
 10
28.88525526489093
 20
23.49408889816045
 30
0.0
 10
28.78331372020955
 20
23.72073450930319
 30
0.0
 10
28.63887917381654
 20
23.91369476342619
 30
0.0
  0
LINE
  5
C7
330
203
100
AcDbEntity
  8
0
 62
     5
420
      255
100
AcDbLine
 10
27.6666857661595
 20
22.58060985885339
 30
0.0
 11
27.66668556323192
 21
22.58066877323619
 31
0.0
  0
ARC
  5
C8
330
203
100
AcDbEntity
  8
0
 62
     5
420
      255
100
AcDbCircle
 10
30.87764260893226
 20
22.56965275447838
 30
0.0
 40
3.21097594229573
100
AcDbArc
 50
179.8034327782725
 51
179.9997517543927
  0
SPLINE
  5
C9
330
203
100
AcDbEntity
  8
0
 62
     5
420
      255
100
AcDbSpline
210
0.0
220
0.0
230
1.0
 70
     8
 71
     3
 72
     8
 73
     4
 74
     0
 42
0.000000001
 43
0.001
 40
0.0
 40
0.0
 40
0.0
 40
0.0
 40
1.0
 40
1.0
 40
1.0
 40
1.0
 10
27.66666666666667
 20
22.56966666666667
 30
0.0
 10
27.66666666666667
 20
22.34371452748192
 30
0.0
 10
27.69057069829173
 20
22.12334547402932
 30
0.0
 10
27.73579075537649
 20
21.9118728160807
 30
0.0
  0
LINE
  5
CA
330
203
100
AcDbEntity
  8
0
 62
     5
420
      255
100
AcDbLine
 10
27.73631621942844
 20
23.24748752803681
 30
0.0
 11
27.7359878486539
 21
23.24904958080316
 31
0.0
  0
SPLINE
  5
CB
330
203
100
AcDbEntity
  8
0
 62
     5
420
      255
100
AcDbSpline
210
0.0
220
0.0
230
1.0
 70
     8
 71
     3
 72
     8
 73
     4
 74
     0
 42
0.000000001
 43
0.001
 40
0.0
 40
0.0
 40
0.0
 40
0.0
 40
1.0
 40
1.0
 40
1.0
 40
1.0
 10
27.7359878486539
 20
23.24904958080316
 30
0.0
 10
27.69050154461388
 20
23.03601653117044
 30
0.0
 10
27.66666666666667
 20
22.81595839926452
 30
0.0
 10
27.66666666666667
 20
22.59033333333333
 30
0.0
  0
ARC
  5
CC
330
203
100
AcDbEntity
  8
0
 62
     5
420
      255
100
AcDbCircle
 10
30.86060656777786
 20
22.59031805937265
 30
0.0
 40
3.193939901147718
100
AcDbArc
 50
179.9997260011704
 51
180.1960447882458
  0
LINE
  5
CD
330
203
100
AcDbEntity
  8
0
 62
     5
420
      255
100
AcDbLine
 10
30.0
 20
21.08
 30
0.0
 11
30.0
 21
21.24666666666667
 31
0.0
  0
LINE
  5
CE
330
203
100
AcDbEntity
  8
0
 62
     5
420
      255
100
AcDbLine
 10
32.0
 20
24.08005080756887
 30
0.0
 11
31.99975761895495
 21
24.08029537691371
 31
0.0
  0
SPLINE
  5
CF
330
203
100
AcDbEntity
  8
0
 62
     5
420
      255
100
AcDbSpline
210
0.0
220
0.0
230
1.0
 70
     8
 71
     3
 72
     8
 73
     4
 74
     0
 42
0.000000001
 43
0.001
 40
0.0
 40
0.0
 40
0.0
 40
0.0
 40
1.0
 40
1.0
 40
1.0
 40
1.0
 10
31.99975761895495
 20
24.08029537691371
 30
0.0
 10
31.40204118307878
 20
23.7343731397267
 30
0.0
 10
31.0
 20
23.08813744468206
 30
0.0
 10
31.0
 20
22.348
 30
0.0
  0
LINE
  5
B3
330
203
100
AcDbEntity
  8
0
 62
     5
420
      255
100
AcDbLine
 10
28.63887653156834
 20
23.91327405493943
 30
0.0
 11
28.63890894446429
 21
23.91330488206914
 31
0.0
  0
SPLINE
  5
B4
330
203
100
AcDbEntity
  8
0
 62
     5
420
      255
100
AcDbSpline
210
0.0
220
0.0
230
1.0
 70
     8
 71
     3
 72
     8
 73
     4
 74
     0
 42
0.000000001
 43
0.001
 40
0.0
 40
0.0
 40
0.0
 40
0.0
 40
1.0
 40
1.0
 40
1.0
 40
1.0
 10
28.63890894446429
 20
23.91330488206914
 30
0.0
 10
28.57422891318256
 20
24.013601303341
 30
0.0
 10
28.46153524653231
 20
24.08
 30
0.0
 10
28.33333333333334
 20
24.08
 30
0.0
  0
SPLINE
  5
B5
330
203
100
AcDbEntity
  8
0
 62
     5
420
      255
100
AcDbSpline
210
0.0
220
0.0
230
1.0
 70
     8
 71
     3
 72
     8
 73
     4
 74
     0
 42
0.000000001
 43
0.001
 40
0.0
 40
0.0
 40
0.0
 40
0.0
 40
1.0
 40
1.0
 40
1.0
 40
1.0
 10
28.33333333333334
 20
24.08
 30
0.0
 10
28.20521693880055
 20
24.08
 30
0.0
 10
28.09258810778326
 20
24.01368985793327
 30
0.0
 10
28.02790320033927
 20
23.91353030605662
 30
0.0
  0
LINE
  5
B6
330
203
100
AcDbEntity
  8
0
 62
     5
420
      255
100
AcDbLine
 10
28.02822834374013
 20
23.91430247148863
 30
0.0
 11
28.02817390967561
 21
23.91438876976517
 31
0.0
  0
SPLINE
  5
B7
330
203
100
AcDbEntity
  8
0
 62
     5
420
      255
100
AcDbSpline
210
0.0
220
0.0
230
1.0
 70
     8
 71
     3
 72
     8
 73
     4
 74
     0
 42
0.000000001
 43
0.001
 40
0.0
 40
0.0
 40
0.0
 40
0.0
 40
1.0
 40
1.0
 40
1.0
 40
1.0
 10
28.02817390967561
 20
23.91438876976517
 30
0.0
 10
27.88329748914209
 20
23.72104131804776
 30
0.0
 10
27.78111657318806
 20
23.49389267574686
 30
0.0
 10
27.73568258069924
 20
23.24739248193958
 30
0.0
  0
LINE
  5
B8
330
203
100
AcDbEntity
  8
0
 62
     5
420
      255
100
AcDbLine
 10
27.73582563808255
 20
21.91339202149491
 30
0.0
 11
27.73559121319388
 21
21.91310278909501
 31
0.0
  0
SPLINE
  5
B9
330
203
100
AcDbEntity
  8
0
 62
     5
420
      255
100
AcDbSpline
210
0.0
220
0.0
230
1.0
 70
     8
 71
     3
 72
     8
 73
     4
 74
     0
 42
0.000000001
 43
0.001
 40
0.0
 40
0.0
 40
0.0
 40
0.0
 40
1.0
 40
1.0
 40
1.0
 40
1.0
 10
27.73559121319388
 20
21.91310278909501
 30
0.0
 10
27.78125497646131
 20
21.66579401908448
 30
0.0
 10
27.88340230859492
 20
21.43881170066779
 30
0.0
 10
28.02815692134441
 20
21.24563390190387
 30
0.0
  0
LINE
  5
BA
330
203
100
AcDbEntity
  8
0
 62
     5
420
      255
100
AcDbLine
 10
28.02792746739657
 20
21.24651268359727
 30
0.0
 11
28.02789522701933
 21
21.2464820394623
 31
0.0
  0
SPLINE
  5
BB
330
203
100
AcDbEntity
  8
0
 62
     5
420
      255
100
AcDbSpline
210
0.0
220
0.0
230
1.0
 70
     8
 71
     3
 72
     8
 73
     4
 74
     0
 42
0.000000001
 43
0.001
 40
0.0
 40
0.0
 40
0.0
 40
0.0
 40
1.0
 40
1.0
 40
1.0
 40
1.0
 10
28.02789522701933
 20
21.2464820394623
 30
0.0
 10
28.09259736177323
 20
21.14630469391418
 30
0.0
 10
28.20522220203765
 20
21.08
 30
0.0
 10
28.33333333333334
 20
21.08
 30
0.0
  0
SPLINE
  5
BC
330
203
100
AcDbEntity
  8
0
 62
     5
420
      255
100
AcDbSpline
210
0.0
220
0.0
230
1.0
 70
     8
 71
     3
 72
     8
 73
     4
 74
     0
 42
0.000000001
 43
0.001
 40
0.0
 40
0.0
 40
0.0
 40
0.0
 40
1.0
 40
1.0
 40
1.0
 40
1.0
 10
28.33333333333334
 20
21.08
 30
0.0
 10
28.46144972786611
 20
21.08
 30
0.0
 10
28.57407855888341
 20
21.14631014206673
 30
0.0
 10
28.6387634663274
 20
21.24646969394338
 30
0.0
  0
LINE
  5
BD
330
203
100
AcDbEntity
  8
0
 62
     5
420
      255
100
AcDbLine
 10
28.63830498959321
 20
21.24569752851136
 30
0.0
 11
28.63835942365773
 21
21.24561123023483
 31
0.0
  0
SPLINE
  5
BE
330
203
100
AcDbEntity
  8
0
 62
     5
420
      255
100
AcDbSpline
210
0.0
220
0.0
230
1.0
 70
     8
 71
     3
 72
     8
 73
     4
 74
     0
 42
0.000000001
 43
0.001
 40
0.0
 40
0.0
 40
0.0
 40
0.0
 40
1.0
 40
1.0
 40
1.0
 40
1.0
 10
28.63835942365773
 20
21.24561123023483
 30
0.0
 10
28.78323584419125
 20
21.43895868195224
 30
0.0
 10
28.88541676014528
 20
21.66610732425314
 30
0.0
 10
28.9308507526341
 20
21.91260751806041
 30
0.0
  0
LINE
  5
BF
330
203
100
AcDbEntity
  8
0
 62
     5
420
      255
100
AcDbLine
 10
28.93035044723823
 20
21.91251247196318
 30
0.0
 11
28.93067881801277
 21
21.91095041919683
 31
0.0
  0
LINE
  5
B0
330
203
100
AcDbEntity
  8
0
 62
     5
420
      255
100
AcDbLine
 10
22.25
 20
23.33
 30
0.0
 11
22.25
 21
23.49666666666667
 31
0.0
  0
SPLINE
  5
B1
330
203
100
AcDbEntity
  8
0
 62
     5
420
      255
100
AcDbSpline
210
0.0
220
0.0
230
1.0
 70
     8
 71
     3
 72
     8
 73
     4
 74
     0
 42
0.000000001
 43
0.001
 40
0.0
 40
0.0
 40
0.0
 40
0.0
 40
1.0
 40
1.0
 40
1.0
 40
1.0
 10
22.25
 20
23.49666666666667
 30
0.0
 10
22.25
 20
23.81883277071666
 30
0.0
 10
21.98883277071667
 20
24.08
 30
0.0
 10
21.66666666666667
 20
24.08
 30
0.0
  0
SPLINE
  5
B2
330
203
100
AcDbEntity
  8
0
 62
     5
420
      255
100
AcDbSpline
210
0.0
220
0.0
230
1.0
 70
     8
 71
     3
 72
     8
 73
     4
 74
     0
 42
0.000000001
 43
0.001
 40
0.0
 40
0.0
 40
0.0
 40
0.0
 40
1.0
 40
1.0
 40
1.0
 40
1.0
 10
21.66666666666667
 20
24.08
 30
0.0
 10
21.34450056261667
 20
24.08
 30
0.0
 10
21.08333333333334
 20
23.81883277071666
 30
0.0
 10
21.08333333333334
 20
23.49666666666667
 30
0.0
  0
LINE
  5
A0
330
203
100
AcDbEntity
  8
0
 62
     5
420
      255
100
AcDbLine
 10
17.6666857661595
 20
22.58060985885339
 30
0.0
 11
17.66668556323192
 21
22.58066877323619
 31
0.0
  0
ARC
  5
A1
330
203
100
AcDbEntity
  8
0
 62
     5
420
      255
100
AcDbCircle
 10
20.87764260893075
 20
22.56965275447839
 30
0.0
 40
3.210975942294223
100
AcDbArc
 50
179.8034327782725
 51
179.9997517543927
  0
SPLINE
  5
A2
330
203
100
AcDbEntity
  8
0
 62
     5
420
      255
100
AcDbSpline
210
0.0
220
0.0
230
1.0
 70
     8
 71
     3
 72
     8
 73
     4
 74
     0
 42
0.000000001
 43
0.001
 40
0.0
 40
0.0
 40
0.0
 40
0.0
 40
1.0
 40
1.0
 40
1.0
 40
1.0
 10
17.66666666666667
 20
22.56966666666667
 30
0.0
 10
17.66666666666667
 20
22.34371452748192
 30
0.0
 10
17.69057069829173
 20
22.12334547402932
 30
0.0
 10
17.73579075537649
 20
21.9118728160807
 30
0.0
  0
LINE
  5
A3
330
203
100
AcDbEntity
  8
0
 62
     5
420
      255
100
AcDbLine
 10
17.73631621942844
 20
23.24748752803681
 30
0.0
 11
17.7359878486539
 21
23.24904958080316
 31
0.0
  0
SPLINE
  5
A4
330
203
100
AcDbEntity
  8
0
 62
     5
420
      255
100
AcDbSpline
210
0.0
220
0.0
230
1.0
 70
     8
 71
     3
 72
     8
 73
     4
 74
     0
 42
0.000000001
 43
0.001
 40
0.0
 40
0.0
 40
0.0
 40
0.0
 40
1.0
 40
1.0
 40
1.0
 40
1.0
 10
17.7359878486539
 20
23.24904958080316
 30
0.0
 10
17.69050154461388
 20
23.03601653117044
 30
0.0
 10
17.66666666666667
 20
22.81595839926452
 30
0.0
 10
17.66666666666667
 20
22.59033333333333
 30
0.0
  0
ARC
  5
A5
330
203
100
AcDbEntity
  8
0
 62
     5
420
      255
100
AcDbCircle
 10
20.86060656777947
 20
22.59031805937265
 30
0.0
 40
3.19393990114932
100
AcDbArc
 50
179.9997260011704
 51
180.1960447882458
  0
LINE
  5
A6
330
203
100
AcDbEntity
  8
0
 62
     5
420
      255
100
AcDbLine
 10
20.0
 20
21.08
 30
0.0
 11
20.0
 21
21.24666666666667
 31
0.0
  0
LINE
  5
A7
330
203
100
AcDbEntity
  8
0
 62
     5
420
      255
100
AcDbLine
 10
21.0
 20
22.08
 30
0.0
 11
21.0
 21
21.74666666666667
 31
0.0
  0
SPLINE
  5
A8
330
203
100
AcDbEntity
  8
0
 62
     5
420
      255
100
AcDbSpline
210
0.0
220
0.0
230
1.0
 70
     8
 71
     3
 72
     8
 73
     4
 74
     0
 42
0.000000001
 43
0.001
 40
0.0
 40
0.0
 40
0.0
 40
0.0
 40
1.0
 40
1.0
 40
1.0
 40
1.0
 10
21.0
 20
21.74666666666667
 30
0.0
 10
21.0
 20
21.37847683346666
 30
0.0
 10
21.29847683346667
 20
21.08
 30
0.0
 10
21.66666666666667
 20
21.08
 30
0.0
  0
SPLINE
  5
A9
330
203
100
AcDbEntity
  8
0
 62
     5
420
      255
100
AcDbSpline
210
0.0
220
0.0
230
1.0
 70
     8
 71
     3
 72
     8
 73
     4
 74
     0
 42
0.000000001
 43
0.001
 40
0.0
 40
0.0
 40
0.0
 40
0.0
 40
1.0
 40
1.0
 40
1.0
 40
1.0
 10
21.66666666666667
 20
21.08
 30
0.0
 10
22.03485649986667
 20
21.08
 30
0.0
 10
22.33333333333334
 20
21.37847683346666
 30
0.0
 10
22.33333333333334
 20
21.74666666666667
 30
0.0
  0
LINE
  5
AA
330
203
100
AcDbEntity
  8
0
 62
     5
420
      255
100
AcDbLine
 10
22.33333333333334
 20
21.74666666666667
 30
0.0
 11
22.33333333333334
 21
22.08
 31
0.0
  0
SPLINE
  5
AB
330
203
100
AcDbEntity
  8
0
 62
     5
420
      255
100
AcDbSpline
210
0.0
220
0.0
230
1.0
 70
     8
 71
     3
 72
     8
 73
     4
 74
     0
 42
0.000000001
 43
0.001
 40
0.0
 40
0.0
 40
0.0
 40
0.0
 40
1.0
 40
1.0
 40
1.0
 40
1.0
 10
22.33333333333334
 20
22.08
 30
0.0
 10
22.33333333333334
 20
22.4481898332
 30
0.0
 10
22.03485649986667
 20
22.74666666666667
 30
0.0
 10
21.66666666666667
 20
22.74666666666667
 30
0.0
  0
SPLINE
  5
AC
330
203
100
AcDbEntity
  8
0
 62
     5
420
      255
100
AcDbSpline
210
0.0
220
0.0
230
1.0
 70
     8
 71
     3
 72
     8
 73
     4
 74
     0
 42
0.000000001
 43
0.001
 40
0.0
 40
0.0
 40
0.0
 40
0.0
 40
1.0
 40
1.0
 40
1.0
 40
1.0
 10
21.66666666666667
 20
22.74666666666667
 30
0.0
 10
21.29847683346667
 20
22.74666666666667
 30
0.0
 10
21.0
 20
22.4481898332
 30
0.0
 10
21.0
 20
22.08
 30
0.0
  0
LINE
  5
AD
330
203
100
AcDbEntity
  8
0
 62
     5
420
      255
100
AcDbLine
 10
21.08333333333334
 20
23.49666666666667
 30
0.0
 11
21.08333333333334
 21
23.33
 31
0.0
  0
SPLINE
  5
AE
330
203
100
AcDbEntity
  8
0
 62
     5
420
      255
100
AcDbSpline
210
0.0
220
0.0
230
1.0
 70
     8
 71
     3
 72
     8
 73
     4
 74
     0
 42
0.000000001
 43
0.001
 40
0.0
 40
0.0
 40
0.0
 40
0.0
 40
1.0
 40
1.0
 40
1.0
 40
1.0
 10
21.08333333333334
 20
23.33
 30
0.0
 10
21.08333333333334
 20
23.00783389595
 30
0.0
 10
21.34450056261667
 20
22.74666666666667
 30
0.0
 10
21.66666666666667
 20
22.74666666666667
 30
0.0
  0
SPLINE
  5
AF
330
203
100
AcDbEntity
  8
0
 62
     5
420
      255
100
AcDbSpline
210
0.0
220
0.0
230
1.0
 70
     8
 71
     3
 72
     8
 73
     4
 74
     0
 42
0.000000001
 43
0.001
 40
0.0
 40
0.0
 40
0.0
 40
0.0
 40
1.0
 40
1.0
 40
1.0
 40
1.0
 10
21.66666666666667
 20
22.74666666666667
 30
0.0
 10
21.98883277071667
 20
22.74666666666667
 30
0.0
 10
22.25
 20
23.00783389595
 30
0.0
 10
22.25
 20
23.33
 30
0.0
  0
SPLINE
  5
90
330
203
100
AcDbEntity
  8
0
 62
     5
420
      255
100
AcDbSpline
210
0.0
220
0.0
230
1.0
 70
     8
 71
     3
 72
     8
 73
     4
 74
     0
 42
0.000000001
 43
0.001
 40
0.0
 40
0.0
 40
0.0
 40
0.0
 40
1.0
 40
1.0
 40
1.0
 40
1.0
 10
18.02817390967561
 20
23.91438876976517
 30
0.0
 10
17.88329748914209
 20
23.72104131804776
 30
0.0
 10
17.78111657318806
 20
23.49389267574686
 30
0.0
 10
17.73568258069924
 20
23.24739248193958
 30
0.0
  0
LINE
  5
91
330
203
100
AcDbEntity
  8
0
 62
     5
420
      255
100
AcDbLine
 10
17.73582563808255
 20
21.91339202149491
 30
0.0
 11
17.73559121319388
 21
21.91310278909501
 31
0.0
  0
SPLINE
  5
92
330
203
100
AcDbEntity
  8
0
 62
     5
420
      255
100
AcDbSpline
210
0.0
220
0.0
230
1.0
 70
     8
 71
     3
 72
     8
 73
     4
 74
     0
 42
0.000000001
 43
0.001
 40
0.0
 40
0.0
 40
0.0
 40
0.0
 40
1.0
 40
1.0
 40
1.0
 40
1.0
 10
17.73559121319388
 20
21.91310278909501
 30
0.0
 10
17.78125497646131
 20
21.66579401908448
 30
0.0
 10
17.88340230859492
 20
21.43881170066779
 30
0.0
 10
18.02815692134441
 20
21.24563390190387
 30
0.0
  0
LINE
  5
93
330
203
100
AcDbEntity
  8
0
 62
     5
420
      255
100
AcDbLine
 10
18.02792746739657
 20
21.24651268359727
 30
0.0
 11
18.02789522701933
 21
21.2464820394623
 31
0.0
  0
SPLINE
  5
94
330
203
100
AcDbEntity
  8
0
 62
     5
420
      255
100
AcDbSpline
210
0.0
220
0.0
230
1.0
 70
     8
 71
     3
 72
     8
 73
     4
 74
     0
 42
0.000000001
 43
0.001
 40
0.0
 40
0.0
 40
0.0
 40
0.0
 40
1.0
 40
1.0
 40
1.0
 40
1.0
 10
18.02789522701933
 20
21.2464820394623
 30
0.0
 10
18.09259736177323
 20
21.14630469391418
 30
0.0
 10
18.20522220203765
 20
21.08
 30
0.0
 10
18.33333333333334
 20
21.08
 30
0.0
  0
SPLINE
  5
95
330
203
100
AcDbEntity
  8
0
 62
     5
420
      255
100
AcDbSpline
210
0.0
220
0.0
230
1.0
 70
     8
 71
     3
 72
     8
 73
     4
 74
     0
 42
0.000000001
 43
0.001
 40
0.0
 40
0.0
 40
0.0
 40
0.0
 40
1.0
 40
1.0
 40
1.0
 40
1.0
 10
18.33333333333334
 20
21.08
 30
0.0
 10
18.46144972786611
 20
21.08
 30
0.0
 10
18.57407855888341
 20
21.14631014206673
 30
0.0
 10
18.6387634663274
 20
21.24646969394338
 30
0.0
  0
LINE
  5
96
330
203
100
AcDbEntity
  8
0
 62
     5
420
      255
100
AcDbLine
 10
18.63830498959321
 20
21.24569752851136
 30
0.0
 11
18.63835942365773
 21
21.24561123023483
 31
0.0
  0
SPLINE
  5
97
330
203
100
AcDbEntity
  8
0
 62
     5
420
      255
100
AcDbSpline
210
0.0
220
0.0
230
1.0
 70
     8
 71
     3
 72
     8
 73
     4
 74
     0
 42
0.000000001
 43
0.001
 40
0.0
 40
0.0
 40
0.0
 40
0.0
 40
1.0
 40
1.0
 40
1.0
 40
1.0
 10
18.63835942365773
 20
21.24561123023483
 30
0.0
 10
18.78323584419125
 20
21.43895868195224
 30
0.0
 10
18.88541676014528
 20
21.66610732425314
 30
0.0
 10
18.9308507526341
 20
21.91260751806041
 30
0.0
  0
LINE
  5
98
330
203
100
AcDbEntity
  8
0
 62
     5
420
      255
100
AcDbLine
 10
18.93035044723823
 20
21.91251247196318
 30
0.0
 11
18.93067881801277
 21
21.91095041919683
 31
0.0
  0
SPLINE
  5
99
330
203
100
AcDbEntity
  8
0
 62
     5
420
      255
100
AcDbSpline
210
0.0
220
0.0
230
1.0
 70
     8
 71
     3
 72
     8
 73
     4
 74
     0
 42
0.000000001
 43
0.001
 40
0.0
 40
0.0
 40
0.0
 40
0.0
 40
1.0
 40
1.0
 40
1.0
 40
1.0
 10
18.93067881801277
 20
21.91095041919683
 30
0.0
 10
18.97616512205279
 20
22.12398346882955
 30
0.0
 10
19.0
 20
22.34404160073548
 30
0.0
 10
19.0
 20
22.56966666666667
 30
0.0
  0
ARC
  5
9A
330
203
100
AcDbEntity
  8
0
 62
     5
420
      255
100
AcDbCircle
 10
15.80599952906433
 20
22.56968104101634
 30
0.0
 40
3.194000470968013
100
AcDbArc
 50
359.9997421448105
 51
0.1847685854694358
  0
LINE
  5
9B
330
203
100
AcDbEntity
  8
0
 62
     5
420
      255
100
AcDbLine
 10
18.99998090050718
 20
22.5793901411466
 30
0.0
 11
18.99998110343475
 21
22.57933122676381
 31
0.0
  0
ARC
  5
9C
330
203
100
AcDbEntity
  8
0
 62
     5
420
      255
100
AcDbCircle
 10
15.789024060159
 20
22.59034724551745
 30
0.0
 40
3.210975939871136
100
AcDbArc
 50
359.8034327781983
 51
359.9997517543927
  0
SPLINE
  5
9D
330
203
100
AcDbEntity
  8
0
 62
     5
420
      255
100
AcDbSpline
210
0.0
220
0.0
230
1.0
 70
     8
 71
     3
 72
     8
 73
     4
 74
     0
 42
0.000000001
 43
0.001
 40
0.0
 40
0.0
 40
0.0
 40
0.0
 40
1.0
 40
1.0
 40
1.0
 40
1.0
 10
19.0
 20
22.59033333333333
 30
0.0
 10
19.0
 20
22.81609573899507
 30
0.0
 10
18.9761360962706
 20
23.03628443129688
 30
0.0
 10
18.93099018289322
 20
23.24759176602844
 30
0.0
  0
LINE
  5
9E
330
203
100
AcDbEntity
  8
0
 62
     5
420
      255
100
AcDbLine
 10
18.93065671788863
 20
23.24688289384626
 30
0.0
 11
18.93089137521933
 21
23.24717238942775
 31
0.0
  0
SPLINE
  5
9F
330
203
100
AcDbEntity
  8
0
 62
     5
420
      255
100
AcDbSpline
210
0.0
220
0.0
230
1.0
 70
     8
 71
     3
 72
     8
 73
     4
 74
     0
 42
0.000000001
 43
0.001
 40
0.0
 40
0.0
 40
0.0
 40
0.0
 40
1.0
 40
1.0
 40
1.0
 40
1.0
 10
18.93089137521933
 20
23.24717238942775
 30
0.0
 10
18.88525526489093
 20
23.49408889816045
 30
0.0
 10
18.78331372020955
 20
23.72073450930319
 30
0.0
 10
18.63887917381654
 20
23.91369476342619
 30
0.0
  0
LINE
  5
8C
330
203
100
AcDbEntity
  8
0
 62
     5
420
      255
100
AcDbLine
 10
18.63887653156834
 20
23.91327405493943
 30
0.0
 11
18.63890894446429
 21
23.91330488206914
 31
0.0
  0
SPLINE
  5
8D
330
203
100
AcDbEntity
  8
0
 62
     5
420
      255
100
AcDbSpline
210
0.0
220
0.0
230
1.0
 70
     8
 71
     3
 72
     8
 73
     4
 74
     0
 42
0.000000001
 43
0.001
 40
0.0
 40
0.0
 40
0.0
 40
0.0
 40
1.0
 40
1.0
 40
1.0
 40
1.0
 10
18.63890894446429
 20
23.91330488206914
 30
0.0
 10
18.57422891318256
 20
24.013601303341
 30
0.0
 10
18.46153524653231
 20
24.08
 30
0.0
 10
18.33333333333334
 20
24.08
 30
0.0
  0
SPLINE
  5
8E
330
203
100
AcDbEntity
  8
0
 62
     5
420
      255
100
AcDbSpline
210
0.0
220
0.0
230
1.0
 70
     8
 71
     3
 72
     8
 73
     4
 74
     0
 42
0.000000001
 43
0.001
 40
0.0
 40
0.0
 40
0.0
 40
0.0
 40
1.0
 40
1.0
 40
1.0
 40
1.0
 10
18.33333333333334
 20
24.08
 30
0.0
 10
18.20521693880055
 20
24.08
 30
0.0
 10
18.09258810778326
 20
24.01368985793327
 30
0.0
 10
18.02790320033927
 20
23.91353030605662
 30
0.0
  0
LINE
  5
8F
330
203
100
AcDbEntity
  8
0
 62
     5
420
      255
100
AcDbLine
 10
18.02822834374013
 20
23.91430247148863
 30
0.0
 11
18.02817390967561
 21
23.91438876976517
 31
0.0
  0
LINE
  5
8A
330
203
100
AcDbEntity
  8
0
 62
     5
420
      255
100
AcDbLine
 10
9.666666666666666
 20
23.41333333333333
 30
0.0
 11
10.33333333333333
 21
24.08
 31
0.0
  0
LINE
  5
8B
330
203
100
AcDbEntity
  8
0
 62
     5
420
      255
100
AcDbLine
 10
10.33333333333333
 20
24.08
 30
0.0
 11
10.33333333333333
 21
21.08
 31
0.0
  0
LINE
  5
18A
330
203
100
AcDbEntity
  8
0
 62
     5
420
      255
100
AcDbLine
 10
15.0
 20
19.0
 30
0.0
 11
15.0
 21
15.10102030610204
 31
0.0
  0
LINE
  5
18B
330
203
100
AcDbEntity
  8
0
 62
     5
420
      255
100
AcDbLine
 10
15.0
 20
4.898979693897964
 30
0.0
 11
15.0
 21
1.0
 31
0.0
  0
LINE
  5
192
330
203
100
AcDbEntity
  8
0
 62
     5
420
      255
100
AcDbLine
 10
11.0
 20
18.0
 30
0.0
 11
11.0
 21
15.02100430130044
 31
0.0
  0
LINE
  5
193
330
203
100
AcDbEntity
  8
0
 62
     5
420
      255
100
AcDbLine
 10
11.0
 20
4.978995698699565
 30
0.0
 11
11.0
 21
2.0
 31
0.0
  0
LINE
  5
197
330
203
100
AcDbEntity
  8
0
 62
     5
420
      255
100
AcDbLine
 10
56.0
 20
18.0
 30
0.0
 11
56.0
 21
15.92118435531844
 31
0.0
  0
LINE
  5
19B
330
203
100
AcDbEntity
  8
0
 62
     5
420
      255
100
AcDbLine
 10
56.0
 20
4.078815644681558
 30
0.0
 11
56.0
 21
2.0
 31
0.0
  0
LINE
  5
188
330
203
100
AcDbEntity
  8
0
 62
     5
420
      255
100
AcDbLine
 10
16.0
 20
18.0
 30
0.0
 11
16.0
 21
15.12102430730244
 31
0.0
  0
LINE
  5
189
330
203
100
AcDbEntity
  8
0
 62
     5
420
      255
100
AcDbLine
 10
16.0
 20
4.878975692697566
 30
0.0
 11
16.0
 21
2.0
 31
0.0
  0
LINE
  5
174
330
203
100
AcDbEntity
  8
0
 62
     5
420
      255
100
AcDbLine
 10
26.0
 20
18.0
 30
0.0
 11
26.0
 21
15.32106431930644
 31
0.0
  0
LINE
  5
175
330
203
100
AcDbEntity
  8
0
 62
     5
420
      255
100
AcDbLine
 10
26.0
 20
4.678935680693563
 30
0.0
 11
26.0
 21
2.0
 31
0.0
  0
LINE
  5
17E
330
203
100
AcDbEntity
  8
0
 62
     5
420
      255
100
AcDbLine
 10
21.0
 20
18.0
 30
0.0
 11
21.0
 21
15.22104431330444
 31
0.0
  0
LINE
  5
17F
330
203
100
AcDbEntity
  8
0
 62
     5
420
      255
100
AcDbLine
 10
21.0
 20
4.778955686695564
 30
0.0
 11
21.0
 21
2.0
 31
0.0
  0
LINE
  5
160
330
203
100
AcDbEntity
  8
0
 62
     5
420
      255
100
AcDbLine
 10
36.0
 20
18.0
 30
0.0
 11
36.0
 21
15.52110433131044
 31
0.0
  0
LINE
  5
161
330
203
100
AcDbEntity
  8
0
 62
     5
420
      255
100
AcDbLine
 10
36.0
 20
4.47889566868956
 30
0.0
 11
36.0
 21
2.0
 31
0.0
  0
LINE
  5
16A
330
203
100
AcDbEntity
  8
0
 62
     5
420
      255
100
AcDbLine
 10
31.0
 20
18.0
 30
0.0
 11
31.0
 21
15.42108432530844
 31
0.0
  0
LINE
  5
16B
330
203
100
AcDbEntity
  8
0
 62
     5
420
      255
100
AcDbLine
 10
31.0
 20
4.578915674691562
 30
0.0
 11
31.0
 21
2.0
 31
0.0
  0
LINE
  5
156
330
203
100
AcDbEntity
  8
0
 62
     5
420
      255
100
AcDbLine
 10
41.0
 20
18.0
 30
0.0
 11
41.0
 21
15.62112433731244
 31
0.0
  0
LINE
  5
157
330
203
100
AcDbEntity
  8
0
 62
     5
420
      255
100
AcDbLine
 10
41.0
 20
4.378875662687561
 30
0.0
 11
41.0
 21
2.0
 31
0.0
  0
LINE
  5
142
330
203
100
AcDbEntity
  8
0
 62
     5
420
      255
100
AcDbLine
 10
51.0
 20
18.0
 30
0.0
 11
51.0
 21
15.82116434931644
 31
0.0
  0
LINE
  5
143
330
203
100
AcDbEntity
  8
0
 62
     5
420
      255
100
AcDbLine
 10
51.0
 20
4.17883565068356
 30
0.0
 11
51.0
 21
2.0
 31
0.0
  0
LINE
  5
14C
330
203
100
AcDbEntity
  8
0
 62
     5
420
      255
100
AcDbLine
 10
46.0
 20
18.0
 30
0.0
 11
46.0
 21
15.72114434331444
 31
0.0
  0
LINE
  5
14D
330
203
100
AcDbEntity
  8
0
 62
     5
420
      255
100
AcDbLine
 10
46.0
 20
4.278855656685559
 30
0.0
 11
46.0
 21
2.0
 31
0.0
  0
LINE
  5
176
330
203
100
AcDbEntity
  8
0
 62
     5
420
      255
100
AcDbLine
 10
25.0
 20
19.0
 30
0.0
 11
25.0
 21
15.30106031810604
 31
0.0
  0
LINE
  5
177
330
203
100
AcDbEntity
  8
0
 62
     5
420
      255
100
AcDbLine
 10
25.0
 20
4.698939681893963
 30
0.0
 11
25.0
 21
0.9999999999999976
 31
0.0
  0
LINE
  5
162
330
203
100
AcDbEntity
  8
0
 62
     5
420
      255
100
AcDbLine
 10
35.0
 20
19.0
 30
0.0
 11
35.0
 21
15.50110033011004
 31
0.0
  0
LINE
  5
163
330
203
100
AcDbEntity
  8
0
 62
     5
420
      255
100
AcDbLine
 10
35.0
 20
4.498899669889962
 30
0.0
 11
35.0
 21
0.9999999999999951
 31
0.0
  0
LINE
  5
14E
330
203
100
AcDbEntity
  8
0
 62
     5
420
      255
100
AcDbLine
 10
45.0
 20
18.99999999999999
 30
0.0
 11
45.0
 21
15.70114034211404
 31
0.0
  0
LINE
  5
14F
330
203
100
AcDbEntity
  8
0
 62
     5
420
      255
100
AcDbLine
 10
45.0
 20
4.298859657885961
 30
0.0
 11
45.0
 21
0.9999999999999927
 31
0.0
  0
LINE
  5
196
330
203
100
AcDbEntity
  8
0
 62
     5
420
      255
100
AcDbLine
 10
55.0
 20
18.99999999999999
 30
0.0
 11
55.0
 21
15.90118035411804
 31
0.0
  0
LINE
  5
19A
330
203
100
AcDbEntity
  8
0
 62
     5
420
      255
100
AcDbLine
 10
55.0
 20
4.098819645881959
 30
0.0
 11
55.0
 21
0.9999999999999902
 31
0.0
  0
LINE
  5
190
330
203
100
AcDbEntity
  8
0
 62
     5
420
      255
100
AcDbLine
 10
12.0
 20
18.0
 30
0.0
 11
12.0
 21
15.04100830250084
 31
0.0
  0
LINE
  5
191
330
203
100
AcDbEntity
  8
0
 62
     5
420
      255
100
AcDbLine
 10
12.0
 20
4.958991697499165
 30
0.0
 11
12.0
 21
2.0
 31
0.0
  0
LINE
  5
198
330
203
100
AcDbEntity
  8
0
 62
     5
420
      255
100
AcDbLine
 10
57.0
 20
18.0
 30
0.0
 11
57.0
 21
15.94118835651885
 31
0.0
  0
LINE
  5
19C
330
203
100
AcDbEntity
  8
0
 62
     5
420
      255
100
AcDbLine
 10
57.0
 20
4.058811643481159
 30
0.0
 11
57.0
 21
2.0
 31
0.0
  0
LINE
  5
186
330
203
100
AcDbEntity
  8
0
 62
     5
420
      255
100
AcDbLine
 10
17.0
 20
18.0
 30
0.0
 11
17.0
 21
15.14102830850284
 31
0.0
  0
LINE
  5
187
330
203
100
AcDbEntity
  8
0
 62
     5
420
      255
100
AcDbLine
 10
17.0
 20
4.858971691497164
 30
0.0
 11
17.0
 21
2.0
 31
0.0
  0
LINE
  5
172
330
203
100
AcDbEntity
  8
0
 62
     5
420
      255
100
AcDbLine
 10
27.0
 20
18.0
 30
0.0
 11
27.0
 21
15.34106832050684
 31
0.0
  0
LINE
  5
173
330
203
100
AcDbEntity
  8
0
 62
     5
420
      255
100
AcDbLine
 10
27.0
 20
4.658931679493161
 30
0.0
 11
27.0
 21
2.0
 31
0.0
  0
LINE
  5
17C
330
203
100
AcDbEntity
  8
0
 62
     5
420
      255
100
AcDbLine
 10
22.0
 20
18.0
 30
0.0
 11
22.0
 21
15.24104831450484
 31
0.0
  0
LINE
  5
17D
330
203
100
AcDbEntity
  8
0
 62
     5
420
      255
100
AcDbLine
 10
22.0
 20
4.758951685495163
 30
0.0
 11
22.0
 21
2.0
 31
0.0
  0
LINE
  5
168
330
203
100
AcDbEntity
  8
0
 62
     5
420
      255
100
AcDbLine
 10
32.0
 20
18.0
 30
0.0
 11
32.0
 21
15.44108832650884
 31
0.0
  0
LINE
  5
169
330
203
100
AcDbEntity
  8
0
 62
     5
420
      255
100
AcDbLine
 10
32.0
 20
4.558911673491162
 30
0.0
 11
32.0
 21
2.0
 31
0.0
  0
LINE
  5
154
330
203
100
AcDbEntity
  8
0
 62
     5
420
      255
100
AcDbLine
 10
42.0
 20
18.0
 30
0.0
 11
42.0
 21
15.64112833851284
 31
0.0
  0
LINE
  5
155
330
203
100
AcDbEntity
  8
0
 62
     5
420
      255
100
AcDbLine
 10
42.0
 20
4.358871661487161
 30
0.0
 11
42.0
 21
2.0
 31
0.0
  0
LINE
  5
15E
330
203
100
AcDbEntity
  8
0
 62
     5
420
      255
100
AcDbLine
 10
37.0
 20
18.0
 30
0.0
 11
37.0
 21
15.54110833251084
 31
0.0
  0
LINE
  5
15F
330
203
100
AcDbEntity
  8
0
 62
     5
420
      255
100
AcDbLine
 10
37.0
 20
4.458891667489162
 30
0.0
 11
37.0
 21
2.0
 31
0.0
  0
LINE
  5
140
330
203
100
AcDbEntity
  8
0
 62
     5
420
      255
100
AcDbLine
 10
52.0
 20
18.0
 30
0.0
 11
52.0
 21
15.84116835051684
 31
0.0
  0
LINE
  5
141
330
203
100
AcDbEntity
  8
0
 62
     5
420
      255
100
AcDbLine
 10
52.0
 20
4.158831649483158
 30
0.0
 11
52.0
 21
2.0
 31
0.0
  0
LINE
  5
14A
330
203
100
AcDbEntity
  8
0
 62
     5
420
      255
100
AcDbLine
 10
47.0
 20
18.0
 30
0.0
 11
47.0
 21
15.74114834451484
 31
0.0
  0
LINE
  5
14B
330
203
100
AcDbEntity
  8
0
 62
     5
420
      255
100
AcDbLine
 10
47.0
 20
4.258851655485159
 30
0.0
 11
47.0
 21
2.0
 31
0.0
  0
LINE
  5
199
330
203
100
AcDbEntity
  8
0
 62
     5
420
      255
100
AcDbLine
 10
58.0
 20
18.0
 30
0.0
 11
58.0
 21
15.96119235771924
 31
0.0
  0
LINE
  5
19D
330
203
100
AcDbEntity
  8
0
 62
     5
420
      255
100
AcDbLine
 10
58.0
 20
4.038807642280758
 30
0.0
 11
58.0
 21
2.0
 31
0.0
  0
LINE
  5
184
330
203
100
AcDbEntity
  8
0
 62
     5
420
      255
100
AcDbLine
 10
18.0
 20
18.0
 30
0.0
 11
18.0
 21
15.16103230970324
 31
0.0
  0
LINE
  5
185
330
203
100
AcDbEntity
  8
0
 62
     5
420
      255
100
AcDbLine
 10
18.0
 20
4.838967690296764
 30
0.0
 11
18.0
 21
2.0
 31
0.0
  0
LINE
  5
18E
330
203
100
AcDbEntity
  8
0
 62
     5
420
      255
100
AcDbLine
 10
13.0
 20
18.0
 30
0.0
 11
13.0
 21
15.06101230370124
 31
0.0
  0
LINE
  5
18F
330
203
100
AcDbEntity
  8
0
 62
     5
420
      255
100
AcDbLine
 10
13.0
 20
4.938987696298764
 30
0.0
 11
13.0
 21
2.0
 31
0.0
  0
LINE
  5
170
330
203
100
AcDbEntity
  8
0
 62
     5
420
      255
100
AcDbLine
 10
28.0
 20
18.0
 30
0.0
 11
28.0
 21
15.36107232170724
 31
0.0
  0
LINE
  5
171
330
203
100
AcDbEntity
  8
0
 62
     5
420
      255
100
AcDbLine
 10
28.0
 20
4.638927678292763
 30
0.0
 11
28.0
 21
2.0
 31
0.0
  0
LINE
  5
17A
330
203
100
AcDbEntity
  8
0
 62
     5
420
      255
100
AcDbLine
 10
23.0
 20
18.0
 30
0.0
 11
23.0
 21
15.26105231570524
 31
0.0
  0
LINE
  5
17B
330
203
100
AcDbEntity
  8
0
 62
     5
420
      255
100
AcDbLine
 10
23.0
 20
4.738947684294763
 30
0.0
 11
23.0
 21
2.0
 31
0.0
  0
LINE
  5
166
330
203
100
AcDbEntity
  8
0
 62
     5
420
      255
100
AcDbLine
 10
33.0
 20
18.0
 30
0.0
 11
33.0
 21
15.46109232770924
 31
0.0
  0
LINE
  5
167
330
203
100
AcDbEntity
  8
0
 62
     5
420
      255
100
AcDbLine
 10
33.0
 20
4.538907672290762
 30
0.0
 11
33.0
 21
2.0
 31
0.0
  0
LINE
  5
152
330
203
100
AcDbEntity
  8
0
 62
     5
420
      255
100
AcDbLine
 10
43.0
 20
18.0
 30
0.0
 11
43.0
 21
15.66113233971324
 31
0.0
  0
LINE
  5
153
330
203
100
AcDbEntity
  8
0
 62
     5
420
      255
100
AcDbLine
 10
43.0
 20
4.338867660286761
 30
0.0
 11
43.0
 21
2.0
 31
0.0
  0
LINE
  5
15C
330
203
100
AcDbEntity
  8
0
 62
     5
420
      255
100
AcDbLine
 10
38.0
 20
18.0
 30
0.0
 11
38.0
 21
15.56111233371124
 31
0.0
  0
LINE
  5
15D
330
203
100
AcDbEntity
  8
0
 62
     5
420
      255
100
AcDbLine
 10
38.0
 20
4.43888766628876
 30
0.0
 11
38.0
 21
2.0
 31
0.0
  0
LINE
  5
148
330
203
100
AcDbEntity
  8
0
 62
     5
420
      255
100
AcDbLine
 10
48.0
 20
18.0
 30
0.0
 11
48.0
 21
15.76115234571524
 31
0.0
  0
LINE
  5
149
330
203
100
AcDbEntity
  8
0
 62
     5
420
      255
100
AcDbLine
 10
48.0
 20
4.23884765428476
 30
0.0
 11
48.0
 21
2.0
 31
0.0
  0
LINE
  5
13E
330
203
100
AcDbEntity
  8
0
 62
     5
420
      255
100
AcDbLine
 10
53.0
 20
18.0
 30
0.0
 11
53.0
 21
15.86117235171724
 31
0.0
  0
LINE
  5
13F
330
203
100
AcDbEntity
  8
0
 62
     5
420
      255
100
AcDbLine
 10
53.0
 20
4.13882764828276
 30
0.0
 11
53.0
 21
2.0
 31
0.0
  0
LINE
  5
19E
330
203
100
AcDbEntity
  8
0
 62
     5
420
      255
100
AcDbLine
 10
59.0
 20
18.0
 30
0.0
 11
59.0
 21
15.98119635891964
 31
0.0
  0
LINE
  5
19F
330
203
100
AcDbEntity
  8
0
 62
     5
420
      255
100
AcDbLine
 10
59.0
 20
4.018803641080358
 30
0.0
 11
59.0
 21
1.999999999999999
 31
0.0
  0
LINE
  5
182
330
203
100
AcDbEntity
  8
0
 62
     5
420
      255
100
AcDbLine
 10
19.0
 20
18.0
 30
0.0
 11
19.0
 21
15.18103631090364
 31
0.0
  0
LINE
  5
183
330
203
100
AcDbEntity
  8
0
 62
     5
420
      255
100
AcDbLine
 10
19.0
 20
4.818963689096364
 30
0.0
 11
19.0
 21
1.999999999999999
 31
0.0
  0
LINE
  5
18C
330
203
100
AcDbEntity
  8
0
 62
     5
420
      255
100
AcDbLine
 10
14.0
 20
18.0
 30
0.0
 11
14.0
 21
15.08101630490164
 31
0.0
  0
LINE
  5
18D
330
203
100
AcDbEntity
  8
0
 62
     5
420
      255
100
AcDbLine
 10
14.0
 20
4.918983695098365
 30
0.0
 11
14.0
 21
1.999999999999999
 31
0.0
  0
LINE
  5
178
330
203
100
AcDbEntity
  8
0
 62
     5
420
      255
100
AcDbLine
 10
24.0
 20
18.0
 30
0.0
 11
24.0
 21
15.28105631690564
 31
0.0
  0
LINE
  5
179
330
203
100
AcDbEntity
  8
0
 62
     5
420
      255
100
AcDbLine
 10
24.0
 20
4.718943683094363
 30
0.0
 11
24.0
 21
1.999999999999999
 31
0.0
  0
LINE
  5
164
330
203
100
AcDbEntity
  8
0
 62
     5
420
      255
100
AcDbLine
 10
34.0
 20
18.0
 30
0.0
 11
34.0
 21
15.48109632890964
 31
0.0
  0
LINE
  5
165
330
203
100
AcDbEntity
  8
0
 62
     5
420
      255
100
AcDbLine
 10
34.0
 20
4.518903671090362
 30
0.0
 11
34.0
 21
1.999999999999999
 31
0.0
  0
LINE
  5
16E
330
203
100
AcDbEntity
  8
0
 62
     5
420
      255
100
AcDbLine
 10
29.0
 20
18.0
 30
0.0
 11
29.0
 21
15.38107632290764
 31
0.0
  0
LINE
  5
16F
330
203
100
AcDbEntity
  8
0
 62
     5
420
      255
100
AcDbLine
 10
29.0
 20
4.618923677092361
 30
0.0
 11
29.0
 21
1.999999999999999
 31
0.0
  0
LINE
  5
150
330
203
100
AcDbEntity
  8
0
 62
     5
420
      255
100
AcDbLine
 10
44.0
 20
18.0
 30
0.0
 11
44.0
 21
15.68113634091364
 31
0.0
  0
LINE
  5
151
330
203
100
AcDbEntity
  8
0
 62
     5
420
      255
100
AcDbLine
 10
44.0
 20
4.318863659086361
 30
0.0
 11
44.0
 21
1.999999999999999
 31
0.0
  0
LINE
  5
15A
330
203
100
AcDbEntity
  8
0
 62
     5
420
      255
100
AcDbLine
 10
39.0
 20
18.0
 30
0.0
 11
39.0
 21
15.58111633491164
 31
0.0
  0
LINE
  5
15B
330
203
100
AcDbEntity
  8
0
 62
     5
420
      255
100
AcDbLine
 10
39.0
 20
4.418883665088362
 30
0.0
 11
39.0
 21
1.999999999999999
 31
0.0
  0
LINE
  5
146
330
203
100
AcDbEntity
  8
0
 62
     5
420
      255
100
AcDbLine
 10
49.0
 20
18.0
 30
0.0
 11
49.0
 21
15.78115634691564
 31
0.0
  0
LINE
  5
147
330
203
100
AcDbEntity
  8
0
 62
     5
420
      255
100
AcDbLine
 10
49.0
 20
4.21884365308436
 30
0.0
 11
49.0
 21
1.999999999999999
 31
0.0
  0
LINE
  5
13B
330
203
100
AcDbEntity
  8
0
 62
     5
420
      255
100
AcDbLine
 10
54.0
 20
18.0
 30
0.0
 11
54.0
 21
15.88117635291764
 31
0.0
  0
LINE
  5
13D
330
203
100
AcDbEntity
  8
0
 62
     5
420
      255
100
AcDbLine
 10
54.0
 20
4.118823647082358
 30
0.0
 11
54.0
 21
1.999999999999999
 31
0.0
  0
ARC
  5
1A8
330
203
100
AcDbEntity
  8
0
 62
     1
420
 16711680
100
AcDbCircle
 10
80.0
 20
9.999999999999998
 30
0.0
 40
6.401280384128044
100
AcDbArc
 50
267.7080160032223
 51
92.29198399683467
  0
LINE
  5
1D0
330
203
100
AcDbEntity
  8
0
 62
     5
420
      255
100
AcDbLine
 10
42.41637786292188
 20
28.07861306485915
 30
0.0
 11
42.41578433117454
 21
28.08012779299547
 31
0.0
  0
SPLINE
  5
1D1
330
203
100
AcDbEntity
  8
0
 62
     5
420
      255
100
AcDbSpline
210
0.0
220
0.0
230
1.0
 70
     8
 71
     3
 72
     8
 73
     4
 74
     0
 42
0.000000001
 43
0.001
 40
0.0
 40
0.0
 40
0.0
 40
0.0
 40
1.0
 40
1.0
 40
1.0
 40
1.0
 10
42.41578433117454
 20
28.08012779299547
 30
0.0
 10
42.20170249499494
 20
27.56659670634598
 30
0.0
 10
42.08362213707812
 20
27.00375459249151
 30
0.0
 10
42.08362213707812
 20
26.41333333333333
 30
0.0
  0
SPLINE
  5
1D2
330
203
100
AcDbEntity
  8
0
 62
     5
420
      255
100
AcDbSpline
210
0.0
220
0.0
230
1.0
 70
     8
 71
     3
 72
     8
 73
     4
 74
     0
 42
0.000000001
 43
0.001
 40
0.0
 40
0.0
 40
0.0
 40
0.0
 40
1.0
 40
1.0
 40
1.0
 40
1.0
 10
42.08362213707812
 20
26.41333333333333
 30
0.0
 10
42.08362213707812
 20
25.82268370918675
 30
0.0
 10
42.20179385564306
 20
25.25963456876657
 30
0.0
 10
42.41553616642493
 20
24.74713403617356
 30
0.0
  0
LINE
  5
1D3
330
203
100
AcDbEntity
  8
0
 62
     5
420
      255
100
AcDbLine
 10
43.41637786292188
 20
25.08
 30
0.0
 11
43.41637786292188
 21
27.08
 31
0.0
  0
LINE
  5
1D4
330
203
100
AcDbEntity
  8
0
 62
     5
420
      255
100
AcDbLine
 10
43.41637786292188
 20
27.08
 30
0.0
 11
44.91637786292188
 21
27.08
 31
0.0
  0
SPLINE
  5
1D5
330
203
100
AcDbEntity
  8
0
 62
     5
420
      255
100
AcDbSpline
210
0.0
220
0.0
230
1.0
 70
     8
 71
     3
 72
     8
 73
     4
 74
     0
 42
0.000000001
 43
0.001
 40
0.0
 40
0.0
 40
0.0
 40
0.0
 40
1.0
 40
1.0
 40
1.0
 40
1.0
 10
45.41637786292188
 20
26.58
 30
0.0
 10
45.41637786292188
 20
26.8561423749
 30
0.0
 10
45.19252023782187
 20
27.08
 30
0.0
 10
44.91637786292188
 20
27.08
 30
0.0
  0
LINE
  5
1D6
330
203
100
AcDbEntity
  8
0
 62
     5
420
      255
100
AcDbLine
 10
45.41637786292188
 20
26.58
 30
0.0
 11
45.41637786292188
 21
25.08
 31
0.0
  0
LINE
  5
1D7
330
203
100
AcDbEntity
  8
0
 62
     5
420
      255
100
AcDbLine
 10
44.41637786292188
 20
27.08
 30
0.0
 11
44.41637786292188
 21
25.08
 31
0.0
  0
LINE
  5
1D8
330
203
100
AcDbEntity
  8
0
 62
     5
420
      255
100
AcDbLine
 10
46.41637786292188
 20
25.08
 30
0.0
 11
46.41637786292188
 21
27.08
 31
0.0
  0
LINE
  5
1D9
330
203
100
AcDbEntity
  8
0
 62
     5
420
      255
100
AcDbLine
 10
46.41637786292188
 20
27.08
 30
0.0
 11
47.91637786292188
 21
27.08
 31
0.0
  0
SPLINE
  5
1DA
330
203
100
AcDbEntity
  8
0
 62
     5
420
      255
100
AcDbSpline
210
0.0
220
0.0
230
1.0
 70
     8
 71
     3
 72
     8
 73
     4
 74
     0
 42
0.000000001
 43
0.001
 40
0.0
 40
0.0
 40
0.0
 40
0.0
 40
1.0
 40
1.0
 40
1.0
 40
1.0
 10
48.41637786292188
 20
26.58
 30
0.0
 10
48.41637786292188
 20
26.8561423749
 30
0.0
 10
48.19252023782187
 20
27.08
 30
0.0
 10
47.91637786292188
 20
27.08
 30
0.0
  0
LINE
  5
1DB
330
203
100
AcDbEntity
  8
0
 62
     5
420
      255
100
AcDbLine
 10
48.41637786292188
 20
26.58
 30
0.0
 11
48.41637786292188
 21
25.08
 31
0.0
  0
LINE
  5
1DC
330
203
100
AcDbEntity
  8
0
 62
     5
420
      255
100
AcDbLine
 10
47.41637786292188
 20
27.08
 30
0.0
 11
47.41637786292188
 21
25.08
 31
0.0
  0
LINE
  5
1DD
330
203
100
AcDbEntity
  8
0
 62
     5
420
      255
100
AcDbLine
 10
49.41695547041146
 20
24.74805360180751
 30
0.0
 11
49.41754900215879
 21
24.74653887367119
 31
0.0
  0
SPLINE
  5
1DE
330
203
100
AcDbEntity
  8
0
 62
     5
420
      255
100
AcDbSpline
210
0.0
220
0.0
230
1.0
 70
     8
 71
     3
 72
     8
 73
     4
 74
     0
 42
0.000000001
 43
0.001
 40
0.0
 40
0.0
 40
0.0
 40
0.0
 40
1.0
 40
1.0
 40
1.0
 40
1.0
 10
49.41754900215879
 20
24.74653887367119
 30
0.0
 10
49.6316308383384
 20
25.26006996032068
 30
0.0
 10
49.74971119625521
 20
25.82291207417515
 30
0.0
 10
49.74971119625521
 20
26.41333333333333
 30
0.0
  0
SPLINE
  5
1DF
330
203
100
AcDbEntity
  8
0
 62
     5
420
      255
100
AcDbSpline
210
0.0
220
0.0
230
1.0
 70
     8
 71
     3
 72
     8
 73
     4
 74
     0
 42
0.000000001
 43
0.001
 40
0.0
 40
0.0
 40
0.0
 40
0.0
 40
1.0
 40
1.0
 40
1.0
 40
1.0
 10
49.74971119625521
 20
26.41333333333333
 30
0.0
 10
49.74971119625521
 20
27.00451803713304
 30
0.0
 10
49.63132527312382
 20
27.5680522270492
 30
0.0
 10
49.41721509594029
 20
28.08092818978628
 30
0.0
  0
LINE
  5
1C0
330
203
100
AcDbEntity
  8
0
 62
     5
420
      255
100
AcDbLine
 10
31.16695547041146
 20
26.41333333333333
 30
0.0
 11
31.66695547041146
 21
25.08
 31
0.0
  0
LINE
  5
1C1
330
203
100
AcDbEntity
  8
0
 62
     5
420
      255
100
AcDbLine
 10
31.66695547041146
 20
25.08
 30
0.0
 11
32.16695547041146
 21
27.08
 31
0.0
  0
LINE
  5
1C2
330
203
100
AcDbEntity
  8
0
 62
     5
420
      255
100
AcDbLine
 10
33.16695547041146
 20
25.08
 30
0.0
 11
33.16695547041146
 21
27.08
 31
0.0
  0
LINE
  5
1C3
330
203
100
AcDbEntity
  8
0
 62
     5
420
      255
100
AcDbLine
 10
33.16695547041146
 20
27.91333333333333
 30
0.0
 11
33.16695547041146
 21
28.08
 31
0.0
  0
LINE
  5
1C4
330
203
100
AcDbEntity
  8
0
 62
     5
420
      255
100
AcDbLine
 10
35.50028880374479
 20
28.08
 30
0.0
 11
35.50028880374479
 21
25.08
 31
0.0
  0
LINE
  5
1C5
330
203
100
AcDbEntity
  8
0
 62
     5
420
      255
100
AcDbLine
 10
35.50028880374479
 20
25.08
 30
0.0
 11
34.66695547041146
 21
25.08
 31
0.0
  0
SPLINE
  5
1C6
330
203
100
AcDbEntity
  8
0
 62
     5
420
      255
100
AcDbSpline
210
0.0
220
0.0
230
1.0
 70
     8
 71
     3
 72
     8
 73
     4
 74
     0
 42
0.000000001
 43
0.001
 40
0.0
 40
0.0
 40
0.0
 40
0.0
 40
1.0
 40
1.0
 40
1.0
 40
1.0
 10
34.16695547041146
 20
25.58
 30
0.0
 10
34.16695547041146
 20
25.3038576251
 30
0.0
 10
34.39081309551146
 20
25.08
 30
0.0
 10
34.66695547041146
 20
25.08
 30
0.0
  0
LINE
  5
1C7
330
203
100
AcDbEntity
  8
0
 62
     5
420
      255
100
AcDbLine
 10
34.16695547041146
 20
25.58
 30
0.0
 11
34.16695547041146
 21
26.58
 31
0.0
  0
SPLINE
  5
1C8
330
203
100
AcDbEntity
  8
0
 62
     5
420
      255
100
AcDbSpline
210
0.0
220
0.0
230
1.0
 70
     8
 71
     3
 72
     8
 73
     4
 74
     0
 42
0.000000001
 43
0.001
 40
0.0
 40
0.0
 40
0.0
 40
0.0
 40
1.0
 40
1.0
 40
1.0
 40
1.0
 10
34.66695547041146
 20
27.08
 30
0.0
 10
34.39081309551146
 20
27.08
 30
0.0
 10
34.16695547041146
 20
26.8561423749
 30
0.0
 10
34.16695547041146
 20
26.58
 30
0.0
  0
LINE
  5
1C9
330
203
100
AcDbEntity
  8
0
 62
     5
420
      255
100
AcDbLine
 10
34.66695547041146
 20
27.08
 30
0.0
 11
35.50028880374479
 21
27.08
 31
0.0
  0
LINE
  5
1CA
330
203
100
AcDbEntity
  8
0
 62
     5
420
      255
100
AcDbLine
 10
36.50028880374479
 20
27.08
 30
0.0
 11
37.50028880374479
 21
27.08
 31
0.0
  0
LINE
  5
1CB
330
203
100
AcDbEntity
  8
0
 62
     5
420
      255
100
AcDbLine
 10
36.83362213707812
 20
28.08
 30
0.0
 11
36.83362213707812
 21
25.08
 31
0.0
  0
LINE
  5
1CC
330
203
100
AcDbEntity
  8
0
 62
     5
420
      255
100
AcDbLine
 10
38.50028880374479
 20
28.08
 30
0.0
 11
38.50028880374479
 21
25.08
 31
0.0
  0
LINE
  5
1CD
330
203
100
AcDbEntity
  8
0
 62
     5
420
      255
100
AcDbLine
 10
38.50028880374479
 20
27.08
 30
0.0
 11
39.33362213707812
 21
27.08
 31
0.0
  0
SPLINE
  5
1CE
330
203
100
AcDbEntity
  8
0
 62
     5
420
      255
100
AcDbSpline
210
0.0
220
0.0
230
1.0
 70
     8
 71
     3
 72
     8
 73
     4
 74
     0
 42
0.000000001
 43
0.001
 40
0.0
 40
0.0
 40
0.0
 40
0.0
 40
1.0
 40
1.0
 40
1.0
 40
1.0
 10
39.83362213707812
 20
26.58
 30
0.0
 10
39.83362213707812
 20
26.8561423749
 30
0.0
 10
39.60976451197813
 20
27.08
 30
0.0
 10
39.33362213707812
 20
27.08
 30
0.0
  0
LINE
  5
1CF
330
203
100
AcDbEntity
  8
0
 62
     5
420
      255
100
AcDbLine
 10
39.83362213707812
 20
26.58
 30
0.0
 11
39.83362213707812
 21
25.08
 31
0.0
  0
LINE
  5
1B0
330
203
100
AcDbEntity
  8
0
 62
     5
420
      255
100
AcDbLine
 10
22.58362213707813
 20
26.08
 30
0.0
 11
23.91695547041146
 21
26.08
 31
0.0
  0
LINE
  5
1B1
330
203
100
AcDbEntity
  8
0
 62
     5
420
      255
100
AcDbLine
 10
23.91695547041146
 20
26.08
 30
0.0
 11
23.91695547041146
 21
26.41333333333333
 31
0.0
  0
SPLINE
  5
1B2
330
203
100
AcDbEntity
  8
0
 62
     5
420
      255
100
AcDbSpline
210
0.0
220
0.0
230
1.0
 70
     8
 71
     3
 72
     8
 73
     4
 74
     0
 42
0.000000001
 43
0.001
 40
0.0
 40
0.0
 40
0.0
 40
0.0
 40
1.0
 40
1.0
 40
1.0
 40
1.0
 10
23.91695547041146
 20
26.41333333333333
 30
0.0
 10
23.91695547041146
 20
26.78152316653333
 30
0.0
 10
23.61847863694479
 20
27.08
 30
0.0
 10
23.25028880374479
 20
27.08
 30
0.0
  0
SPLINE
  5
1B3
330
203
100
AcDbEntity
  8
0
 62
     5
420
      255
100
AcDbSpline
210
0.0
220
0.0
230
1.0
 70
     8
 71
     3
 72
     8
 73
     4
 74
     0
 42
0.000000001
 43
0.001
 40
0.0
 40
0.0
 40
0.0
 40
0.0
 40
1.0
 40
1.0
 40
1.0
 40
1.0
 10
23.25028880374479
 20
27.08
 30
0.0
 10
22.8820989705448
 20
27.08
 30
0.0
 10
22.58362213707813
 20
26.78152316653333
 30
0.0
 10
22.58362213707813
 20
26.41333333333333
 30
0.0
  0
LINE
  5
1B4
330
203
100
AcDbEntity
  8
0
 62
     5
420
      255
100
AcDbLine
 10
22.58362213707813
 20
26.41333333333333
 30
0.0
 11
22.58362213707813
 21
25.58
 31
0.0
  0
SPLINE
  5
1B5
330
203
100
AcDbEntity
  8
0
 62
     5
420
      255
100
AcDbSpline
210
0.0
220
0.0
230
1.0
 70
     8
 71
     3
 72
     8
 73
     4
 74
     0
 42
0.000000001
 43
0.001
 40
0.0
 40
0.0
 40
0.0
 40
0.0
 40
1.0
 40
1.0
 40
1.0
 40
1.0
 10
22.58362213707813
 20
25.58
 30
0.0
 10
22.58362213707813
 20
25.3038576251
 30
0.0
 10
22.80747976217813
 20
25.08
 30
0.0
 10
23.08362213707813
 20
25.08
 30
0.0
  0
LINE
  5
1B6
330
203
100
AcDbEntity
  8
0
 62
     5
420
      255
100
AcDbLine
 10
23.08362213707813
 20
25.08
 30
0.0
 11
23.91695547041146
 21
25.08
 31
0.0
  0
LINE
  5
1B7
330
203
100
AcDbEntity
  8
0
 62
     5
420
      255
100
AcDbLine
 10
24.91695547041146
 20
25.08
 30
0.0
 11
24.91695547041146
 21
27.08
 31
0.0
  0
LINE
  5
1B8
330
203
100
AcDbEntity
  8
0
 62
     5
420
      255
100
AcDbLine
 10
24.91695547041146
 20
27.08
 30
0.0
 11
25.58362213707813
 21
27.08
 31
0.0
  0
SPLINE
  5
1B9
330
203
100
AcDbEntity
  8
0
 62
     5
420
      255
100
AcDbSpline
210
0.0
220
0.0
230
1.0
 70
     8
 71
     3
 72
     8
 73
     4
 74
     0
 42
0.000000001
 43
0.001
 40
0.0
 40
0.0
 40
0.0
 40
0.0
 40
1.0
 40
1.0
 40
1.0
 40
1.0
 10
25.91695547041146
 20
26.74666666666667
 30
0.0
 10
25.91695547041146
 20
26.93076158326667
 30
0.0
 10
25.76771705367813
 20
27.08
 30
0.0
 10
25.58362213707813
 20
27.08
 30
0.0
  0
LINE
  5
1BA
330
203
100
AcDbEntity
  8
0
 62
     5
420
      255
100
AcDbLine
 10
27.25028880374479
 20
25.08
 30
0.0
 11
27.25028880374479
 21
27.58
 31
0.0
  0
SPLINE
  5
1BB
330
203
100
AcDbEntity
  8
0
 62
     5
420
      255
100
AcDbSpline
210
0.0
220
0.0
230
1.0
 70
     8
 71
     3
 72
     8
 73
     4
 74
     0
 42
0.000000001
 43
0.001
 40
0.0
 40
0.0
 40
0.0
 40
0.0
 40
1.0
 40
1.0
 40
1.0
 40
1.0
 10
27.75028880374479
 20
28.08
 30
0.0
 10
27.47414642884479
 20
28.08
 30
0.0
 10
27.25028880374479
 20
27.8561423749
 30
0.0
 10
27.25028880374479
 20
27.58
 30
0.0
  0
LINE
  5
1BC
330
203
100
AcDbEntity
  8
0
 62
     5
420
      255
100
AcDbLine
 10
27.75028880374479
 20
28.08
 30
0.0
 11
27.91695547041146
 21
28.08
 31
0.0
  0
LINE
  5
1BD
330
203
100
AcDbEntity
  8
0
 62
     5
420
      255
100
AcDbLine
 10
26.91695547041146
 20
27.08
 30
0.0
 11
27.91695547041146
 21
27.08
 31
0.0
  0
LINE
  5
1BE
330
203
100
AcDbEntity
  8
0
 62
     5
420
      255
100
AcDbLine
 10
30.16695547041146
 20
27.08
 30
0.0
 11
30.66695547041146
 21
25.08
 31
0.0
  0
LINE
  5
1BF
330
203
100
AcDbEntity
  8
0
 62
     5
420
      255
100
AcDbLine
 10
30.66695547041146
 20
25.08
 30
0.0
 11
31.16695547041146
 21
26.41333333333333
 31
0.0
  0
LINE
  5
1AD
330
203
100
AcDbEntity
  8
0
 62
     5
420
      255
100
AcDbLine
 10
20.25028880374479
 20
28.08
 30
0.0
 11
20.25028880374479
 21
25.08
 31
0.0
  0
LINE
  5
1AE
330
203
100
AcDbEntity
  8
0
 62
     5
420
      255
100
AcDbLine
 10
20.25028880374479
 20
26.24666666666667
 30
0.0
 11
21.58362213707813
 21
27.08
 31
0.0
  0
LINE
  5
1AF
330
203
100
AcDbEntity
  8
0
 62
     5
420
      255
100
AcDbLine
 10
20.69062213707813
 20
26.522
 30
0.0
 11
21.58362213707813
 21
25.08
 31
0.0
  0
VIEWPORT
  5
2C0
330
1FF
100
AcDbEntity
 67
     1
  8
0
100
AcDbViewport
 10
128.5
 20
97.5
 30
0.0
 40
314.226
 41
222.18
 68
     1
 69
     1
 12
128.5
 22
97.5
 13
0.0
 23
0.0
 14
10.0
 24
10.0
 15
10.0
 25
10.0
 16
0.0
 26
0.0
 36
1.0
 17
0.0
 27
0.0
 37
0.0
 42
50.0
 43
0.0
 44
0.0
 45
222.18
 50
0.0
 51
0.0
 72
   100
 90
   557152
  1

281
     0
 71
     1
 74
     0
110
0.0
120
0.0
130
0.0
111
1.0
121
0.0
131
0.0
112
0.0
122
1.0
132
0.0
 79
     0
146
0.0
170
     0
 61
     5
292
     1
282
     1
141
0.0
142
0.0
 63
   256
361
2C1
  0
ENDSEC
  0
SECTION
  2
OBJECTS
  0
DICTIONARY
  5
1F1
330
0
100
AcDbDictionary
281
     1
  3
ACAD_DETAILVIEWSTYLE
350
2C9
  3
ACAD_GROUP
350
1F2
  3
ACAD_LAYOUT
350
1FE
  3
ACAD_MATERIAL
350
227
  3
ACAD_MLEADERSTYLE
350
24F
  3
ACAD_MLINESTYLE
350
1FB
  3
ACAD_PLOTSETTINGS
350
1FD
  3
ACAD_PLOTSTYLENAME
350
1F3
  3
ACAD_SCALELIST
350
22B
  3
ACAD_SECTIONVIEWSTYLE
350
2CA
  3
ACAD_TABLESTYLE
350
24D
  3
ACAD_VISUALSTYLE
350
20E
  3
AcDbVariableDictionary
350
2C2
  3
ACDB_RECOMPOSE_DATA
350
2C6
  3
QCAD_OBJECTS
350
253
  0
SUN
  5
251
330
20D
100
AcDbSun
 90
        1
290
     0
 63
     7
421
 16777215
 40
1.0
291
     1
 91
  2455826
 92
 54000000
292
     0
 70
     2
 71
   256
280
     1
  0
SUN
  5
2C1
330
2C0
100
AcDbSun
 90
        1
290
     0
 63
     7
421
 16777215
 40
1.0
291
     1
 91
  2455826
 92
 54000000
292
     0
 70
     2
 71
   256
280
     1
  0
DICTIONARY
  5
2C9
102
{ACAD_REACTORS
330
1F1
102
}
330
1F1
100
AcDbDictionary
281
     1
  0
DICTIONARY
  5
1F2
102
{ACAD_REACTORS
330
1F1
102
}
330
1F1
100
AcDbDictionary
281
     1
  0
DICTIONARY
  5
1FE
102
{ACAD_REACTORS
330
1F1
102
}
330
1F1
100
AcDbDictionary
281
     1
  3
Layout1
350
202
  3
Model
350
206
  0
DICTIONARY
  5
227
102
{ACAD_REACTORS
330
1F1
102
}
330
1F1
100
AcDbDictionary
281
     1
  3
ByBlock
350
229
  3
ByLayer
350
228
  3
Global
350
22A
  0
DICTIONARY
  5
24F
102
{ACAD_REACTORS
330
1F1
102
}
330
1F1
100
AcDbDictionary
281
     1
  3
Standard
350
250
  0
DICTIONARY
  5
1FB
102
{ACAD_REACTORS
330
1F1
102
}
330
1F1
100
AcDbDictionary
281
     1
  3
Standard
350
1FC
  0
DICTIONARY
  5
1FD
102
{ACAD_REACTORS
330
1F1
102
}
330
1F1
100
AcDbDictionary
281
     1
  0
ACDBDICTIONARYWDFLT
  5
1F3
102
{ACAD_REACTORS
330
1F1
102
}
330
1F1
100
AcDbDictionary
281
     1
  3
Normal
350
1F4
100
AcDbDictionaryWithDefault
340
1F4
  0
DICTIONARY
  5
22B
102
{ACAD_REACTORS
330
1F1
102
}
330
1F1
100
AcDbDictionary
281
     1
  3
A0
350
22C
  3
A1
350
22D
  3
A2
350
22E
  3
A3
350
22F
  3
A4
350
230
  3
A5
350
231
  3
A6
350
232
  3
A7
350
233
  3
A8
350
234
  3
A9
350
235
  3
B0
350
236
  3
B1
350
237
  3
B2
350
238
  3
B3
350
239
  3
B4
350
23A
  3
B5
350
23B
  3
B6
350
23C
  3
B7
350
23D
  3
B8
350
23E
  3
B9
350
23F
  3
C0
350
240
  3
C1
350
241
  3
C2
350
242
  3
C3
350
243
  3
C4
350
244
  3
C5
350
245
  3
C6
350
246
  3
C7
350
247
  3
C8
350
248
  3
C9
350
249
  3
D0
350
24A
  3
D1
350
24B
  3
D2
350
24C
  0
DICTIONARY
  5
2CA
102
{ACAD_REACTORS
330
1F1
102
}
330
1F1
100
AcDbDictionary
281
     1
  0
DICTIONARY
  5
24D
102
{ACAD_REACTORS
330
1F1
102
}
330
1F1
100
AcDbDictionary
281
     1
  3
Standard
350
24E
  0
DICTIONARY
  5
20E
102
{ACAD_REACTORS
330
1F1
102
}
330
1F1
100
AcDbDictionary
281
     1
  3
2dWireframe
350
213
  3
Basic
350
216
  3
Brighten
350
21A
  3
ColorChange
350
21E
  3
Conceptual
350
218
  3
Dim
350
219
  3
EdgeColorOff
350
221
  3
Facepattern
350
21D
  3
Flat
350
20F
  3
FlatWithEdges
350
210
  3
Gouraud
350
211
  3
GouraudWithEdges
350
212
  3
Hidden
350
215
  3
JitterOff
350
21F
  3
Linepattern
350
21C
  3
OverhangOff
350
220
  3
Realistic
350
217
  3
Shaded
350
226
  3
Shaded with edges
350
225
  3
Shades of Gray
350
222
  3
Sketchy
350
223
  3
Thicken
350
21B
  3
Wireframe
350
214
  3
X-Ray
350
224
  0
DICTIONARY
  5
2C2
102
{ACAD_REACTORS
330
1F1
102
}
330
1F1
100
AcDbDictionary
281
     1
  3
CANNOSCALE
350
2C3
  3
CMLEADERSTYLE
350
2C8
  3
CTABLESTYLE
350
2C7
  0
XRECORD
  5
2C6
102
{ACAD_REACTORS
330
1F1
102
}
330
1F1
100
AcDbXrecord
280
     1
 90
        1
330
24E
  0
DICTIONARY
  5
253
102
{ACAD_REACTORS
330
1F1
102
}
330
1F1
100
AcDbDictionary
281
     1
  3
ColorSettings/BackgroundColor
350
255
  3
ColorSettings/ColorMode
350
256
  3
Grid/DisplayGrid00
350
257
  3
Grid/DisplayGrid01
350
258
  3
Grid/DisplayGrid02
350
259
  3
Grid/DisplayGrid03
350
25A
  3
Grid/GridSpacingX00
350
25B
  3
Grid/GridSpacingX01
350
25C
  3
Grid/GridSpacingX02
350
25D
  3
Grid/GridSpacingX03
350
25E
  3
Grid/GridSpacingY00
350
25F
  3
Grid/GridSpacingY01
350
260
  3
Grid/GridSpacingY02
350
261
  3
Grid/GridSpacingY03
350
262
  3
Grid/IsometricGrid00
350
263
  3
Grid/IsometricGrid01
350
264
  3
Grid/IsometricGrid02
350
265
  3
Grid/IsometricGrid03
350
266
  3
Grid/IsometricProjection00
350
267
  3
Grid/IsometricProjection01
350
268
  3
Grid/IsometricProjection02
350
269
  3
Grid/IsometricProjection03
350
26A
  3
Grid/MetaGridSpacingX00
350
26B
  3
Grid/MetaGridSpacingX01
350
26C
  3
Grid/MetaGridSpacingX02
350
26D
  3
Grid/MetaGridSpacingX03
350
26E
  3
Grid/MetaGridSpacingY00
350
26F
  3
Grid/MetaGridSpacingY01
350
270
  3
Grid/MetaGridSpacingY02
350
271
  3
Grid/MetaGridSpacingY03
350
272
  3
MultiPageSettings/Columns
350
273
  3
MultiPageSettings/GlueMarginsBottom
350
274
  3
MultiPageSettings/GlueMarginsLeft
350
275
  3
MultiPageSettings/GlueMarginsRight
350
276
  3
MultiPageSettings/GlueMarginsTop
350
277
  3
MultiPageSettings/PrintCropMarks
350
278
  3
MultiPageSettings/Rows
350
279
  3
PageSettings/OffsetX
350
27A
  3
PageSettings/OffsetY
350
27B
  3
PageSettings/PageOrientation
350
27C
  3
PageSettings/PaperHeight
350
27D
  3
PageSettings/PaperWidth
350
27E
  3
PageSettings/Scale
350
27F
  3
PageSettings/ShowPaperBorders
350
280
  3
QCADVersion
350
254
  3
UnitSettings/PaperUnit
350
281
  3
ViewportCenter
350
282
  3
ViewportHeight
350
283
  3
ViewportWidth
350
284
  0
LAYOUT
  5
202
102
{ACAD_REACTORS
330
1FE
102
}
330
1FE
100
AcDbPlotSettings
  1

  2
none_device
  4
ISO_A4_(210.00_x_297.00_MM)
  6

 40
7.5
 41
20.0
 42
7.5
 43
20.0
 44
210.0
 45
297.0
 46
0.0
 47
0.0
 48
0.0
 49
0.0
140
0.0
141
0.0
142
1.0
143
1.0
 70
   688
 72
     1
 73
     1
 74
     5
  7

 75
    16
 76
     0
 77
     2
 78
   300
147
1.0
148
0.0
149
0.0
100
AcDbLayout
  1
Layout1
 70
     1
 71
     0
 10
-20.0
 20
-7.5
 11
277.0
 21
202.5
 12
0.0
 22
0.0
 32
0.0
 14
0.0
 24
0.0
 34
0.0
 15
0.0
 25
0.0
 35
0.0
146
0.0
 13
0.0
 23
0.0
 33
0.0
 16
1.0
 26
0.0
 36
0.0
 17
0.0
 27
1.0
 37
0.0
 76
     0
330
1FF
331
2C0
  0
LAYOUT
  5
206
102
{ACAD_REACTORS
330
1FE
102
}
330
1FE
100
AcDbPlotSettings
  1

  2
none_device
  4
Letter_(8.50_x_11.00_Inches)
  6

 40
6.35
 41
6.35
 42
6.35000508
 43
6.35000508
 44
215.9
 45
279.4
 46
0.0
 47
0.0
 48
0.0
 49
0.0
140
0.0
141
0.0
142
1.0
143
1.0
 70
  1712
 72
     0
 73
     0
 74
     0
  7

 75
     0
 76
     0
 77
     2
 78
   300
147
1.0
148
0.0
149
0.0
100
AcDbLayout
  1
Model
 70
     1
 71
     0
 10
0.0
 20
0.0
 11
12.0
 21
9.0
 12
0.0
 22
0.0
 32
0.0
 14
1.000000000000000E+20
 24
1.000000000000000E+20
 34
1.000000000000000E+20
 15
-1.000000000000000E+20
 25
-1.000000000000000E+20
 35
-1.000000000000000E+20
146
0.0
 13
0.0
 23
0.0
 33
0.0
 16
1.0
 26
0.0
 36
0.0
 17
0.0
 27
1.0
 37
0.0
 76
     0
330
203
331
20D
  0
MATERIAL
  5
229
102
{ACAD_REACTORS
330
227
102
}
330
227
100
AcDbMaterial
  1
ByBlock
 72
     1
 94
      127
  0
MATERIAL
  5
228
102
{ACAD_REACTORS
330
227
102
}
330
227
100
AcDbMaterial
  1
ByLayer
 72
     1
 94
      127
  0
MATERIAL
  5
22A
102
{ACAD_REACTORS
330
227
102
}
330
227
100
AcDbMaterial
  1
Global
 72
     1
 94
      127
  0
MLEADERSTYLE
  5
250
102
{ACAD_REACTORS
330
24F
102
}
330
24F
100
AcDbMLeaderStyle
179
     2
170
     2
171
     1
172
     0
 90
        2
 40
0.0
 41
0.0
173
     1
 91
-1056964608
340
1F8
 92
       -2
290
     1
 42
0.09
291
     1
 43
0.36
  3
Standard
341
0
 44
0.18
300

342
1F6
174
     1
178
     6
175
     1
176
     0
 93
-1056964608
 45
0.18
292
     0
297
     0
 46
0.18
343
0
 94
-1056964608
 47
1.0
 49
1.0
140
1.0
293
     1
141
0.0
294
     1
177
     0
142
1.0
295
     0
296
     0
143
0.125
271
     0
272
     9
273
     9
298
     0
  0
MLINESTYLE
  5
1FC
102
{ACAD_REACTORS
330
1FB
102
}
330
1FB
100
AcDbMlineStyle
  2
Standard
 70
     0
  3

 62
   256
 51
90.0
 52
90.0
 71
     2
 49
0.5
 62
   256
  6
BYLAYER
 49
-0.5
 62
   256
  6
BYLAYER
  0
ACDBPLACEHOLDER
  5
1F4
102
{ACAD_REACTORS
330
1F3
102
}
330
1F3
  0
SCALE
  5
22C
102
{ACAD_REACTORS
330
22B
102
}
330
22B
100
AcDbScale
 70
     0
300
1:1
140
1.0
141
1.0
290
     1
  0
SCALE
  5
22D
102
{ACAD_REACTORS
330
22B
102
}
330
22B
100
AcDbScale
 70
     0
300
1:2
140
1.0
141
2.0
290
     0
  0
SCALE
  5
22E
102
{ACAD_REACTORS
330
22B
102
}
330
22B
100
AcDbScale
 70
     0
300
1:4
140
1.0
141
4.0
290
     0
  0
SCALE
  5
22F
102
{ACAD_REACTORS
330
22B
102
}
330
22B
100
AcDbScale
 70
     0
300
1:5
140
1.0
141
5.0
290
     0
  0
SCALE
  5
230
102
{ACAD_REACTORS
330
22B
102
}
330
22B
100
AcDbScale
 70
     0
300
1:8
140
1.0
141
8.0
290
     0
  0
SCALE
  5
231
102
{ACAD_REACTORS
330
22B
102
}
330
22B
100
AcDbScale
 70
     0
300
1:10
140
1.0
141
10.0
290
     0
  0
SCALE
  5
232
102
{ACAD_REACTORS
330
22B
102
}
330
22B
100
AcDbScale
 70
     0
300
1:16
140
1.0
141
16.0
290
     0
  0
SCALE
  5
233
102
{ACAD_REACTORS
330
22B
102
}
330
22B
100
AcDbScale
 70
     0
300
1:20
140
1.0
141
20.0
290
     0
  0
SCALE
  5
234
102
{ACAD_REACTORS
330
22B
102
}
330
22B
100
AcDbScale
 70
     0
300
1:30
140
1.0
141
30.0
290
     0
  0
SCALE
  5
235
102
{ACAD_REACTORS
330
22B
102
}
330
22B
100
AcDbScale
 70
     0
300
1:40
140
1.0
141
40.0
290
     0
  0
SCALE
  5
236
102
{ACAD_REACTORS
330
22B
102
}
330
22B
100
AcDbScale
 70
     0
300
1:50
140
1.0
141
50.0
290
     0
  0
SCALE
  5
237
102
{ACAD_REACTORS
330
22B
102
}
330
22B
100
AcDbScale
 70
     0
300
1:100
140
1.0
141
100.0
290
     0
  0
SCALE
  5
238
102
{ACAD_REACTORS
330
22B
102
}
330
22B
100
AcDbScale
 70
     0
300
2:1
140
2.0
141
1.0
290
     0
  0
SCALE
  5
239
102
{ACAD_REACTORS
330
22B
102
}
330
22B
100
AcDbScale
 70
     0
300
4:1
140
4.0
141
1.0
290
     0
  0
SCALE
  5
23A
102
{ACAD_REACTORS
330
22B
102
}
330
22B
100
AcDbScale
 70
     0
300
8:1
140
8.0
141
1.0
290
     0
  0
SCALE
  5
23B
102
{ACAD_REACTORS
330
22B
102
}
330
22B
100
AcDbScale
 70
     0
300
10:1
140
10.0
141
1.0
290
     0
  0
SCALE
  5
23C
102
{ACAD_REACTORS
330
22B
102
}
330
22B
100
AcDbScale
 70
     0
300
100:1
140
100.0
141
1.0
290
     0
  0
SCALE
  5
23D
102
{ACAD_REACTORS
330
22B
102
}
330
22B
100
AcDbScale
 70
     0
300
1/128" = 1'-0"
140
0.0078125
141
12.0
290
     0
  0
SCALE
  5
23E
102
{ACAD_REACTORS
330
22B
102
}
330
22B
100
AcDbScale
 70
     0
300
1/64" = 1'-0"
140
0.015625
141
12.0
290
     0
  0
SCALE
  5
23F
102
{ACAD_REACTORS
330
22B
102
}
330
22B
100
AcDbScale
 70
     0
300
1/32" = 1'-0"
140
0.03125
141
12.0
290
     0
  0
SCALE
  5
240
102
{ACAD_REACTORS
330
22B
102
}
330
22B
100
AcDbScale
 70
     0
300
1/16" = 1'-0"
140
0.0625
141
12.0
290
     0
  0
SCALE
  5
241
102
{ACAD_REACTORS
330
22B
102
}
330
22B
100
AcDbScale
 70
     0
300
3/32" = 1'-0"
140
0.09375
141
12.0
290
     0
  0
SCALE
  5
242
102
{ACAD_REACTORS
330
22B
102
}
330
22B
100
AcDbScale
 70
     0
300
1/8" = 1'-0"
140
0.125
141
12.0
290
     0
  0
SCALE
  5
243
102
{ACAD_REACTORS
330
22B
102
}
330
22B
100
AcDbScale
 70
     0
300
3/16" = 1'-0"
140
0.1875
141
12.0
290
     0
  0
SCALE
  5
244
102
{ACAD_REACTORS
330
22B
102
}
330
22B
100
AcDbScale
 70
     0
300
1/4" = 1'-0"
140
0.25
141
12.0
290
     0
  0
SCALE
  5
245
102
{ACAD_REACTORS
330
22B
102
}
330
22B
100
AcDbScale
 70
     0
300
3/8" = 1'-0"
140
0.375
141
12.0
290
     0
  0
SCALE
  5
246
102
{ACAD_REACTORS
330
22B
102
}
330
22B
100
AcDbScale
 70
     0
300
1/2" = 1'-0"
140
0.5
141
12.0
290
     0
  0
SCALE
  5
247
102
{ACAD_REACTORS
330
22B
102
}
330
22B
100
AcDbScale
 70
     0
300
3/4" = 1'-0"
140
0.75
141
12.0
290
     0
  0
SCALE
  5
248
102
{ACAD_REACTORS
330
22B
102
}
330
22B
100
AcDbScale
 70
     0
300
1" = 1'-0"
140
1.0
141
12.0
290
     0
  0
SCALE
  5
249
102
{ACAD_REACTORS
330
22B
102
}
330
22B
100
AcDbScale
 70
     0
300
1-1/2" = 1'-0"
140
1.5
141
12.0
290
     0
  0
SCALE
  5
24A
102
{ACAD_REACTORS
330
22B
102
}
330
22B
100
AcDbScale
 70
     0
300
3" = 1'-0"
140
3.0
141
12.0
290
     0
  0
SCALE
  5
24B
102
{ACAD_REACTORS
330
22B
102
}
330
22B
100
AcDbScale
 70
     0
300
6" = 1'-0"
140
6.0
141
12.0
290
     0
  0
SCALE
  5
24C
102
{ACAD_REACTORS
330
22B
102
}
330
22B
100
AcDbScale
 70
     0
300
1'-0" = 1'-0"
140
12.0
141
12.0
290
     0
  0
TABLESTYLE
  5
24E
102
{ACAD_REACTORS
330
24D
102
}
102
{ACAD_XDICTIONARY
360
2C4
102
}
330
24D
100
AcDbTableStyle
  3
Standard
 70
     0
 71
     0
 40
0.06
 41
0.06
280
     0
281
     0
  7
Standard
140
0.18
170
     2
 62
     0
 63
   257
283
     0
 90
        4
 91
        0
  1

274
    -2
284
     1
 64
     0
275
    -2
285
     1
 65
     0
276
    -2
286
     1
 66
     0
277
    -2
287
     1
 67
     0
278
    -2
288
     1
 68
     0
279
    -2
289
     1
 69
     0
  7
Standard
140
0.25
170
     5
 62
     0
 63
   257
283
     0
 90
        4
 91
        0
  1

274
    -2
284
     1
 64
     0
275
    -2
285
     1
 65
     0
276
    -2
286
     1
 66
     0
277
    -2
287
     1
 67
     0
278
    -2
288
     1
 68
     0
279
    -2
289
     1
 69
     0
  7
Standard
140
0.18
170
     5
 62
     0
 63
   257
283
     0
 90
        4
 91
        0
  1

274
    -2
284
     1
 64
     0
275
    -2
285
     1
 65
     0
276
    -2
286
     1
 66
     0
277
    -2
287
     1
 67
     0
278
    -2
288
     1
 68
     0
279
    -2
289
     1
 69
     0
  0
VISUALSTYLE
  5
213
102
{ACAD_REACTORS
330
20E
102
}
330
20E
100
AcDbVisualStyle
  2
2dWireframe
 70
     4
177
     3
291
     0
 70
    58
 90
        0
176
     1
 90
        2
176
     1
 90
        0
176
     1
 90
        0
176
     1
 40
0.6
176
     1
 40
30.0
176
     1
 62
     7
420
 16777215
176
     1
 90
        1
176
     1
 90
        4
176
     1
 62
     7
176
     1
 62
   257
176
     1
 90
        1
176
     1
 90
        1
176
     1
 40
1.0
176
     1
 90
        0
176
     1
 62
   257
176
     1
 40
1.0
176
     1
 90
        1
176
     1
 90
        6
176
     1
 90
        2
176
     1
 62
     7
176
     1
 90
        5
176
     1
 90
        0
176
     1
 90
        0
176
     1
290
     0
176
     1
 90
        1
176
     1
 40
0.0
176
     1
 90
        0
176
     1
290
     1
176
     1
290
     1
176
     1
290
     0
176
     1
290
     0
176
     1
290
     0
176
     1
290
     0
176
     1
290
     0
176
     1
290
     0
176
     1
290
     0
176
     1
 90
       50
176
     1
 40
0.0
176
     1
 40
1.0
176
     1
 90
        0
176
     1
 62
   178
420
        0
176
     1
 90
       50
176
     1
 90
        3
176
     1
 62
     5
420
      255
176
     1
290
     0
176
     1
 90
       50
176
     1
 90
       50
176
     1
 90
       50
176
     1
290
     0
176
     1
 90
       50
176
     1
 62
   256
176
     0
 40
1.0
176
     0
 90
        2
176
     1
  1
strokes_ogs.tif
176
     1
290
     0
176
     1
 40
1.0
176
     1
 40
1.0
176
     1
  0
VISUALSTYLE
  5
216
102
{ACAD_REACTORS
330
20E
102
}
330
20E
100
AcDbVisualStyle
  2
Basic
 70
     7
177
     3
291
     1
 70
    58
 90
        1
176
     1
 90
        0
176
     1
 90
        1
176
     1
 90
        0
176
     1
 40
0.6
176
     1
 40
30.0
176
     1
 62
     7
420
 16777215
176
     1
 90
        0
176
     1
 90
        4
176
     1
 62
     7
176
     1
 62
   257
176
     1
 90
        1
176
     1
 90
        1
176
     1
 40
1.0
176
     1
 90
        8
176
     1
 62
     7
176
     1
 40
1.0
176
     1
 90
        1
176
     1
 90
        6
176
     1
 90
        2
176
     1
 62
     7
176
     1
 90
        5
176
     1
 90
        0
176
     1
 90
        0
176
     1
290
     0
176
     1
 90
        1
176
     1
 40
0.0
176
     1
 90
        0
176
     1
290
     0
176
     1
290
     1
176
     1
290
     1
176
     1
290
     0
176
     1
290
     0
176
     1
290
     0
176
     1
290
     0
176
     1
290
     0
176
     1
290
     0
176
     1
 90
       50
176
     1
 40
0.0
176
     1
 40
1.0
176
     1
 90
        0
176
     1
 62
   178
420
        0
176
     1
 90
       50
176
     1
 90
        3
176
     1
 62
     5
420
      255
176
     1
290
     0
176
     1
 90
       50
176
     1
 90
       50
176
     1
 90
       50
176
     1
290
     0
176
     1
 90
       50
176
     1
 62
   256
176
     0
 40
1.0
176
     0
 90
        2
176
     1
  1
strokes_ogs.tif
176
     1
290
     0
176
     1
 40
1.0
176
     1
 40
1.0
176
     1
  0
VISUALSTYLE
  5
21A
102
{ACAD_REACTORS
330
20E
102
}
330
20E
100
AcDbVisualStyle
  2
Brighten
 70
    12
177
     3
291
     1
 70
    58
 90
        2
176
     1
 90
        2
176
     1
 90
        0
176
     1
 90
        0
176
     1
 40
0.6
176
     1
 40
30.0
176
     1
 62
     7
420
 16777215
176
     1
 90
        1
176
     1
 90
        4
176
     1
 62
     7
176
     1
 62
   257
176
     1
 90
        1
176
     1
 90
        1
176
     1
 40
1.0
176
     1
 90
        8
176
     1
 62
     7
176
     1
 40
1.0
176
     1
 90
        1
176
     1
 90
        6
176
     1
 90
        2
176
     1
 62
     7
176
     1
 90
        5
176
     1
 90
        0
176
     1
 90
        0
176
     1
290
     0
176
     1
 90
        1
176
     1
 40
50.0
176
     1
 90
        0
176
     1
290
     0
176
     1
290
     1
176
     1
290
     1
176
     1
290
     0
176
     1
290
     0
176
     1
290
     0
176
     1
290
     0
176
     1
290
     0
176
     1
290
     0
176
     1
 90
       50
176
     1
 40
0.0
176
     1
 40
1.0
176
     1
 90
        0
176
     1
 62
   178
420
        0
176
     1
 90
       50
176
     1
 90
        3
176
     1
 62
     5
420
      255
176
     1
290
     0
176
     1
 90
       50
176
     1
 90
       50
176
     1
 90
       50
176
     1
290
     0
176
     1
 90
       50
176
     1
 62
   256
176
     0
 40
1.0
176
     0
 90
        2
176
     1
  1
strokes_ogs.tif
176
     1
290
     0
176
     1
 40
1.0
176
     1
 40
1.0
176
     1
  0
VISUALSTYLE
  5
21E
102
{ACAD_REACTORS
330
20E
102
}
330
20E
100
AcDbVisualStyle
  2
ColorChange
 70
    16
177
     3
291
     1
 70
    58
 90
        2
176
     1
 90
        2
176
     1
 90
        3
176
     1
 90
        0
176
     1
 40
0.6
176
     1
 40
30.0
176
     1
 62
     8
420
  8421504
176
     1
 90
        1
176
     1
 90
        4
176
     1
 62
     7
176
     1
 62
   257
176
     1
 90
        1
176
     1
 90
        1
176
     1
 40
1.0
176
     1
 90
        8
176
     1
 62
     8
420
  8421504
176
     1
 40
1.0
176
     1
 90
        1
176
     1
 90
        6
176
     1
 90
        2
176
     1
 62
     7
176
     1
 90
        5
176
     1
 90
        0
176
     1
 90
        0
176
     1
290
     0
176
     1
 90
        1
176
     1
 40
0.0
176
     1
 90
        0
176
     1
290
     0
176
     1
290
     1
176
     1
290
     1
176
     1
290
     0
176
     1
290
     0
176
     1
290
     0
176
     1
290
     0
176
     1
290
     0
176
     1
290
     0
176
     1
 90
       50
176
     1
 40
0.0
176
     1
 40
1.0
176
     1
 90
        0
176
     1
 62
   178
420
        0
176
     1
 90
       50
176
     1
 90
        3
176
     1
 62
     5
420
      255
176
     1
290
     0
176
     1
 90
       50
176
     1
 90
       50
176
     1
 90
       50
176
     1
290
     0
176
     1
 90
       50
176
     1
 62
   256
176
     0
 40
1.0
176
     0
 90
        2
176
     1
  1
strokes_ogs.tif
176
     1
290
     0
176
     1
 40
1.0
176
     1
 40
1.0
176
     1
  0
VISUALSTYLE
  5
218
102
{ACAD_REACTORS
330
20E
102
}
330
20E
100
AcDbVisualStyle
  2
Conceptual
 70
     9
177
     3
291
     0
 70
    58
 90
        3
176
     1
 90
        2
176
     1
 90
        0
176
     1
 90
        0
176
     1
 40
0.6
176
     1
 40
30.0
176
     1
 62
     7
420
 16777215
176
     1
 90
        2
176
     1
 90
        2
176
     1
 62
     7
176
     1
 62
   257
176
     1
 90
        1
176
     1
 90
        1
176
     1
 40
179.0
176
     1
 90
        8
176
     1
 62
     7
176
     1
 40
1.0
176
     1
 90
        1
176
     1
 90
        6
176
     1
 90
        2
176
     1
 62
     7
176
     1
 90
        3
176
     1
 90
        0
176
     1
 90
        0
176
     1
290
     0
176
     1
 90
        1
176
     1
 40
0.0
176
     1
 90
        0
176
     1
290
     0
176
     1
290
     1
176
     1
290
     1
176
     1
290
     0
176
     1
290
     0
176
     1
290
     0
176
     1
290
     0
176
     1
290
     0
176
     1
290
     0
176
     1
 90
       50
176
     1
 40
0.0
176
     1
 40
1.0
176
     1
 90
        0
176
     1
 62
   178
420
        0
176
     1
 90
       50
176
     1
 90
        3
176
     1
 62
     5
420
      255
176
     1
290
     0
176
     1
 90
       50
176
     1
 90
       50
176
     1
 90
       50
176
     1
290
     0
176
     1
 90
       50
176
     1
 62
   256
176
     0
 40
1.0
176
     0
 90
        2
176
     1
  1
strokes_ogs.tif
176
     1
290
     0
176
     1
 40
1.0
176
     1
 40
1.0
176
     1
  0
VISUALSTYLE
  5
219
102
{ACAD_REACTORS
330
20E
102
}
330
20E
100
AcDbVisualStyle
  2
Dim
 70
    11
177
     3
291
     1
 70
    58
 90
        2
176
     1
 90
        2
176
     1
 90
        0
176
     1
 90
        0
176
     1
 40
0.6
176
     1
 40
30.0
176
     1
 62
     7
420
 16777215
176
     1
 90
        1
176
     1
 90
        4
176
     1
 62
     7
176
     1
 62
   257
176
     1
 90
        1
176
     1
 90
        1
176
     1
 40
1.0
176
     1
 90
        8
176
     1
 62
     7
176
     1
 40
1.0
176
     1
 90
        1
176
     1
 90
        6
176
     1
 90
        2
176
     1
 62
     7
176
     1
 90
        5
176
     1
 90
        0
176
     1
 90
        0
176
     1
290
     0
176
     1
 90
        1
176
     1
 40
-50.0
176
     1
 90
        0
176
     1
290
     0
176
     1
290
     1
176
     1
290
     1
176
     1
290
     0
176
     1
290
     0
176
     1
290
     0
176
     1
290
     0
176
     1
290
     0
176
     1
290
     0
176
     1
 90
       50
176
     1
 40
0.0
176
     1
 40
1.0
176
     1
 90
        0
176
     1
 62
   178
420
        0
176
     1
 90
       50
176
     1
 90
        3
176
     1
 62
     5
420
      255
176
     1
290
     0
176
     1
 90
       50
176
     1
 90
       50
176
     1
 90
       50
176
     1
290
     0
176
     1
 90
       50
176
     1
 62
   256
176
     0
 40
1.0
176
     0
 90
        2
176
     1
  1
strokes_ogs.tif
176
     1
290
     0
176
     1
 40
1.0
176
     1
 40
1.0
176
     1
  0
VISUALSTYLE
  5
221
102
{ACAD_REACTORS
330
20E
102
}
330
20E
100
AcDbVisualStyle
  2
EdgeColorOff
 70
    22
177
     3
291
     1
 70
    58
 90
        2
176
     0
 90
        2
176
     0
 90
        0
176
     0
 90
        0
176
     0
 40
0.6
176
     0
 40
30.0
176
     0
 62
     7
420
 16777215
176
     0
 90
        1
176
     0
 90
        4
176
     0
 62
     7
176
     0
 62
   257
176
     0
 90
        1
176
     0
 90
        1
176
     0
 40
1.0
176
     0
 90
        8
176
     2
 62
     7
176
     0
 40
1.0
176
     0
 90
        1
176
     0
 90
        6
176
     0
 90
        2
176
     0
 62
     7
176
     0
 90
        5
176
     0
 90
        0
176
     0
 90
        0
176
     0
290
     0
176
     0
 90
        1
176
     0
 40
0.0
176
     0
 90
        0
176
     0
290
     0
176
     0
290
     1
176
     0
290
     1
176
     0
290
     0
176
     0
290
     0
176
     0
290
     0
176
     0
290
     0
176
     0
290
     0
176
     0
290
     0
176
     0
 90
       50
176
     0
 40
0.0
176
     0
 40
1.0
176
     0
 90
        0
176
     0
 62
   178
420
        0
176
     0
 90
       50
176
     0
 90
        3
176
     0
 62
     5
420
      255
176
     0
290
     0
176
     0
 90
       50
176
     0
 90
       50
176
     0
 90
       50
176
     0
290
     0
176
     0
 90
       50
176
     0
 62
   256
176
     0
 40
1.0
176
     0
 90
        2
176
     0
  1
strokes_ogs.tif
176
     0
290
     0
176
     0
 40
1.0
176
     0
 40
1.0
176
     0
  0
VISUALSTYLE
  5
21D
102
{ACAD_REACTORS
330
20E
102
}
330
20E
100
AcDbVisualStyle
  2
Facepattern
 70
    15
177
     3
291
     1
 70
    58
 90
        2
176
     1
 90
        2
176
     1
 90
        0
176
     1
 90
        0
176
     1
 40
0.6
176
     1
 40
30.0
176
     1
 62
     7
420
 16777215
176
     1
 90
        1
176
     1
 90
        4
176
     1
 62
     7
176
     1
 62
   257
176
     1
 90
        1
176
     1
 90
        1
176
     1
 40
1.0
176
     1
 90
        8
176
     1
 62
     7
176
     1
 40
1.0
176
     1
 90
        1
176
     1
 90
        6
176
     1
 90
        2
176
     1
 62
     7
176
     1
 90
        5
176
     1
 90
        0
176
     1
 90
        0
176
     1
290
     0
176
     1
 90
        1
176
     1
 40
0.0
176
     1
 90
        0
176
     1
290
     0
176
     1
290
     1
176
     1
290
     1
176
     1
290
     0
176
     1
290
     0
176
     1
290
     0
176
     1
290
     0
176
     1
290
     0
176
     1
290
     0
176
     1
 90
       50
176
     1
 40
0.0
176
     1
 40
1.0
176
     1
 90
        0
176
     1
 62
   178
420
        0
176
     1
 90
       50
176
     1
 90
        3
176
     1
 62
     5
420
      255
176
     1
290
     0
176
     1
 90
       50
176
     1
 90
       50
176
     1
 90
       50
176
     1
290
     0
176
     1
 90
       50
176
     1
 62
   256
176
     0
 40
1.0
176
     0
 90
        2
176
     1
  1
strokes_ogs.tif
176
     1
290
     0
176
     1
 40
1.0
176
     1
 40
1.0
176
     1
  0
VISUALSTYLE
  5
20F
102
{ACAD_REACTORS
330
20E
102
}
330
20E
100
AcDbVisualStyle
  2
Flat
 70
     0
177
     3
291
     1
 70
    58
 90
        2
176
     1
 90
        1
176
     1
 90
        1
176
     1
 90
        2
176
     1
 40
0.6
176
     1
 40
30.0
176
     1
 62
     7
420
 16777215
176
     1
 90
        0
176
     1
 90
        0
176
     1
 62
     7
176
     1
 62
   257
176
     1
 90
        1
176
     1
 90
        1
176
     1
 40
1.0
176
     1
 90
        8
176
     1
 62
     7
176
     1
 40
1.0
176
     1
 90
        1
176
     1
 90
        6
176
     1
 90
        2
176
     1
 62
     7
176
     1
 90
        5
176
     1
 90
        0
176
     1
 90
        0
176
     1
290
     0
176
     1
 90
       13
176
     1
 40
0.0
176
     1
 90
        0
176
     1
290
     0
176
     1
290
     1
176
     1
290
     1
176
     1
290
     0
176
     1
290
     0
176
     1
290
     0
176
     1
290
     0
176
     1
290
     0
176
     1
290
     0
176
     1
 90
       50
176
     1
 40
0.0
176
     1
 40
1.0
176
     1
 90
        0
176
     1
 62
   178
420
        0
176
     1
 90
       50
176
     1
 90
        3
176
     1
 62
     5
420
      255
176
     1
290
     0
176
     1
 90
       50
176
     1
 90
       50
176
     1
 90
       50
176
     1
290
     0
176
     1
 90
       50
176
     1
 62
   256
176
     0
 40
1.0
176
     0
 90
        2
176
     1
  1
strokes_ogs.tif
176
     1
290
     0
176
     1
 40
1.0
176
     1
 40
1.0
176
     1
  0
VISUALSTYLE
  5
210
102
{ACAD_REACTORS
330
20E
102
}
330
20E
100
AcDbVisualStyle
  2
FlatWithEdges
 70
     1
177
     3
291
     1
 70
    58
 90
        2
176
     1
 90
        1
176
     1
 90
        1
176
     1
 90
        2
176
     1
 40
0.6
176
     1
 40
30.0
176
     1
 62
     7
420
 16777215
176
     1
 90
        1
176
     1
 90
        0
176
     1
 62
     7
176
     1
 62
   257
176
     1
 90
        1
176
     1
 90
        1
176
     1
 40
1.0
176
     1
 90
        0
176
     1
 62
   257
176
     1
 40
1.0
176
     1
 90
        1
176
     1
 90
        6
176
     1
 90
        2
176
     1
 62
     7
176
     1
 90
        5
176
     1
 90
        0
176
     1
 90
        0
176
     1
290
     0
176
     1
 90
       13
176
     1
 40
0.0
176
     1
 90
        0
176
     1
290
     0
176
     1
290
     1
176
     1
290
     1
176
     1
290
     0
176
     1
290
     0
176
     1
290
     0
176
     1
290
     0
176
     1
290
     0
176
     1
290
     0
176
     1
 90
       50
176
     1
 40
0.0
176
     1
 40
1.0
176
     1
 90
        0
176
     1
 62
   178
420
        0
176
     1
 90
       50
176
     1
 90
        3
176
     1
 62
     5
420
      255
176
     1
290
     0
176
     1
 90
       50
176
     1
 90
       50
176
     1
 90
       50
176
     1
290
     0
176
     1
 90
       50
176
     1
 62
   256
176
     0
 40
1.0
176
     0
 90
        2
176
     1
  1
strokes_ogs.tif
176
     1
290
     0
176
     1
 40
1.0
176
     1
 40
1.0
176
     1
  0
VISUALSTYLE
  5
211
102
{ACAD_REACTORS
330
20E
102
}
330
20E
100
AcDbVisualStyle
  2
Gouraud
 70
     2
177
     3
291
     1
 70
    58
 90
        2
176
     1
 90
        2
176
     1
 90
        1
176
     1
 90
        2
176
     1
 40
0.6
176
     1
 40
30.0
176
     1
 62
     7
420
 16777215
176
     1
 90
        0
176
     1
 90
        0
176
     1
 62
     7
176
     1
 62
   257
176
     1
 90
        1
176
     1
 90
        1
176
     1
 40
1.0
176
     1
 90
        0
176
     1
 62
     7
176
     1
 40
1.0
176
     1
 90
        1
176
     1
 90
        6
176
     1
 90
        2
176
     1
 62
     7
176
     1
 90
        5
176
     1
 90
        0
176
     1
 90
        0
176
     1
290
     0
176
     1
 90
       13
176
     1
 40
0.0
176
     1
 90
        0
176
     1
290
     0
176
     1
290
     1
176
     1
290
     1
176
     1
290
     0
176
     1
290
     0
176
     1
290
     0
176
     1
290
     0
176
     1
290
     0
176
     1
290
     0
176
     1
 90
       50
176
     1
 40
0.0
176
     1
 40
1.0
176
     1
 90
        0
176
     1
 62
   178
420
        0
176
     1
 90
       50
176
     1
 90
        3
176
     1
 62
     5
420
      255
176
     1
290
     0
176
     1
 90
       50
176
     1
 90
       50
176
     1
 90
       50
176
     1
290
     0
176
     1
 90
       50
176
     1
 62
   256
176
     0
 40
1.0
176
     0
 90
        2
176
     1
  1
strokes_ogs.tif
176
     1
290
     0
176
     1
 40
1.0
176
     1
 40
1.0
176
     1
  0
VISUALSTYLE
  5
212
102
{ACAD_REACTORS
330
20E
102
}
330
20E
100
AcDbVisualStyle
  2
GouraudWithEdges
 70
     3
177
     3
291
     1
 70
    58
 90
        2
176
     1
 90
        2
176
     1
 90
        1
176
     1
 90
        2
176
     1
 40
0.6
176
     1
 40
30.0
176
     1
 62
     7
420
 16777215
176
     1
 90
        1
176
     1
 90
        0
176
     1
 62
     7
176
     1
 62
   257
176
     1
 90
        1
176
     1
 90
        1
176
     1
 40
1.0
176
     1
 90
        0
176
     1
 62
   257
176
     1
 40
1.0
176
     1
 90
        1
176
     1
 90
        6
176
     1
 90
        2
176
     1
 62
     7
176
     1
 90
        5
176
     1
 90
        0
176
     1
 90
        0
176
     1
290
     0
176
     1
 90
       13
176
     1
 40
0.0
176
     1
 90
        0
176
     1
290
     0
176
     1
290
     1
176
     1
290
     1
176
     1
290
     0
176
     1
290
     0
176
     1
290
     0
176
     1
290
     0
176
     1
290
     0
176
     1
290
     0
176
     1
 90
       50
176
     1
 40
0.0
176
     1
 40
1.0
176
     1
 90
        0
176
     1
 62
   178
420
        0
176
     1
 90
       50
176
     1
 90
        3
176
     1
 62
     5
420
      255
176
     1
290
     0
176
     1
 90
       50
176
     1
 90
       50
176
     1
 90
       50
176
     1
290
     0
176
     1
 90
       50
176
     1
 62
   256
176
     0
 40
1.0
176
     0
 90
        2
176
     1
  1
strokes_ogs.tif
176
     1
290
     0
176
     1
 40
1.0
176
     1
 40
1.0
176
     1
  0
VISUALSTYLE
  5
215
102
{ACAD_REACTORS
330
20E
102
}
330
20E
100
AcDbVisualStyle
  2
Hidden
 70
     6
177
     3
291
     0
 70
    58
 90
        1
176
     1
 90
        2
176
     1
 90
        2
176
     1
 90
        0
176
     1
 40
0.6
176
     1
 40
30.0
176
     1
 62
     7
420
 16777215
176
     1
 90
        2
176
     1
 90
        2
176
     1
 62
     7
176
     1
 62
   257
176
     1
 90
        2
176
     1
 90
        1
176
     1
 40
40.0
176
     1
 90
        0
176
     1
 62
   257
176
     1
 40
1.0
176
     1
 90
        1
176
     1
 90
        6
176
     1
 90
        2
176
     1
 62
     7
176
     1
 90
        3
176
     1
 90
        0
176
     1
 90
        0
176
     1
290
     0
176
     1
 90
        1
176
     1
 40
0.0
176
     1
 90
        0
176
     1
290
     0
176
     1
290
     1
176
     1
290
     1
176
     1
290
     0
176
     1
290
     0
176
     1
290
     0
176
     1
290
     0
176
     1
290
     0
176
     1
290
     0
176
     1
 90
       50
176
     1
 40
0.0
176
     1
 40
1.0
176
     1
 90
        0
176
     1
 62
   178
420
        0
176
     1
 90
       50
176
     1
 90
        3
176
     1
 62
     5
420
      255
176
     1
290
     0
176
     1
 90
       50
176
     1
 90
       50
176
     1
 90
       50
176
     1
290
     0
176
     1
 90
       50
176
     1
 62
   256
176
     0
 40
1.0
176
     0
 90
        2
176
     1
  1
strokes_ogs.tif
176
     1
290
     0
176
     1
 40
1.0
176
     1
 40
1.0
176
     1
  0
VISUALSTYLE
  5
21F
102
{ACAD_REACTORS
330
20E
102
}
330
20E
100
AcDbVisualStyle
  2
JitterOff
 70
    20
177
     3
291
     1
 70
    58
 90
        2
176
     0
 90
        2
176
     0
 90
        0
176
     0
 90
        0
176
     0
 40
0.6
176
     0
 40
30.0
176
     0
 62
     7
420
 16777215
176
     0
 90
        1
176
     0
 90
        4
176
     0
 62
     7
176
     0
 62
   257
176
     0
 90
        1
176
     0
 90
        1
176
     0
 40
1.0
176
     0
 90
       10
176
     2
 62
     7
176
     0
 40
1.0
176
     0
 90
        1
176
     0
 90
        6
176
     0
 90
        2
176
     0
 62
     7
176
     0
 90
        5
176
     0
 90
        0
176
     0
 90
        0
176
     0
290
     0
176
     0
 90
        1
176
     0
 40
0.0
176
     0
 90
        0
176
     0
290
     0
176
     0
290
     1
176
     0
290
     1
176
     0
290
     0
176
     0
290
     0
176
     0
290
     0
176
     0
290
     0
176
     0
290
     0
176
     0
290
     0
176
     0
 90
       50
176
     0
 40
0.0
176
     0
 40
1.0
176
     0
 90
        0
176
     0
 62
   178
420
        0
176
     0
 90
       50
176
     0
 90
        3
176
     0
 62
     5
420
      255
176
     0
290
     0
176
     0
 90
       50
176
     0
 90
       50
176
     0
 90
       50
176
     0
290
     0
176
     0
 90
       50
176
     0
 62
   256
176
     0
 40
1.0
176
     0
 90
        2
176
     0
  1
strokes_ogs.tif
176
     0
290
     0
176
     0
 40
1.0
176
     0
 40
1.0
176
     0
  0
VISUALSTYLE
  5
21C
102
{ACAD_REACTORS
330
20E
102
}
330
20E
100
AcDbVisualStyle
  2
Linepattern
 70
    14
177
     3
291
     1
 70
    58
 90
        2
176
     1
 90
        2
176
     1
 90
        0
176
     1
 90
        0
176
     1
 40
0.6
176
     1
 40
30.0
176
     1
 62
     7
420
 16777215
176
     1
 90
        1
176
     1
 90
        4
176
     1
 62
     7
176
     1
 62
   257
176
     1
 90
        7
176
     1
 90
        7
176
     1
 40
1.0
176
     1
 90
        8
176
     1
 62
     7
176
     1
 40
1.0
176
     1
 90
        1
176
     1
 90
        6
176
     1
 90
        2
176
     1
 62
     7
176
     1
 90
        5
176
     1
 90
        0
176
     1
 90
        0
176
     1
290
     0
176
     1
 90
        1
176
     1
 40
0.0
176
     1
 90
        0
176
     1
290
     0
176
     1
290
     1
176
     1
290
     1
176
     1
290
     0
176
     1
290
     0
176
     1
290
     0
176
     1
290
     0
176
     1
290
     0
176
     1
290
     0
176
     1
 90
       50
176
     1
 40
0.0
176
     1
 40
1.0
176
     1
 90
        0
176
     1
 62
   178
420
        0
176
     1
 90
       50
176
     1
 90
        3
176
     1
 62
     5
420
      255
176
     1
290
     0
176
     1
 90
       50
176
     1
 90
       50
176
     1
 90
       50
176
     1
290
     0
176
     1
 90
       50
176
     1
 62
   256
176
     0
 40
1.0
176
     0
 90
        2
176
     1
  1
strokes_ogs.tif
176
     1
290
     0
176
     1
 40
1.0
176
     1
 40
1.0
176
     1
  0
VISUALSTYLE
  5
220
102
{ACAD_REACTORS
330
20E
102
}
330
20E
100
AcDbVisualStyle
  2
OverhangOff
 70
    21
177
     3
291
     1
 70
    58
 90
        2
176
     0
 90
        2
176
     0
 90
        0
176
     0
 90
        0
176
     0
 40
0.6
176
     0
 40
30.0
176
     0
 62
     7
420
 16777215
176
     0
 90
        1
176
     0
 90
        4
176
     0
 62
     7
176
     0
 62
   257
176
     0
 90
        1
176
     0
 90
        1
176
     0
 40
1.0
176
     0
 90
        9
176
     2
 62
     7
176
     0
 40
1.0
176
     0
 90
        1
176
     0
 90
        6
176
     0
 90
        2
176
     0
 62
     7
176
     0
 90
        5
176
     0
 90
        0
176
     0
 90
        0
176
     0
290
     0
176
     0
 90
        1
176
     0
 40
0.0
176
     0
 90
        0
176
     0
290
     0
176
     0
290
     1
176
     0
290
     1
176
     0
290
     0
176
     0
290
     0
176
     0
290
     0
176
     0
290
     0
176
     0
290
     0
176
     0
290
     0
176
     0
 90
       50
176
     0
 40
0.0
176
     0
 40
1.0
176
     0
 90
        0
176
     0
 62
   178
420
        0
176
     0
 90
       50
176
     0
 90
        3
176
     0
 62
     5
420
      255
176
     0
290
     0
176
     0
 90
       50
176
     0
 90
       50
176
     0
 90
       50
176
     0
290
     0
176
     0
 90
       50
176
     0
 62
   256
176
     0
 40
1.0
176
     0
 90
        2
176
     0
  1
strokes_ogs.tif
176
     0
290
     0
176
     0
 40
1.0
176
     0
 40
1.0
176
     0
  0
VISUALSTYLE
  5
217
102
{ACAD_REACTORS
330
20E
102
}
330
20E
100
AcDbVisualStyle
  2
Realistic
 70
     8
177
     3
291
     0
 70
    58
 90
        2
176
     1
 90
        3
176
     1
 90
        0
176
     1
 90
        2
176
     1
 40
0.6
176
     1
 40
30.0
176
     1
 62
     7
420
 16777215
176
     1
 90
        0
176
     1
 90
        0
176
     1
 62
     7
176
     1
 62
   257
176
     1
 90
        1
176
     1
 90
        1
176
     1
 40
1.0
176
     1
 90
        8
176
     1
 62
   257
176
     1
 40
1.0
176
     1
 90
        1
176
     1
 90
        6
176
     1
 90
        2
176
     1
 62
     7
176
     1
 90
        3
176
     1
 90
        0
176
     1
 90
        0
176
     1
290
     0
176
     1
 90
       13
176
     1
 40
0.0
176
     1
 90
        0
176
     1
290
     0
176
     1
290
     1
176
     1
290
     1
176
     1
290
     0
176
     1
290
     0
176
     1
290
     0
176
     1
290
     0
176
     1
290
     0
176
     1
290
     0
176
     1
 90
       50
176
     1
 40
0.0
176
     1
 40
1.0
176
     1
 90
        0
176
     1
 62
   178
420
        0
176
     1
 90
       50
176
     1
 90
        3
176
     1
 62
     5
420
      255
176
     1
290
     0
176
     1
 90
       50
176
     1
 90
       50
176
     1
 90
       50
176
     1
290
     0
176
     1
 90
       50
176
     1
 62
   256
176
     0
 40
1.0
176
     0
 90
        2
176
     1
  1
strokes_ogs.tif
176
     1
290
     0
176
     1
 40
1.0
176
     1
 40
1.0
176
     1
  0
VISUALSTYLE
  5
226
102
{ACAD_REACTORS
330
20E
102
}
330
20E
100
AcDbVisualStyle
  2
Shaded
 70
    27
177
     3
291
     0
 70
    58
 90
        2
176
     1
 90
        2
176
     1
 90
        1
176
     1
 90
        2
176
     1
 40
0.6
176
     1
 40
30.0
176
     1
 62
     7
420
 16777215
176
     1
 90
        0
176
     1
 90
        4
176
     1
 62
     7
176
     1
 62
   257
176
     1
 90
        1
176
     1
 90
        1
176
     1
 40
1.0
176
     1
 90
        8
176
     1
 62
   257
176
     1
 40
1.0
176
     1
 90
        1
176
     1
 90
        6
176
     1
 90
        2
176
     1
 62
     8
420
  7895160
176
     1
 90
        3
176
     1
 90
        0
176
     1
 90
        0
176
     1
290
     0
176
     1
 90
        5
176
     1
 40
0.0
176
     1
 90
        0
176
     1
290
     0
176
     1
290
     1
176
     1
290
     1
176
     1
290
     0
176
     1
290
     0
176
     1
290
     0
176
     1
290
     0
176
     1
290
     0
176
     1
290
     0
176
     1
 90
       50
176
     1
 40
0.0
176
     1
 40
1.0
176
     1
 90
        0
176
     1
 62
   178
420
        0
176
     1
 90
       50
176
     1
 90
        3
176
     1
 62
     5
420
      255
176
     1
290
     0
176
     1
 90
       50
176
     1
 90
       50
176
     1
 90
       50
176
     1
290
     0
176
     1
 90
       50
176
     1
 62
   256
176
     0
 40
1.0
176
     0
 90
        2
176
     1
  1
strokes_ogs.tif
176
     1
290
     0
176
     1
 40
1.0
176
     1
 40
1.0
176
     1
  0
VISUALSTYLE
  5
225
102
{ACAD_REACTORS
330
20E
102
}
330
20E
100
AcDbVisualStyle
  2
Shaded with edges
 70
    26
177
     3
291
     0
 70
    58
 90
        2
176
     1
 90
        2
176
     1
 90
        1
176
     1
 90
        2
176
     1
 40
0.6
176
     1
 40
30.0
176
     1
 62
     7
420
 16777215
176
     1
 90
        1
176
     1
 90
       10
176
     1
 62
     7
176
     1
 62
   257
176
     1
 90
        2
176
     1
 90
        1
176
     1
 40
1.0
176
     1
 90
        8
176
     1
 62
   257
176
     1
 40
1.0
176
     1
 90
        1
176
     1
 90
        6
176
     1
 90
        2
176
     1
 62
     7
176
     1
 90
        3
176
     1
 90
        0
176
     1
 90
        0
176
     1
290
     0
176
     1
 90
        5
176
     1
 40
0.0
176
     1
 90
        0
176
     1
290
     0
176
     1
290
     1
176
     1
290
     1
176
     1
290
     0
176
     1
290
     0
176
     1
290
     0
176
     1
290
     0
176
     1
290
     0
176
     1
290
     0
176
     1
 90
       50
176
     1
 40
0.0
176
     1
 40
1.0
176
     1
 90
        0
176
     1
 62
   178
420
        0
176
     1
 90
       50
176
     1
 90
        3
176
     1
 62
     5
420
      255
176
     1
290
     0
176
     1
 90
       50
176
     1
 90
       50
176
     1
 90
       50
176
     1
290
     0
176
     1
 90
       50
176
     1
 62
   256
176
     0
 40
1.0
176
     0
 90
        2
176
     1
  1
strokes_ogs.tif
176
     1
290
     0
176
     1
 40
1.0
176
     1
 40
1.0
176
     1
  0
VISUALSTYLE
  5
222
102
{ACAD_REACTORS
330
20E
102
}
330
20E
100
AcDbVisualStyle
  2
Shades of Gray
 70
    23
177
     3
291
     0
 70
    58
 90
        2
176
     1
 90
        2
176
     1
 90
        3
176
     1
 90
        0
176
     1
 40
0.6
176
     1
 40
30.0
176
     1
 62
     7
420
 16777215
176
     1
 90
        2
176
     1
 90
        2
176
     1
 62
     7
176
     1
 62
     7
176
     1
 90
        1
176
     1
 90
        1
176
     1
 40
40.0
176
     1
 90
        8
176
     1
 62
     7
176
     1
 40
1.0
176
     1
 90
        1
176
     1
 90
        6
176
     1
 90
        2
176
     1
 62
     7
176
     1
 90
        3
176
     1
 90
        0
176
     1
 90
        0
176
     1
290
     0
176
     1
 90
        1
176
     1
 40
0.0
176
     1
 90
        0
176
     1
290
     0
176
     1
290
     1
176
     1
290
     1
176
     1
290
     0
176
     1
290
     0
176
     1
290
     0
176
     1
290
     0
176
     1
290
     0
176
     1
290
     0
176
     1
 90
       50
176
     1
 40
0.0
176
     1
 40
1.0
176
     1
 90
        0
176
     1
 62
   178
420
        0
176
     1
 90
       50
176
     1
 90
        3
176
     1
 62
     5
420
      255
176
     1
290
     0
176
     1
 90
       50
176
     1
 90
       50
176
     1
 90
       50
176
     1
290
     0
176
     1
 90
       50
176
     1
 62
   256
176
     0
 40
1.0
176
     0
 90
        2
176
     1
  1
strokes_ogs.tif
176
     1
290
     0
176
     1
 40
1.0
176
     1
 40
1.0
176
     1
  0
VISUALSTYLE
  5
223
102
{ACAD_REACTORS
330
20E
102
}
330
20E
100
AcDbVisualStyle
  2
Sketchy
 70
    24
177
     3
291
     0
 70
    58
 90
        1
176
     1
 90
        2
176
     1
 90
        2
176
     1
 90
        0
176
     1
 40
0.6
176
     1
 40
30.0
176
     1
 62
     7
420
 16777215
176
     1
 90
        2
176
     1
 90
        2
176
     1
 62
     7
176
     1
 62
     7
176
     1
 90
        1
176
     1
 90
        1
176
     1
 40
40.0
176
     1
 90
       11
176
     1
 62
     7
176
     1
 40
1.0
176
     1
 90
        1
176
     1
 90
        6
176
     1
 90
        2
176
     1
 62
     7
176
     1
 90
        6
176
     1
 90
        0
176
     1
 90
        0
176
     1
290
     0
176
     1
 90
        1
176
     1
 40
0.0
176
     1
 90
        0
176
     1
290
     0
176
     1
290
     1
176
     1
290
     1
176
     1
290
     0
176
     1
290
     0
176
     1
290
     0
176
     1
290
     0
176
     1
290
     0
176
     1
290
     0
176
     1
 90
       50
176
     1
 40
0.0
176
     1
 40
1.0
176
     1
 90
        0
176
     1
 62
   178
420
        0
176
     1
 90
       50
176
     1
 90
        3
176
     1
 62
     5
420
      255
176
     1
290
     0
176
     1
 90
       50
176
     1
 90
       50
176
     1
 90
       50
176
     1
290
     0
176
     1
 90
       50
176
     1
 62
   256
176
     0
 40
1.0
176
     0
 90
        2
176
     1
  1
strokes_ogs.tif
176
     1
290
     0
176
     1
 40
1.0
176
     1
 40
1.0
176
     1
  0
VISUALSTYLE
  5
21B
102
{ACAD_REACTORS
330
20E
102
}
330
20E
100
AcDbVisualStyle
  2
Thicken
 70
    13
177
     3
291
     1
 70
    58
 90
        2
176
     1
 90
        2
176
     1
 90
        0
176
     1
 90
        0
176
     1
 40
0.6
176
     1
 40
30.0
176
     1
 62
     7
420
 16777215
176
     1
 90
        1
176
     1
 90
        4
176
     1
 62
     7
176
     1
 62
   257
176
     1
 90
        1
176
     1
 90
        1
176
     1
 40
1.0
176
     1
 90
       12
176
     1
 62
     7
176
     1
 40
1.0
176
     1
 90
        1
176
     1
 90
        6
176
     1
 90
        2
176
     1
 62
     7
176
     1
 90
        5
176
     1
 90
        0
176
     1
 90
        0
176
     1
290
     0
176
     1
 90
        1
176
     1
 40
0.0
176
     1
 90
        0
176
     1
290
     0
176
     1
290
     1
176
     1
290
     1
176
     1
290
     0
176
     1
290
     0
176
     1
290
     0
176
     1
290
     0
176
     1
290
     0
176
     1
290
     0
176
     1
 90
       50
176
     1
 40
0.0
176
     1
 40
1.0
176
     1
 90
        0
176
     1
 62
   178
420
        0
176
     1
 90
       50
176
     1
 90
        3
176
     1
 62
     5
420
      255
176
     1
290
     0
176
     1
 90
       50
176
     1
 90
       50
176
     1
 90
       50
176
     1
290
     0
176
     1
 90
       50
176
     1
 62
   256
176
     0
 40
1.0
176
     0
 90
        2
176
     1
  1
strokes_ogs.tif
176
     1
290
     0
176
     1
 40
1.0
176
     1
 40
1.0
176
     1
  0
VISUALSTYLE
  5
214
102
{ACAD_REACTORS
330
20E
102
}
330
20E
100
AcDbVisualStyle
  2
Wireframe
 70
     5
177
     3
291
     0
 70
    58
 90
        0
176
     1
 90
        2
176
     1
 90
        0
176
     1
 90
        0
176
     1
 40
0.6
176
     1
 40
30.0
176
     1
 62
     7
420
 16777215
176
     1
 90
        1
176
     1
 90
        4
176
     1
 62
     7
176
     1
 62
   257
176
     1
 90
        1
176
     1
 90
        1
176
     1
 40
1.0
176
     1
 90
        0
176
     1
 62
   257
176
     1
 40
1.0
176
     1
 90
        1
176
     1
 90
        6
176
     1
 90
        2
176
     1
 62
     7
176
     1
 90
        3
176
     1
 90
        0
176
     1
 90
        0
176
     1
290
     0
176
     1
 90
        1
176
     1
 40
0.0
176
     1
 90
        0
176
     1
290
     0
176
     1
290
     1
176
     1
290
     1
176
     1
290
     0
176
     1
290
     0
176
     1
290
     0
176
     1
290
     0
176
     1
290
     0
176
     1
290
     0
176
     1
 90
       50
176
     1
 40
0.0
176
     1
 40
1.0
176
     1
 90
        0
176
     1
 62
   178
420
        0
176
     1
 90
       50
176
     1
 90
        3
176
     1
 62
     5
420
      255
176
     1
290
     0
176
     1
 90
       50
176
     1
 90
       50
176
     1
 90
       50
176
     1
290
     0
176
     1
 90
       50
176
     1
 62
   256
176
     0
 40
1.0
176
     0
 90
        2
176
     1
  1
strokes_ogs.tif
176
     1
290
     0
176
     1
 40
1.0
176
     1
 40
1.0
176
     1
  0
VISUALSTYLE
  5
224
102
{ACAD_REACTORS
330
20E
102
}
330
20E
100
AcDbVisualStyle
  2
X-Ray
 70
    25
177
     3
291
     0
 70
    58
 90
        2
176
     1
 90
        2
176
     1
 90
        1
176
     1
 90
        1
176
     1
 40
0.5
176
     1
 40
30.0
176
     1
 62
     7
420
 16777215
176
     1
 90
        1
176
     1
 90
        0
176
     1
 62
     7
176
     1
 62
   257
176
     1
 90
        1
176
     1
 90
        1
176
     1
 40
1.0
176
     1
 90
        8
176
     1
 62
     7
176
     1
 40
1.0
176
     1
 90
        1
176
     1
 90
        6
176
     1
 90
        2
176
     1
 62
     7
176
     1
 90
        3
176
     1
 90
        0
176
     1
 90
        0
176
     1
290
     0
176
     1
 90
       13
176
     1
 40
0.0
176
     1
 90
        0
176
     1
290
     0
176
     1
290
     1
176
     1
290
     1
176
     1
290
     0
176
     1
290
     0
176
     1
290
     0
176
     1
290
     0
176
     1
290
     0
176
     1
290
     0
176
     1
 90
       50
176
     1
 40
0.0
176
     1
 40
1.0
176
     1
 90
        0
176
     1
 62
   178
420
        0
176
     1
 90
       50
176
     1
 90
        3
176
     1
 62
     5
420
      255
176
     1
290
     0
176
     1
 90
       50
176
     1
 90
       50
176
     1
 90
       50
176
     1
290
     0
176
     1
 90
       50
176
     1
 62
   256
176
     0
 40
1.0
176
     0
 90
        2
176
     1
  1
strokes_ogs.tif
176
     1
290
     0
176
     1
 40
1.0
176
     1
 40
1.0
176
     1
  0
DICTIONARYVAR
  5
2C3
102
{ACAD_REACTORS
330
2C2
102
}
330
2C2
100
DictionaryVariables
280
     0
  1
1:1
  0
DICTIONARYVAR
  5
2C8
102
{ACAD_REACTORS
330
2C2
102
}
330
2C2
100
DictionaryVariables
280
     0
  1
Standard
  0
DICTIONARYVAR
  5
2C7
102
{ACAD_REACTORS
330
2C2
102
}
330
2C2
100
DictionaryVariables
280
     0
  1
Standard
  0
XRECORD
  5
255
102
{ACAD_REACTORS
330
253
102
}
330
253
100
AcDbXrecord
280
     1
1000
#ffffff
  0
XRECORD
  5
256
102
{ACAD_REACTORS
330
253
102
}
330
253
100
AcDbXrecord
280
     1
1000
FullColor
  0
XRECORD
  5
257
102
{ACAD_REACTORS
330
253
102
}
330
253
100
AcDbXrecord
280
     1
290
     1
  0
XRECORD
  5
258
102
{ACAD_REACTORS
330
253
102
}
330
253
100
AcDbXrecord
280
     1
290
     1
  0
XRECORD
  5
259
102
{ACAD_REACTORS
330
253
102
}
330
253
100
AcDbXrecord
280
     1
290
     1
  0
XRECORD
  5
25A
102
{ACAD_REACTORS
330
253
102
}
330
253
100
AcDbXrecord
280
     1
290
     1
  0
XRECORD
  5
25B
102
{ACAD_REACTORS
330
253
102
}
330
253
100
AcDbXrecord
280
     1
1000
auto
  0
XRECORD
  5
25C
102
{ACAD_REACTORS
330
253
102
}
330
253
100
AcDbXrecord
280
     1
1000
auto
  0
XRECORD
  5
25D
102
{ACAD_REACTORS
330
253
102
}
330
253
100
AcDbXrecord
280
     1
1000
auto
  0
XRECORD
  5
25E
102
{ACAD_REACTORS
330
253
102
}
330
253
100
AcDbXrecord
280
     1
1000
auto
  0
XRECORD
  5
25F
102
{ACAD_REACTORS
330
253
102
}
330
253
100
AcDbXrecord
280
     1
1000
auto
  0
XRECORD
  5
260
102
{ACAD_REACTORS
330
253
102
}
330
253
100
AcDbXrecord
280
     1
1000
auto
  0
XRECORD
  5
261
102
{ACAD_REACTORS
330
253
102
}
330
253
100
AcDbXrecord
280
     1
1000
auto
  0
XRECORD
  5
262
102
{ACAD_REACTORS
330
253
102
}
330
253
100
AcDbXrecord
280
     1
1000
auto
  0
XRECORD
  5
263
102
{ACAD_REACTORS
330
253
102
}
330
253
100
AcDbXrecord
280
     1
290
     0
  0
XRECORD
  5
264
102
{ACAD_REACTORS
330
253
102
}
330
253
100
AcDbXrecord
280
     1
290
     0
  0
XRECORD
  5
265
102
{ACAD_REACTORS
330
253
102
}
330
253
100
AcDbXrecord
280
     1
290
     0
  0
XRECORD
  5
266
102
{ACAD_REACTORS
330
253
102
}
330
253
100
AcDbXrecord
280
     1
290
     0
  0
XRECORD
  5
267
102
{ACAD_REACTORS
330
253
102
}
330
253
100
AcDbXrecord
280
     1
 90
        0
  0
XRECORD
  5
268
102
{ACAD_REACTORS
330
253
102
}
330
253
100
AcDbXrecord
280
     1
 90
        0
  0
XRECORD
  5
269
102
{ACAD_REACTORS
330
253
102
}
330
253
100
AcDbXrecord
280
     1
 90
        0
  0
XRECORD
  5
26A
102
{ACAD_REACTORS
330
253
102
}
330
253
100
AcDbXrecord
280
     1
 90
        0
  0
XRECORD
  5
26B
102
{ACAD_REACTORS
330
253
102
}
330
253
100
AcDbXrecord
280
     1
1000
auto
  0
XRECORD
  5
26C
102
{ACAD_REACTORS
330
253
102
}
330
253
100
AcDbXrecord
280
     1
1000
auto
  0
XRECORD
  5
26D
102
{ACAD_REACTORS
330
253
102
}
330
253
100
AcDbXrecord
280
     1
1000
auto
  0
XRECORD
  5
26E
102
{ACAD_REACTORS
330
253
102
}
330
253
100
AcDbXrecord
280
     1
1000
auto
  0
XRECORD
  5
26F
102
{ACAD_REACTORS
330
253
102
}
330
253
100
AcDbXrecord
280
     1
1000
auto
  0
XRECORD
  5
270
102
{ACAD_REACTORS
330
253
102
}
330
253
100
AcDbXrecord
280
     1
1000
auto
  0
XRECORD
  5
271
102
{ACAD_REACTORS
330
253
102
}
330
253
100
AcDbXrecord
280
     1
1000
auto
  0
XRECORD
  5
272
102
{ACAD_REACTORS
330
253
102
}
330
253
100
AcDbXrecord
280
     1
1000
auto
  0
XRECORD
  5
273
102
{ACAD_REACTORS
330
253
102
}
330
253
100
AcDbXrecord
280
     1
 90
        1
  0
XRECORD
  5
274
102
{ACAD_REACTORS
330
253
102
}
330
253
100
AcDbXrecord
280
     1
 40
10.0
  0
XRECORD
  5
275
102
{ACAD_REACTORS
330
253
102
}
330
253
100
AcDbXrecord
280
     1
 40
10.0
  0
XRECORD
  5
276
102
{ACAD_REACTORS
330
253
102
}
330
253
100
AcDbXrecord
280
     1
 40
10.0
  0
XRECORD
  5
277
102
{ACAD_REACTORS
330
253
102
}
330
253
100
AcDbXrecord
280
     1
 40
10.0
  0
XRECORD
  5
278
102
{ACAD_REACTORS
330
253
102
}
330
253
100
AcDbXrecord
280
     1
290
     0
  0
XRECORD
  5
279
102
{ACAD_REACTORS
330
253
102
}
330
253
100
AcDbXrecord
280
     1
 90
        1
  0
XRECORD
  5
27A
102
{ACAD_REACTORS
330
253
102
}
330
253
100
AcDbXrecord
280
     1
 40
0.0
  0
XRECORD
  5
27B
102
{ACAD_REACTORS
330
253
102
}
330
253
100
AcDbXrecord
280
     1
 40
0.0
  0
XRECORD
  5
27C
102
{ACAD_REACTORS
330
253
102
}
330
253
100
AcDbXrecord
280
     1
1000
Portrait
  0
XRECORD
  5
27D
102
{ACAD_REACTORS
330
253
102
}
330
253
100
AcDbXrecord
280
     1
 40
297.0
  0
XRECORD
  5
27E
102
{ACAD_REACTORS
330
253
102
}
330
253
100
AcDbXrecord
280
     1
 40
210.0
  0
XRECORD
  5
27F
102
{ACAD_REACTORS
330
253
102
}
330
253
100
AcDbXrecord
280
     1
1000
1:1
  0
XRECORD
  5
280
102
{ACAD_REACTORS
330
253
102
}
330
253
100
AcDbXrecord
280
     1
290
     1
  0
XRECORD
  5
254
102
{ACAD_REACTORS
330
253
102
}
330
253
100
AcDbXrecord
280
     1
1000
3.15.4
  0
XRECORD
  5
281
102
{ACAD_REACTORS
330
253
102
}
330
253
100
AcDbXrecord
280
     1
 90
        4
  0
XRECORD
  5
282
102
{ACAD_REACTORS
330
253
102
}
330
253
100
AcDbXrecord
280
     1
  0
XRECORD
  5
283
102
{ACAD_REACTORS
330
253
102
}
330
253
100
AcDbXrecord
280
     1
 40
33.24253544644844
  0
XRECORD
  5
284
102
{ACAD_REACTORS
330
253
102
}
330
253
100
AcDbXrecord
280
     1
 40
41.66141200669226
  0
DICTIONARY
  5
2C4
330
24E
100
AcDbDictionary
280
     1
281
     1
  3
ACAD_ROUNDTRIP_2008_TABLESTYLE_CELLSTYLEMAP
360
2C5
  0
CELLSTYLEMAP
  5
2C5
102
{ACAD_REACTORS
330
2C4
102
}
330
2C4
100
AcDbCellStyleMap
 90
        3
300
CELLSTYLE
  1
TABLEFORMAT_BEGIN
 90
        5
170
     1
 91
        0
 92
    32768
 62
   257
 93
        1
300
CONTENTFORMAT
  1
CONTENTFORMAT_BEGIN
 90
        0
 91
        0
 92
        4
 93
        0
300

 40
0.0
140
1.0
 94
        5
 62
     0
340
1F6
144
0.25
309
CONTENTFORMAT_END
171
     1
301
MARGIN
  1
CELLMARGIN_BEGIN
 40
0.06
 40
0.06
 40
0.06
 40
0.06
 40
0.06
 40
0.06
309
CELLMARGIN_END
 94
        6
 95
        1
302
GRIDFORMAT
  1
GRIDFORMAT_BEGIN
 90
        0
 91
        1
 62
     0
 92
       -2
340
1F8
 93
        0
 40
0.045
309
GRIDFORMAT_END
 95
        2
302
GRIDFORMAT
  1
GRIDFORMAT_BEGIN
 90
        0
 91
        1
 62
     0
 92
       -2
340
1F8
 93
        0
 40
0.045
309
GRIDFORMAT_END
 95
        4
302
GRIDFORMAT
  1
GRIDFORMAT_BEGIN
 90
        0
 91
        1
 62
     0
 92
       -2
340
1F8
 93
        0
 40
0.045
309
GRIDFORMAT_END
 95
        8
302
GRIDFORMAT
  1
GRIDFORMAT_BEGIN
 90
        0
 91
        1
 62
     0
 92
       -2
340
1F8
 93
        0
 40
0.045
309
GRIDFORMAT_END
 95
       16
302
GRIDFORMAT
  1
GRIDFORMAT_BEGIN
 90
        0
 91
        1
 62
     0
 92
       -2
340
1F8
 93
        0
 40
0.045
309
GRIDFORMAT_END
 95
       32
302
GRIDFORMAT
  1
GRIDFORMAT_BEGIN
 90
        0
 91
        1
 62
     0
 92
       -2
340
1F8
 93
        0
 40
0.045
309
GRIDFORMAT_END
309
TABLEFORMAT_END
  1
CELLSTYLE_BEGIN
 90
        1
 91
        1
300
_TITLE
309
CELLSTYLE_END
300
CELLSTYLE
  1
TABLEFORMAT_BEGIN
 90
        5
170
     1
 91
        0
 92
        0
 62
   257
 93
        1
300
CONTENTFORMAT
  1
CONTENTFORMAT_BEGIN
 90
        0
 91
        0
 92
        4
 93
        0
300

 40
0.0
140
1.0
 94
        5
 62
     0
340
1F6
144
0.18
309
CONTENTFORMAT_END
171
     1
301
MARGIN
  1
CELLMARGIN_BEGIN
 40
0.06
 40
0.06
 40
0.06
 40
0.06
 40
0.06
 40
0.06
309
CELLMARGIN_END
 94
        6
 95
        1
302
GRIDFORMAT
  1
GRIDFORMAT_BEGIN
 90
        0
 91
        1
 62
     0
 92
       -2
340
1F8
 93
        0
 40
0.045
309
GRIDFORMAT_END
 95
        2
302
GRIDFORMAT
  1
GRIDFORMAT_BEGIN
 90
        0
 91
        1
 62
     0
 92
       -2
340
1F8
 93
        0
 40
0.045
309
GRIDFORMAT_END
 95
        4
302
GRIDFORMAT
  1
GRIDFORMAT_BEGIN
 90
        0
 91
        1
 62
     0
 92
       -2
340
1F8
 93
        0
 40
0.045
309
GRIDFORMAT_END
 95
        8
302
GRIDFORMAT
  1
GRIDFORMAT_BEGIN
 90
        0
 91
        1
 62
     0
 92
       -2
340
1F8
 93
        0
 40
0.045
309
GRIDFORMAT_END
 95
       16
302
GRIDFORMAT
  1
GRIDFORMAT_BEGIN
 90
        0
 91
        1
 62
     0
 92
       -2
340
1F8
 93
        0
 40
0.045
309
GRIDFORMAT_END
 95
       32
302
GRIDFORMAT
  1
GRIDFORMAT_BEGIN
 90
        0
 91
        1
 62
     0
 92
       -2
340
1F8
 93
        0
 40
0.045
309
GRIDFORMAT_END
309
TABLEFORMAT_END
  1
CELLSTYLE_BEGIN
 90
        2
 91
        1
300
_HEADER
309
CELLSTYLE_END
300
CELLSTYLE
  1
TABLEFORMAT_BEGIN
 90
        5
170
     1
 91
        0
 92
        0
 62
   257
 93
        1
300
CONTENTFORMAT
  1
CONTENTFORMAT_BEGIN
 90
        0
 91
        0
 92
        4
 93
        0
300

 40
0.0
140
1.0
 94
        2
 62
     0
340
1F6
144
0.18
309
CONTENTFORMAT_END
171
     1
301
MARGIN
  1
CELLMARGIN_BEGIN
 40
0.06
 40
0.06
 40
0.06
 40
0.06
 40
0.06
 40
0.06
309
CELLMARGIN_END
 94
        6
 95
        1
302
GRIDFORMAT
  1
GRIDFORMAT_BEGIN
 90
        0
 91
        1
 62
     0
 92
       -2
340
1F8
 93
        0
 40
0.045
309
GRIDFORMAT_END
 95
        2
302
GRIDFORMAT
  1
GRIDFORMAT_BEGIN
 90
        0
 91
        1
 62
     0
 92
       -2
340
1F8
 93
        0
 40
0.045
309
GRIDFORMAT_END
 95
        4
302
GRIDFORMAT
  1
GRIDFORMAT_BEGIN
 90
        0
 91
        1
 62
     0
 92
       -2
340
1F8
 93
        0
 40
0.045
309
GRIDFORMAT_END
 95
        8
302
GRIDFORMAT
  1
GRIDFORMAT_BEGIN
 90
        0
 91
        1
 62
     0
 92
       -2
340
1F8
 93
        0
 40
0.045
309
GRIDFORMAT_END
 95
       16
302
GRIDFORMAT
  1
GRIDFORMAT_BEGIN
 90
        0
 91
        1
 62
     0
 92
       -2
340
1F8
 93
        0
 40
0.045
309
GRIDFORMAT_END
 95
       32
302
GRIDFORMAT
  1
GRIDFORMAT_BEGIN
 90
        0
 91
        1
 62
     0
 92
       -2
340
1F8
 93
        0
 40
0.045
309
GRIDFORMAT_END
309
TABLEFORMAT_END
  1
CELLSTYLE_BEGIN
 90
        3
 91
        2
300
_DATA
309
CELLSTYLE_END
  0
ENDSEC
  0
EOF
