<?xml version="1.0" encoding="utf-8"?>
<!-- Generator: Adobe Illustrator 21.1.0, SVG Export Plug-In . SVG Version: 6.00 Build 0)  -->
<svg version="1.1" xmlns="http://www.w3.org/2000/svg" xmlns:xlink="http://www.w3.org/1999/xlink" x="0px" y="0px"
	 viewBox="0 0 2304 1296" style="enable-background:new 0 0 2304 1296;" xml:space="preserve">
<style type="text/css">
	.st0{fill:none;stroke:#FF0000;stroke-width:5.669300e-02;stroke-miterlimit:10;}
	.st1{fill:none;}
	.st2{font-family:'ArialMT';}
	.st3{font-size:12px;}
	.st4{font-size:24px;}
	.st5{font-size:10px;}
	.st6{font-size:2px;}
	.st7{font-size:8px;}
	.st8{letter-spacing:33;}
	.st9{fill:none;stroke:#000000;stroke-miterlimit:10;}
	.st10{fill:#1D1D1B;}
	.st11{fill:#C6C6C6;}
	.st12{fill:#4A4A49;stroke:#000000;stroke-width:2;stroke-miterlimit:10;}
	.st13{fill:#3C3C3B;stroke:#000000;stroke-width:2;stroke-miterlimit:10;}
	.st14{fill:#E3E3E3;stroke:#000000;stroke-width:2;stroke-miterlimit:10;}
	.st15{fill:#DADADA;stroke:#000000;stroke-width:2;stroke-miterlimit:10;}
	.st16{fill:#D0D0D0;stroke:#000000;stroke-width:2;stroke-miterlimit:10;}
	.st17{fill:#C6C6C6;stroke:#000000;stroke-width:2;stroke-miterlimit:10;}
	.st18{fill:#BDBCBC;stroke:#000000;stroke-width:2;stroke-miterlimit:10;}
	.st19{fill:#B2B2B2;stroke:#000000;stroke-width:2;stroke-miterlimit:10;}
	.st20{fill:#A8A8A7;stroke:#000000;stroke-width:2;stroke-miterlimit:10;}
	.st21{fill:#9D9D9C;stroke:#000000;stroke-width:2;stroke-miterlimit:10;}
	.st22{fill:#878787;stroke:#000000;stroke-width:2;stroke-miterlimit:10;}
	.st23{fill:#7C7C7B;stroke:#000000;stroke-width:2;stroke-miterlimit:10;}
	.st24{fill:#706F6F;stroke:#000000;stroke-width:2;stroke-miterlimit:10;}
	.st25{fill:#646363;stroke:#000000;stroke-width:2;stroke-miterlimit:10;}
	.st26{fill:#575756;stroke:#000000;stroke-width:2;stroke-miterlimit:10;}
	.st27{fill:#2E2D2C;stroke:#000000;stroke-width:2;stroke-miterlimit:10;}
	.st28{fill:#1D1D1B;stroke:#000000;stroke-width:2;stroke-miterlimit:10;}
	.st29{fill:#F6F6F6;stroke:#000000;stroke-width:2;stroke-miterlimit:10;}
	.st30{fill:none;stroke:#D0D0D0;stroke-width:2;stroke-miterlimit:10;}
	.st31{fill:none;stroke:#C6C6C6;stroke-width:2;stroke-miterlimit:10;}
	.st32{fill:#929292;stroke:#000000;stroke-width:2;stroke-miterlimit:10;}
	.st33{fill:none;stroke:#9D9D9C;stroke-width:2;stroke-miterlimit:10;}
	.st34{fill:#878787;stroke:#A8A8A7;stroke-width:2;stroke-miterlimit:10;}
	.st35{fill:none;stroke:#B2B2B2;stroke-width:2;stroke-miterlimit:10;}
	.st36{fill:#706F6F;stroke:#BDBCBC;stroke-width:2;stroke-miterlimit:10;}
	.st37{fill:none;stroke:#E3E3E3;stroke-width:2;stroke-miterlimit:10;}
	.st38{fill:none;stroke:#F6F6F6;stroke-width:2;stroke-miterlimit:10;}
	.st39{fill:none;stroke:#EDEDED;stroke-width:2;stroke-miterlimit:10;}
	.st40{fill:none;stroke:#646363;stroke-width:2;stroke-miterlimit:10;}
	.st41{fill:none;stroke:#878787;stroke-width:2;stroke-miterlimit:10;}
	.st42{fill:none;stroke:#929292;stroke-width:2;stroke-miterlimit:10;}
	.st43{fill:none;stroke:#7C7C7B;stroke-width:2;stroke-miterlimit:10;}
	.st44{fill:none;stroke:#706F6F;stroke-width:2;stroke-miterlimit:10;}
	.st45{fill:#EDEDED;stroke:#000000;stroke-width:2;stroke-miterlimit:10;}
	.st46{fill:#EDEDED;stroke:#2E2D2C;stroke-width:2;stroke-miterlimit:10;}
	.st47{fill:none;stroke:#3C3C3B;stroke-width:2;stroke-miterlimit:10;}
	.st48{fill:#F6F6F6;stroke:#1D1D1B;stroke-width:2;stroke-miterlimit:10;}
	.st49{fill:none;stroke:#575756;stroke-width:2;stroke-miterlimit:10;}
	.st50{fill:none;stroke:#4A4A49;stroke-width:2;stroke-miterlimit:10;}
	.st51{fill:none;stroke:#DADADA;stroke-width:2;stroke-miterlimit:10;}
	.st52{fill:none;stroke:#000000;stroke-width:2;stroke-miterlimit:10;}
	.st53{font-size:5px;}
	.st54{font-size:6px;}
	.st55{font-size:7px;}
	.st56{font-size:9px;}
	.st57{fill:#FFFFFF;stroke:#FF0000;stroke-width:5.669300e-02;stroke-miterlimit:10;}
</style>
<g id="Frame">
</g>
<g id="Through_cut_sizes">
</g>
<g id="Engrave_test">
</g>
<g id="Flex_test">
	<g id="Cutting_edges">
	</g>
	<g id="Flex_line_cut">
	</g>
	<g id="Flex_para_cut">
		<path class="st0" d="M-27.3,62.3"/>
		<rect x="26.7" y="22.1" class="st1" width="327.2" height="42.5"/>
		<text transform="matrix(1 0 0 1 26.6675 30.7168)"><tspan x="0" y="0" class="st2 st3">Material template for</tspan><tspan x="0" y="28.8" class="st2 st4">&lt;Material&gt;</tspan></text>
		<path class="st0" d="M356.5,8.5h-336c-6.6,0-12,5.4-12,12v543c0,6.6,5.4,12,12,12h336c6.6,0,12-5.4,12-12v-543
			C368.5,13.9,363.1,8.5,356.5,8.5z"/>
		<rect x="23" y="78.2" class="st1" width="180.5" height="82"/>
		<text transform="matrix(1 0 0 1 22.9531 85.3174)"><tspan x="0" y="0" class="st2 st5">Settings: </tspan><tspan x="0" y="2.4" class="st2 st6"> </tspan><tspan x="0" y="12" class="st2 st7">Thickness: &lt;Material thickness&gt;</tspan><tspan x="0" y="21.6" class="st2 st7">Profile used: &lt;Cutting profile used&gt;</tspan><tspan x="0" y="31.2" class="st2 st7">Modifications:</tspan><tspan x="0" y="40.8" class="st2 st7 st8">	</tspan><tspan x="36" y="40.8" class="st2 st7">&lt;Modifications to the cutting profile&gt;</tspan><tspan x="0" y="50.4" class="st2 st7 st8">	</tspan><tspan x="36" y="50.4" class="st2 st7">&lt;Modifications to the material&gt;</tspan></text>
		<circle class="st0" cx="267.9" cy="180.7" r="1.4"/>
		<rect x="300.6" y="179.3" class="st0" width="2.8" height="2.8"/>
		<text transform="matrix(1 0 0 1 325.019 183.2891)" class="st2 st7">1mm</text>
		<circle class="st0" cx="267.9" cy="192.1" r="2.8"/>
		<rect x="299.2" y="189.2" class="st0" width="5.7" height="5.7"/>
		<text transform="matrix(1 0 0 1 325.019 194.6274)" class="st2 st7">2mm</text>
		<circle class="st0" cx="267.9" cy="206.3" r="4.3"/>
		<rect x="297.8" y="202" class="st0" width="8.5" height="8.5"/>
		<text transform="matrix(1 0 0 1 325.019 208.8013)" class="st2 st7">3mm</text>
		<circle class="st0" cx="267.9" cy="223.3" r="5.7"/>
		<rect x="296.3" y="217.6" class="st0" width="11.3" height="11.3"/>
		<text transform="matrix(1 0 0 1 325.019 225.8091)" class="st2 st7">4mm</text>
		<circle class="st0" cx="267.9" cy="243.1" r="7.1"/>
		<rect x="294.9" y="236" class="st0" width="14.2" height="14.2"/>
		<text transform="matrix(1 0 0 1 325.019 245.6514)" class="st2 st7">5mm</text>
		<circle class="st0" cx="267.9" cy="265.8" r="8.5"/>
		<rect x="293.5" y="257.3" class="st0" width="17" height="17"/>
		<text transform="matrix(1 0 0 1 325.019 268.3286)" class="st2 st7">6mm</text>
		<circle class="st0" cx="267.9" cy="291.3" r="9.9"/>
		<rect x="292.1" y="281.4" class="st0" width="19.8" height="19.8"/>
		<text transform="matrix(1 0 0 1 325.019 293.8403)" class="st2 st7">7mm</text>
		<circle class="st0" cx="267.9" cy="319.6" r="11.3"/>
		<rect x="290.7" y="308.3" class="st0" width="22.7" height="22.7"/>
		<text transform="matrix(1 0 0 1 325.019 322.187)" class="st2 st7">8mm</text>
		<circle class="st0" cx="267.9" cy="350.8" r="12.8"/>
		<rect x="289.3" y="338.1" class="st0" width="25.5" height="25.5"/>
		<text transform="matrix(1 0 0 1 325.0591 353.3682)" class="st2 st7">9mm</text>
		<path class="st0" d="M282.1,384.8c0,7.8-6.3,14.2-14.2,14.2c-7.8,0-14.2-6.3-14.2-14.2c0-7.8,6.3-14.2,14.2-14.2
			C275.7,370.7,282.1,377,282.1,384.8z"/>
		<rect x="287.8" y="370.7" class="st0" width="28.3" height="28.3"/>
		<text transform="matrix(1 0 0 1 325.0747 387.3838)" class="st2 st7">10mm</text>
		<rect x="247.1" y="161.3" class="st1" width="108" height="12.5"/>
		<text transform="matrix(1 0 0 1 260.2612 168.4829)" class="st2 st5">Through cut sizes:</text>
		<path class="st9" d="M354.8,58.4c0,6.6-5.4,12-12,12H32.3c-6.6,0-12-5.4-12-12v-30c0-6.6,5.4-12,12-12h310.5c6.6,0,12,5.4,12,12
			V58.4z"/>
		<g>
			<g>
				<path class="st10" d="M287.5,53.2c-0.5,0-1,0.1-1.5,0.3c-0.5,0.2-0.9,0.5-1.2,0.8c-0.3,0.3-0.6,0.7-0.8,1.2
					c-0.2,0.5-0.3,0.9-0.3,1.4c0,0.5,0.1,1,0.3,1.5c0.2,0.5,0.5,0.9,0.8,1.2c0.3,0.3,0.7,0.6,1.2,0.8c0.5,0.2,0.9,0.3,1.5,0.3v3.8
					c-1,0-2-0.2-2.9-0.6c-0.9-0.4-1.7-0.9-2.4-1.6c-0.7-0.7-1.2-1.5-1.6-2.4C280.2,59,280,58,280,57c0-1,0.2-2,0.6-2.9
					c0.4-0.9,0.9-1.7,1.6-2.4c0.7-0.7,1.5-1.2,2.4-1.6c0.9-0.4,1.9-0.6,2.9-0.6V53.2z"/>
				<path class="st10" d="M306.3,49.5h3.8V57h-15v-7.5h3.8v3.8h7.5V49.5L306.3,49.5z"/>
				<path class="st10" d="M317.5,49.5c1,0,2,0.2,2.9,0.6c0.9,0.4,1.7,0.9,2.4,1.6c0.7,0.7,1.2,1.5,1.6,2.4C324.8,55,325,56,325,57
					c0,0.7-0.1,1.4-0.3,2c-0.2,0.6-0.4,1.2-0.8,1.8c-0.3,0.6-0.7,1.1-1.2,1.5c-0.5,0.5-1,0.8-1.5,1.2c-0.6,0.3-1.2,0.6-1.8,0.8
					c-0.6,0.2-1.3,0.3-2,0.3c-1,0-2-0.2-2.9-0.6c-0.9-0.4-1.7-0.9-2.4-1.6c-0.7-0.7-1.2-1.5-1.6-2.4C310.2,59,310,58,310,57
					s0.2-2,0.6-2.9c0.4-0.9,0.9-1.7,1.6-2.4c0.7-0.7,1.5-1.2,2.4-1.6C315.5,49.7,316.5,49.5,317.5,49.5z M317.5,60.8
					c0.5,0,1-0.1,1.4-0.3c0.5-0.2,0.9-0.5,1.2-0.8c0.3-0.3,0.6-0.7,0.8-1.2c0.2-0.5,0.3-0.9,0.3-1.4c0-0.5-0.1-1-0.3-1.5
					c-0.2-0.5-0.5-0.9-0.8-1.2c-0.3-0.3-0.7-0.6-1.2-0.8c-0.5-0.2-0.9-0.3-1.4-0.3c-0.5,0-1,0.1-1.5,0.3c-0.5,0.2-0.9,0.5-1.2,0.8
					c-0.3,0.3-0.6,0.7-0.8,1.2c-0.2,0.5-0.3,0.9-0.3,1.5c0,0.5,0.1,1,0.3,1.4c0.2,0.5,0.5,0.9,0.8,1.2c0.3,0.3,0.7,0.6,1.2,0.8
					C316.5,60.7,317,60.8,317.5,60.8z"/>
				<path class="st10" d="M340.1,49.5v5.3l-7.5,7.5l-7.5-7.5v-5.3l7.5,7.5L340.1,49.5z"/>
			</g>
			<g>
				<path class="st11" d="M280,57c0-0.7,0.1-1.4,0.3-2c0.2-0.6,0.4-1.2,0.8-1.8c0.3-0.6,0.7-1.1,1.2-1.5c0.5-0.5,1-0.8,1.5-1.2
					c0.6-0.3,1.2-0.6,1.8-0.8c0.6-0.2,1.3-0.3,2-0.3v3.8c-0.5,0-1,0.1-1.5,0.3c-0.5,0.2-0.9,0.5-1.2,0.8c-0.3,0.3-0.6,0.7-0.8,1.2
					c-0.2,0.5-0.3,0.9-0.3,1.4H280z M287.5,60.8c0.5,0,1-0.1,1.5-0.3c0.5-0.2,0.9-0.5,1.2-0.8c0.3-0.3,0.6-0.7,0.8-1.2
					c0.2-0.5,0.3-0.9,0.3-1.4h3.8c0,1-0.2,2-0.6,2.9c-0.4,0.9-0.9,1.7-1.6,2.4c-0.7,0.7-1.5,1.2-2.4,1.6c-0.9,0.4-1.9,0.6-2.9,0.6
					V60.8z"/>
				<path class="st11" d="M310,64.5h-5.3l-7.5-7.5l7.5-7.5h5.3l-7.5,7.5L310,64.5z"/>
				<path class="st11" d="M325,54.8l-9.7,9.7H310l7.5-7.5l7.5-7.5V54.8z M317.5,57h-5.3l-2.2-2.2v-5.3L317.5,57z"/>
			</g>
		</g>
		<text transform="matrix(1 0 0 1 99.8545 189.4077)" class="st2 st7">100%</text>
		<text transform="matrix(1 0 0 1 73.2212 197.2661)" class="st2 st7">95%</text>
		<text transform="matrix(1 0 0 1 46.7676 213.2715)" class="st2 st7">90%</text>
		<text transform="matrix(1 0 0 1 26.2129 239.7246)" class="st2 st7">85%</text>
		<text transform="matrix(1 0 0 1 15.6397 270.6558)" class="st2 st7">80%</text>
		<text transform="matrix(1 0 0 1 16.0708 301.623)" class="st2 st7">75%</text>
		<text transform="matrix(1 0 0 1 26.1055 331.4028)" class="st2 st7">70%</text>
		<text transform="matrix(1 0 0 1 46.9658 358.7012)" class="st2 st7">65%</text>
		<text transform="matrix(1 0 0 1 72.6997 375.5156)" class="st2 st7">60%</text>
		<text transform="matrix(1 0 0 1 103.145 383.1045)" class="st2 st7">55%</text>
		<text transform="matrix(1 0 0 1 163.3696 374.1504)" class="st2 st7">45%</text>
		<text transform="matrix(1 0 0 1 134.1826 382.186)" class="st2 st7">50%</text>
		<text transform="matrix(1 0 0 1 189.1362 355.4868)" class="st2 st7">40%</text>
		<text transform="matrix(1 0 0 1 209.6235 329.4063)" class="st2 st7">35%</text>
		<text transform="matrix(1 0 0 1 217.9863 300.3281)" class="st2 st7">30%</text>
		<text transform="matrix(1 0 0 1 218.4355 270.5117)" class="st2 st7">25%</text>
		<text transform="matrix(1 0 0 1 208.5088 239.8506)" class="st2 st7">20%</text>
		<text transform="matrix(1 0 0 1 187.9897 215.3936)" class="st2 st7">15%</text>
		<text transform="matrix(1 0 0 1 163.4248 198.1289)" class="st2 st7">10%</text>
		<text transform="matrix(1 0 0 1 137.3926 190.293)" class="st2 st7">5%</text>
		<path class="st12" d="M51.8,230.5c-5.4,7.4-9.7,15.7-12.6,24.6L72,265.8c1.8-5.4,4.4-10.5,7.7-15"/>
		<path class="st13" d="M71.4,210.9c-7.5,5.5-14.1,12.1-19.5,19.5l27.8,20.2c3.3-4.6,7.4-8.6,11.9-11.9"/>
		<path class="st14" d="M194.8,230.5c-5.5-7.5-12.1-14.1-19.6-19.5l-20.2,27.8c4.6,3.3,8.6,7.4,11.9,11.9"/>
		<path class="st15" d="M207.4,255.1c-2.9-8.9-7.2-17.2-12.6-24.6L167,250.7c3.3,4.5,5.9,9.6,7.7,15"/>
		<path class="st16" d="M211.7,282.4c0-9.5-1.5-18.7-4.3-27.3l-32.7,10.6c1.7,5.3,2.6,10.9,2.6,16.7"/>
		<path class="st17" d="M207.4,309.8c2.8-8.6,4.3-17.8,4.3-27.3c0,0,0,0,0,0h-34.4c0,0,0,0,0,0c0,5.8-0.9,11.4-2.6,16.7"/>
		<path class="st18" d="M194.8,334.4c5.4-7.4,9.7-15.7,12.6-24.6l-32.7-10.6c-1.8,5.4-4.4,10.5-7.7,15"/>
		<path class="st19" d="M175.3,353.9c7.5-5.5,14.1-12.1,19.5-19.6L167,314.2c-3.3,4.6-7.4,8.6-11.9,11.9"/>
		<path class="st20" d="M150.6,366.5c8.9-2.9,17.2-7.2,24.6-12.6l-20.2-27.8c-4.5,3.3-9.6,5.9-15,7.7"/>
		<path class="st21" d="M123.3,370.8c9.5,0,18.7-1.5,27.3-4.3L140,333.8c-5.3,1.7-10.9,2.6-16.7,2.6"/>
		<path class="st22" d="M71.4,353.9c7.4,5.4,15.7,9.7,24.6,12.6l10.6-32.7c-5.4-1.8-10.5-4.4-15-7.7"/>
		<path class="st23" d="M51.8,334.4c5.5,7.5,12.1,14.1,19.5,19.6l20.2-27.8c-4.6-3.3-8.6-7.4-11.9-11.9"/>
		<path class="st24" d="M39.3,309.8c2.9,8.9,7.2,17.2,12.6,24.6l27.8-20.2c-3.3-4.5-5.9-9.6-7.7-15"/>
		<path class="st25" d="M35,282.4C35,282.4,35,282.4,35,282.4c0,9.5,1.5,18.7,4.3,27.3L72,299.1c-1.7-5.3-2.6-10.9-2.6-16.7
			c0,0,0,0,0,0"/>
		<path class="st26" d="M39.3,255.1c-2.8,8.6-4.3,17.8-4.3,27.3h34.4c0-5.8,0.9-11.4,2.6-16.7"/>
		<path class="st27" d="M95.9,198.4c-8.9,2.9-17.1,7.1-24.5,12.5l20.2,27.8c4.5-3.3,9.6-5.9,15-7.7"/>
		<path class="st28" d="M123.3,194.1L123.3,194.1c-9.5,0-18.7,1.5-27.3,4.3l10.6,32.7c5.3-1.7,10.9-2.6,16.7-2.6"/>
		<path class="st29" d="M150.6,198.4c-8.6-2.8-17.8-4.3-27.3-4.3v34.4c5.8,0,11.4,0.9,16.7,2.6"/>
		<line class="st30" x1="72" y1="265.8" x2="39.3" y2="255.1"/>
		<line class="st31" x1="69.3" y1="282.4" x2="35" y2="282.4"/>
		<path class="st32" d="M96,366.5c8.6,2.8,17.8,4.3,27.3,4.3l0,0v-34.4l0,0c-5.8,0-11.4-0.9-16.7-2.6"/>
		<line class="st33" x1="106.6" y1="333.8" x2="96" y2="366.5"/>
		<line class="st34" x1="91.6" y1="326.1" x2="71.4" y2="353.9"/>
		<line class="st35" x1="79.6" y1="314.2" x2="51.8" y2="334.4"/>
		<line class="st36" x1="72" y1="299.1" x2="39.3" y2="309.8"/>
		<line class="st37" x1="91.6" y1="238.8" x2="71.4" y2="210.9"/>
		<polyline class="st38" points="123.3,228.4 123.3,228.4 123.3,194.1 		"/>
		<path class="st39" d="M106.6,231.1L96,198.4c-0.1,0-0.1,0-0.1,0"/>
		<line class="st40" x1="174.7" y1="299.1" x2="207.4" y2="309.8"/>
		<line class="st41" x1="140" y1="333.8" x2="150.6" y2="366.5"/>
		<line class="st42" x1="123.3" y1="336.4" x2="123.3" y2="370.8"/>
		<line class="st43" x1="155.1" y1="326.1" x2="175.3" y2="353.9"/>
		<line class="st44" x1="167" y1="314.2" x2="194.7" y2="334.3"/>
		<line class="st18" x1="194.7" y1="334.3" x2="194.8" y2="334.4"/>
		<path class="st45" d="M175.1,210.8c-7.4-5.3-15.6-9.6-24.5-12.5L140,231.1c5.4,1.8,10.5,4.4,15,7.7"/>
		<path class="st46" d="M155.1,238.8l20.2-27.8c-0.1,0-0.1-0.1-0.2-0.1"/>
		<line class="st47" x1="167" y1="250.7" x2="194.8" y2="230.5"/>
		<line class="st48" x1="140" y1="231.1" x2="150.6" y2="198.4"/>
		<line class="st49" x1="177.3" y1="282.4" x2="211.7" y2="282.4"/>
		<line class="st50" x1="174.7" y1="265.8" x2="207.4" y2="255.1"/>
		<text transform="matrix(1 0 0 1 91.1997 285.2769)" class="st2 st5">Engraving test</text>
		<line class="st51" x1="79.6" y1="250.7" x2="51.8" y2="230.5"/>
		<circle class="st52" cx="123.3" cy="282.4" r="54.2"/>
		<circle class="st52" cx="123.3" cy="282.4" r="88.3"/>
		<rect x="64.4" y="421.8" class="st1" width="102.7" height="9"/>
		<text transform="matrix(1 0 0 1 70.6748 428.916)" class="st2 st5">Straight line flex cut:</text>
		<rect x="227.5" y="421.8" class="st1" width="131.8" height="10.2"/>
		<text transform="matrix(1 0 0 1 229.1909 428.916)" class="st2 st5">Parabolic flex cut: 16x1,5mm</text>
		<g>
			<path d="M307,22.1c0,0,4.8-0.1,8.3,4.7c4.7,6.5-0.3,13.3-0.3,13.3c-2.9-0.1-4.3-1.3-4.3-1.3s3.2-2.3,1.9-8
				c-1.5-6.2-10.2-4.9-10.2-4.9v14.9h2.6c1.7,2.3,4.2,3.1,4.2,3.1c-2.2,0.9-6.1,0.8-6.1,0.8l-4.9,0V21.9h6.3L307,22.1z"/>
			<path class="st11" d="M322,22v22.7h-6.9c0,0-7.2,0.3-10.6-5.8c-3.5-6.1,0.4-12,0.8-12.4c0,0,3,0.3,4.2,1.3c0,0-2.8,2.2-2.1,6.8
				c0,0,0.6,5.2,6,6c0,0-0.1,0.2,4.5,0.2V25.9h-2.6c0,0-1.9-2.4-4.2-3.3c0,0,1.6-0.6,4.6-0.7L322,22z"/>
		</g>
		<rect x="206.7" y="79.7" class="st1" width="152.5" height="10.1"/>
		<text transform="matrix(1 0 0 1 206.6719 86.8335)" class="st2 st5">Font sizes test using Arial regular:</text>
		<text transform="matrix(1 0 0 1 211.2896 96.4028)" class="st2 st53">This is written in font size 5pt</text>
		<text transform="matrix(1 0 0 1 211.2896 103.8994)" class="st2 st54">This is written in font size 6pt</text>
		<text transform="matrix(1 0 0 1 211.2896 112.3955)" class="st2 st55">This is written in font size 7pt</text>
		<text transform="matrix(1 0 0 1 211.2896 121.8916)" class="st2 st7">This is written in font size 8pt</text>
		<text transform="matrix(1 0 0 1 211.2896 131.3882)" class="st2 st56">This is written in font size 9pt</text>
		<text transform="matrix(1 0 0 1 211.2896 142.8848)" class="st2 st5">This is written in font size 10pt</text>
		<line class="st0" x1="70.2" y1="459.2" x2="24.8" y2="459.2"/>
		<line class="st0" x1="20.6" y1="453.5" x2="44.5" y2="453.5"/>
		<line class="st0" x1="50.2" y1="453.5" x2="74.6" y2="453.5"/>
		<line class="st0" x1="70.2" y1="470.6" x2="24.8" y2="470.6"/>
		<line class="st0" x1="20.6" y1="464.9" x2="44.5" y2="464.9"/>
		<line class="st0" x1="50.2" y1="464.9" x2="74.6" y2="464.9"/>
		<line class="st0" x1="70.2" y1="481.9" x2="24.8" y2="481.9"/>
		<line class="st0" x1="20.6" y1="476.2" x2="44.5" y2="476.2"/>
		<line class="st0" x1="50.2" y1="476.2" x2="74.6" y2="476.2"/>
		<line class="st0" x1="70.2" y1="493.2" x2="24.8" y2="493.2"/>
		<line class="st0" x1="20.6" y1="487.6" x2="44.5" y2="487.6"/>
		<line class="st0" x1="50.2" y1="487.6" x2="74.6" y2="487.6"/>
		<line class="st0" x1="70.2" y1="504.6" x2="24.8" y2="504.6"/>
		<line class="st0" x1="20.6" y1="498.9" x2="44.5" y2="498.9"/>
		<line class="st0" x1="50.2" y1="498.9" x2="74.6" y2="498.9"/>
		<line class="st0" x1="70.2" y1="515.9" x2="24.8" y2="515.9"/>
		<line class="st0" x1="20.6" y1="510.2" x2="44.5" y2="510.2"/>
		<line class="st0" x1="50.2" y1="510.2" x2="74.6" y2="510.2"/>
		<line class="st0" x1="70.2" y1="527.2" x2="24.8" y2="527.2"/>
		<line class="st0" x1="20.6" y1="521.6" x2="44.5" y2="521.6"/>
		<line class="st0" x1="50.2" y1="521.6" x2="74.6" y2="521.6"/>
		<line class="st0" x1="70.2" y1="538.6" x2="24.8" y2="538.6"/>
		<line class="st0" x1="20.6" y1="532.9" x2="44.5" y2="532.9"/>
		<line class="st0" x1="50.2" y1="532.9" x2="74.6" y2="532.9"/>
		<line class="st0" x1="70.2" y1="549.9" x2="24.8" y2="549.9"/>
		<line class="st0" x1="20.6" y1="544.3" x2="44.5" y2="544.3"/>
		<line class="st0" x1="50.2" y1="544.3" x2="74.6" y2="544.3"/>
		<polygon class="st57" points="74.2,450.6 74.2,561.1 21,561.1 21,450.6 18.4,450.6 18.4,564.3 76.5,564.3 76.5,450.6 		"/>
		<rect x="27.5" y="435.5" class="st1" width="41.2" height="13.5"/>
		<text transform="matrix(1 0 0 1 31.4155 441.2065)" class="st2 st7">2mm gap</text>
		<ellipse class="st0" cx="263.6" cy="455.7" rx="22.7" ry="2.1"/>
		<path class="st0" d="M290.2,462c-13.2,0-24,1-24,2.1c0,1.2,10.7,2.1,24,2.1c0,0,0.1,0,0.1,0V462C290.3,462,290.3,462,290.2,462z"
			/>
		<path class="st0" d="M261,464.2c0-1.2-10.8-2.1-24.1-2.1v4.3C250.2,466.3,261,465.3,261,464.2z"/>
		<text transform="matrix(1 0 0 1 239.6226 442.2783)" class="st2 st7">3mm spacing</text>
		<ellipse class="st0" cx="263.6" cy="472.7" rx="22.7" ry="2.1"/>
		<path class="st0" d="M290.2,479.1c-13.2,0-24,1-24,2.1c0,1.2,10.7,2.1,24,2.1c0,0,0.1,0,0.1,0v-4.3
			C290.3,479.1,290.3,479.1,290.2,479.1z"/>
		<path class="st0" d="M261,481.2c0-1.2-10.8-2.1-24.1-2.1v4.3C250.2,483.3,261,482.4,261,481.2z"/>
		<ellipse class="st0" cx="263.6" cy="489.7" rx="22.7" ry="2.1"/>
		<path class="st0" d="M290.2,496.1c-13.2,0-24,1-24,2.1c0,1.2,10.7,2.1,24,2.1c0,0,0.1,0,0.1,0v-4.3
			C290.3,496.1,290.3,496.1,290.2,496.1z"/>
		<path class="st0" d="M261,498.2c0-1.2-10.8-2.1-24.1-2.1v4.3C250.2,500.3,261,499.4,261,498.2z"/>
		<ellipse class="st0" cx="263.6" cy="506.7" rx="22.7" ry="2.1"/>
		<path class="st0" d="M290.2,513.1c-13.2,0-24,1-24,2.1c0,1.2,10.7,2.1,24,2.1c0,0,0.1,0,0.1,0v-4.3
			C290.3,513.1,290.3,513.1,290.2,513.1z"/>
		<path class="st0" d="M261,515.2c0-1.2-10.8-2.1-24.1-2.1v4.3C250.2,517.3,261,516.4,261,515.2z"/>
		<ellipse class="st0" cx="263.6" cy="523.7" rx="22.7" ry="2.1"/>
		<path class="st0" d="M290.2,530.1c-13.2,0-24,1-24,2.1s10.7,2.1,24,2.1c0,0,0.1,0,0.1,0v-4.3C290.3,530.1,290.3,530.1,290.2,530.1
			z"/>
		<path class="st0" d="M261,532.2c0-1.2-10.8-2.1-24.1-2.1v4.3C250.2,534.3,261,533.4,261,532.2z"/>
		<ellipse class="st0" cx="263.6" cy="540.7" rx="22.7" ry="2.1"/>
		<path class="st0" d="M290.2,547.1c-13.2,0-24,1-24,2.1c0,1.2,10.7,2.1,24,2.1c0,0,0.1,0,0.1,0v-4.3
			C290.3,547.1,290.3,547.1,290.2,547.1z"/>
		<path class="st0" d="M261,549.2c0-1.2-10.8-2.1-24.1-2.1v4.3C250.2,551.3,261,550.4,261,549.2z"/>
		<text transform="matrix(1 0 0 1 304.457 442.2783)" class="st2 st7">4mm spacing</text>
		<ellipse class="st0" cx="328.8" cy="455.7" rx="22.7" ry="2.1"/>
		<path class="st0" d="M355.4,464.9c-13.2,0-24,1-24,2.1c0,1.2,10.7,2.1,24,2.1c0,0,0.1,0,0.1,0v-4.3
			C355.5,464.9,355.5,464.9,355.4,464.9z"/>
		<path class="st0" d="M326.2,467c0-1.2-10.8-2.1-24.1-2.1v4.3C315.4,469.1,326.2,468.2,326.2,467z"/>
		<ellipse class="st0" cx="328.8" cy="478.3" rx="22.7" ry="2.1"/>
		<path class="st0" d="M355.4,487.6c-13.2,0-24,1-24,2.1c0,1.2,10.7,2.1,24,2.1c0,0,0.1,0,0.1,0v-4.3
			C355.5,487.6,355.5,487.6,355.4,487.6z"/>
		<path class="st0" d="M326.2,489.7c0-1.2-10.8-2.1-24.1-2.1v4.3C315.4,491.8,326.2,490.9,326.2,489.7z"/>
		<ellipse class="st0" cx="328.8" cy="501" rx="22.7" ry="2.1"/>
		<path class="st0" d="M355.4,510.2c-13.2,0-24,1-24,2.1c0,1.2,10.7,2.1,24,2.1c0,0,0.1,0,0.1,0v-4.3
			C355.5,510.2,355.5,510.2,355.4,510.2z"/>
		<path class="st0" d="M326.2,512.4c0-1.2-10.8-2.1-24.1-2.1v4.3C315.4,514.5,326.2,513.5,326.2,512.4z"/>
		<ellipse class="st0" cx="328.8" cy="523.7" rx="22.7" ry="2.1"/>
		<path class="st0" d="M355.4,532.9c-13.2,0-24,1-24,2.1c0,1.2,10.7,2.1,24,2.1c0,0,0.1,0,0.1,0v-4.3
			C355.5,532.9,355.5,532.9,355.4,532.9z"/>
		<path class="st0" d="M326.2,535c0-1.2-10.8-2.1-24.1-2.1v4.3C315.4,537.2,326.2,536.2,326.2,535z"/>
		<ellipse class="st0" cx="328.8" cy="546.4" rx="22.7" ry="2.1"/>
		<rect x="93.6" y="435.5" class="st1" width="42.7" height="13.5"/>
		<text transform="matrix(1 0 0 1 98.2661 441.2065)" class="st2 st7">3mm gap</text>
		<line class="st0" x1="136.7" y1="462" x2="94.2" y2="462"/>
		<line class="st0" x1="88.5" y1="453.5" x2="112.4" y2="453.5"/>
		<line class="st0" x1="118.1" y1="453.5" x2="142.5" y2="453.5"/>
		<line class="st0" x1="136.7" y1="479.1" x2="94.2" y2="479.1"/>
		<line class="st0" x1="88.5" y1="470.6" x2="112.4" y2="470.6"/>
		<line class="st0" x1="118.1" y1="470.6" x2="142.5" y2="470.6"/>
		<line class="st0" x1="136.7" y1="496.1" x2="94.2" y2="496.1"/>
		<line class="st0" x1="88.5" y1="487.6" x2="112.4" y2="487.6"/>
		<line class="st0" x1="118.1" y1="487.6" x2="142.5" y2="487.6"/>
		<line class="st0" x1="136.7" y1="513.1" x2="94.2" y2="513.1"/>
		<line class="st0" x1="88.5" y1="504.6" x2="112.4" y2="504.6"/>
		<line class="st0" x1="118.1" y1="504.6" x2="142.5" y2="504.6"/>
		<line class="st0" x1="136.7" y1="530.1" x2="94.2" y2="530.1"/>
		<line class="st0" x1="88.5" y1="521.6" x2="112.4" y2="521.6"/>
		<line class="st0" x1="118.1" y1="521.6" x2="142.5" y2="521.6"/>
		<line class="st0" x1="136.7" y1="547.1" x2="94.2" y2="547.1"/>
		<line class="st0" x1="88.5" y1="538.6" x2="112.4" y2="538.6"/>
		<line class="st0" x1="118.1" y1="538.6" x2="142.5" y2="538.6"/>
		<polygon class="st57" points="142.2,450.6 142.2,561.1 89,561.1 89,450.6 86.5,450.6 86.5,564.3 144.6,564.3 144.6,450.6 		"/>
		<line class="st0" x1="203.3" y1="464.9" x2="163.7" y2="464.9"/>
		<line class="st0" x1="156.5" y1="453.5" x2="180.5" y2="453.5"/>
		<line class="st0" x1="186.1" y1="453.5" x2="210.5" y2="453.5"/>
		<rect x="164.7" y="435.5" class="st1" width="38.4" height="13"/>
		<text transform="matrix(1 0 0 1 167.1831 441.2065)" class="st2 st7">4mm gap</text>
		<line class="st0" x1="203.3" y1="487.6" x2="163.7" y2="487.6"/>
		<line class="st0" x1="156.5" y1="476.2" x2="180.5" y2="476.2"/>
		<line class="st0" x1="186.1" y1="476.2" x2="210.5" y2="476.2"/>
		<line class="st0" x1="203.3" y1="510.2" x2="163.7" y2="510.2"/>
		<line class="st0" x1="156.5" y1="498.9" x2="180.5" y2="498.9"/>
		<line class="st0" x1="186.1" y1="498.9" x2="210.5" y2="498.9"/>
		<line class="st0" x1="156.5" y1="521.6" x2="180.5" y2="521.6"/>
		<line class="st0" x1="186.1" y1="521.6" x2="210.5" y2="521.6"/>
		<polygon class="st57" points="355.5,450.6 355.5,561.1 302.3,561.1 302.3,450.6 299.8,450.6 299.8,564.3 357.9,564.3 357.9,450.6 
					"/>
		<polygon class="st57" points="290.3,450.6 290.3,561.1 237.1,561.1 237.1,450.6 234.6,450.6 234.6,564.3 292.7,564.3 292.7,450.6 
					"/>
		<line class="st0" x1="203.3" y1="532.9" x2="163.7" y2="532.9"/>
		<line class="st0" x1="156.5" y1="544.3" x2="180.5" y2="544.3"/>
		<line class="st0" x1="186.1" y1="544.3" x2="210.5" y2="544.3"/>
		<polygon class="st57" points="210.2,450.6 210.2,561.1 157,561.1 157,450.6 154.5,450.6 154.5,564.3 212.6,564.3 212.6,450.6 		
			"/>
	</g>
</g>
</svg>
